<svg width="56" height="56" viewBox="0 0 56 56" fill="none" xmlns="http://www.w3.org/2000/svg">
<path fill-rule="evenodd" clip-rule="evenodd" d="M0 28C0 43.464 12.536 56 28 56C43.464 56 56 43.464 56 28C56 12.536 43.464 0 28 0C12.536 0 0 12.536 0 28ZM48 28C48 39.0457 39.0457 48 28 48C16.9543 48 8 39.0457 8 28C8 16.9543 16.9543 8 28 8C39.0457 8 48 16.9543 48 28Z" fill="url(#paint0_linear)"/>
<path d="M26.245 21H24.1245V31.9165H26.245V21ZM23.0403 27.9469C20.6487 27.1659 19.6282 25.2462 19.6282 23.2777V21.8134H17.4917V23.2777C17.4917 25.2625 16.4394 27.3612 14 28.2072L15.0683 29.9154C16.7743 29.3134 17.9222 28.0933 18.5919 26.5803C19.2296 27.9794 20.3457 29.0857 21.972 29.6551L23.0403 27.9469ZM18.5759 33.9989V30.8753H16.4713V35.7072H26.6117V33.9989H18.5759Z" fill="#6432D2"/>
<path d="M41 28.2397H38.8954C39.3099 25.7831 39.3099 24.0423 39.3099 22.7733V21.8134H29.2811V23.5542H37.2213C37.2053 24.7256 37.1415 26.2386 36.7748 28.2397H27.7346V29.9805H30.7001V36H32.7888V29.9805H35.7863V36H37.875V29.9805H41V28.2397Z" fill="#6432D2"/>
<defs>
<linearGradient id="paint0_linear" x1="28.8699" y1="0" x2="28.8699" y2="56" gradientUnits="userSpaceOnUse">
<stop stop-color="#9D61EB"/>
<stop offset="1" stop-color="#6432D2"/>
</linearGradient>
</defs>
</svg>
