<svg width="32" height="32" viewBox="0 0 32 32" fill="none" xmlns="http://www.w3.org/2000/svg">
<g id="Icon/service_group/express-color">
<g id="category/express/56_positive">
<mask id="mask0" mask-type="alpha" maskUnits="userSpaceOnUse" x="0" y="0" width="32" height="32">
<rect id="Mask" width="32" height="32" fill="white"/>
</mask>
<g mask="url(#mask0)">
<rect id="Rectangle 7" x="1.14282" y="18.8572" width="1.14286" height="5.71428" rx="0.571429" fill="#121212"/>
<rect id="Rectangle 7_2" x="14.2856" y="10.8572" width="1.14286" height="13.7143" rx="0.571429" fill="#121212"/>
<rect id="Rectangle 7_3" x="29.7144" y="6.28577" width="1.14286" height="18.2857" rx="0.571429" fill="#121212"/>
<rect id="Rectangle 7_4" x="5.42847" y="23.7142" width="1.14286" height="4" rx="0.571429" transform="rotate(90 5.42847 23.7142)" fill="#121212"/>
<rect id="Rectangle 7_5" x="21.1428" y="23.4286" width="1.14286" height="6.85714" rx="0.571428" transform="rotate(90 21.1428 23.4286)" fill="#121212"/>
<rect id="Rectangle 7_6" x="30.8572" y="6.28577" width="1.14286" height="15.4286" rx="0.571429" transform="rotate(90 30.8572 6.28577)" fill="#121212"/>
<rect id="Rectangle 7_7" x="30.8572" y="23.4286" width="1.14286" height="5.14286" rx="0.571428" transform="rotate(90 30.8572 23.4286)" fill="#121212"/>
<rect id="Rectangle 7_8" x="15.4285" y="10.8572" width="1.14286" height="8.57143" rx="0.571429" transform="rotate(90 15.4285 10.8572)" fill="#121212"/>
<path id="Rectangle 7_9" d="M6.88257 11.1607C7.05242 10.9209 7.37688 10.8499 7.63133 10.9968C7.92149 11.1644 8.0048 11.5451 7.81112 11.8185L2.19031 19.7526C2.02046 19.9924 1.696 20.0634 1.44155 19.9164C1.15139 19.7489 1.06808 19.3682 1.26176 19.0948L6.88257 11.1607Z" fill="#121212"/>
<path id="Oval 7" fill-rule="evenodd" clip-rule="evenodd" d="M20 24C20 25.8935 21.535 27.4286 23.4286 27.4286C25.3221 27.4286 26.8571 25.8935 26.8571 24C26.8571 22.1064 25.3221 20.5714 23.4286 20.5714C21.535 20.5714 20 22.1064 20 24ZM25.7143 24C25.7143 25.2623 24.6909 26.2857 23.4286 26.2857C22.1662 26.2857 21.1429 25.2623 21.1429 24C21.1429 22.7376 22.1662 21.7143 23.4286 21.7143C24.6909 21.7143 25.7143 22.7376 25.7143 24Z" fill="#121212"/>
<path id="Oval 7_2" fill-rule="evenodd" clip-rule="evenodd" d="M4.57153 24C4.57153 25.8935 6.10656 27.4286 8.0001 27.4286C9.89365 27.4286 11.4287 25.8935 11.4287 24C11.4287 22.1064 9.89365 20.5714 8.0001 20.5714C6.10656 20.5714 4.57153 22.1064 4.57153 24ZM10.2858 24C10.2858 25.2623 9.26247 26.2857 8.0001 26.2857C6.73774 26.2857 5.71439 25.2623 5.71439 24C5.71439 22.7376 6.73774 21.7143 8.0001 21.7143C9.26247 21.7143 10.2858 22.7376 10.2858 24Z" fill="#1672F7"/>
</g>
</g>
</g>
</svg>
