<svg xmlns="http://www.w3.org/2000/svg" xmlns:xlink="http://www.w3.org/1999/xlink" width="87" height="16" viewBox="0 0 87 16">
    <defs>
        <path id="prefix__a" d="M0 16L88.338 16 88.338 0 0 0z"/>
        <path id="prefix__c" d="M38.347 0c-.572 0-1.09.223-1.482.58l-.012.01c-.122.113-.234.237-.327.375l-7.219 9.313L22.09.965c-.093-.138-.205-.262-.327-.375L21.75.58C21.36.223 20.84 0 20.268 0c-.47 0-.904.15-1.262.401l-.008.005c-.015.011-.027.025-.043.037-.094.07-.186.145-.267.23-.035.036-.063.076-.095.113-.059.07-.117.139-.166.215-.029.043-.05.09-.075.136-.044.078-.086.155-.119.238-.018.047-.03.096-.045.144-.027.083-.054.167-.07.254-.013.067-.014.135-.021.204-.004.059-.018.116-.018.177V7.44L13.022.914c-.232-.32-.542-.552-.883-.703l-.053-.026c-.097-.04-.198-.07-.3-.095-.042-.011-.084-.025-.126-.033-.08-.016-.16-.022-.242-.03-.064-.005-.126-.013-.19-.013-.063 0-.125.008-.188.014-.082.007-.163.013-.243.029-.043.008-.084.022-.126.033-.102.026-.202.056-.3.095-.018.008-.034.018-.053.026-.341.151-.651.383-.883.703L4.378 7.44V2.154C4.378.969 3.393 0 2.188 0 .986 0 0 .97 0 2.154v11.693c0 .078.015.152.024.229.005.038.005.08.012.118C.206 15.214 1.106 16 2.19 16c.788 0 1.476-.418 1.862-1.038L11.229 5.7l7.178 9.26c.385.62 1.073 1.039 1.861 1.039 1.083 0 1.983-.786 2.154-1.807.006-.038.006-.077.012-.116.008-.077.023-.151.023-.23V8.54l5.057 6.524c.232.321.542.553.884.704.017.007.034.018.052.025.098.04.197.07.3.096.042.011.084.025.126.034.08.015.161.022.242.028.064.006.126.013.19.013.063 0 .125-.007.189-.013.081-.006.161-.013.241-.028.043-.009.085-.023.127-.034.102-.026.203-.056.3-.096.018-.007.035-.018.053-.025.341-.151.65-.383.883-.704l5.057-6.524v5.307c0 1.184.985 2.153 2.19 2.153 1.203 0 2.188-.97 2.188-2.153V2.154c0-.061-.012-.118-.017-.177-.007-.069-.01-.137-.022-.204-.016-.087-.043-.17-.07-.254-.015-.048-.027-.097-.045-.144-.033-.083-.076-.16-.119-.238-.025-.046-.047-.093-.075-.136-.05-.076-.107-.146-.166-.215-.032-.037-.06-.077-.095-.113-.082-.085-.173-.16-.268-.23-.015-.012-.026-.026-.042-.037L39.61.401C39.25.151 38.817 0 38.347 0z"/>
        <linearGradient id="prefix__d" x1="0%" x2="100%" y1="57.79%" y2="42.21%">
            <stop offset="0%" stop-color="#2CCBCB"/>
            <stop offset="100%" stop-color="#1689F7"/>
        </linearGradient>
    </defs>
    <g fill="none" fill-rule="evenodd">
        <path fill="#000" d="M50.066 2.924c.231-.075.486-.112.757-.112.272 0 .527.037.758.112.23.073.43.173.595.295.162.121.29.263.378.422.087.157.131.323.131.494v.277c0 .17-.044.337-.131.494-.089.159-.216.3-.378.421-.165.123-.364.223-.595.296-.462.15-1.053.15-1.515 0-.23-.073-.43-.173-.595-.296-.162-.12-.289-.262-.378-.421-.086-.158-.13-.324-.13-.494v-.277c0-.17.044-.337.13-.494.09-.16.216-.301.378-.422.166-.122.366-.222.595-.295m-2.06 3.71c.34.266.752.477 1.221.628.469.15 1.006.227 1.596.227.58 0 1.115-.077 1.589-.227.474-.15.888-.362 1.228-.629.341-.266.606-.586.788-.949.182-.363.274-.755.274-1.165v-.492c0-.41-.092-.802-.274-1.165-.182-.362-.447-.682-.788-.949-.339-.266-.752-.477-1.228-.628-.475-.15-1.01-.227-1.589-.227-.588 0-1.126.076-1.596.227-.47.15-.882.362-1.22.628-.341.268-.606.587-.788.95-.182.362-.274.754-.274 1.164v.492c0 .41.092.802.274 1.165.182.363.447.682.787.95M55.585 8.09c-.466.05-.99.091-1.56.121-.563.031-1.21.056-1.976.077-.73.02-1.557.036-2.532.046-.957.01-2.038.016-3.213.016h-.078v1.816h1.978c.548 0 1.087-.005 1.603-.014v4.675h2.112v-4.71c.81-.02 1.532-.047 2.147-.082.634-.036 1.199-.086 1.679-.147l.074-.01-.154-1.798-.08.01z"/>
        <mask id="prefix__b" fill="#fff">
            <use xlink:href="#prefix__a"/>
        </mask>
        <path fill="#000" d="M56.266 15.242L58.378 15.242 58.378.781 56.266.781zM62.632 9.658h2.049V3.919h-2.05v5.739zm-2.033 1.784h6.115V2.135h-6.115v9.307zM70.967 5.719L69.841 5.719 69.841 1.073 67.808 1.073 67.808 14.551 69.841 14.551 69.841 7.551 70.967 7.551 70.967 15.243 73.001 15.243 73.001.781 70.967.781zM82.978 10.04c-.204-.19-.404-.378-.602-.568-.198-.189-.387-.374-.57-.553-.18-.177-.34-.344-.474-.497-.207-.224-.384-.439-.526-.639-.142-.2-.257-.409-.343-.623-.087-.215-.151-.445-.191-.684-.04-.24-.061-.51-.061-.803V4.566h2.924V2.75h-2.924V.858h-2.159V2.75h-3.065v1.816h3.065v1.107c0 .303-.018.576-.053.812-.037.235-.1.462-.191.674-.09.214-.214.429-.367.639-.154.211-.346.448-.572.7-.686.735-1.463 1.484-2.31 2.225l-.06.054 1.355 1.365.053.054.055-.05c.45-.401.82-.747 1.13-1.057.312-.313.615-.619.907-.916.264-.27.512-.54.739-.804.187-.218.321-.393.407-.53.07.118.183.265.342.446.203.23.464.509.777.826.287.293.603.607.94.932.332.322.669.641 1.002.948l.056.052 1.377-1.405-.06-.053c-.198-.174-.399-.355-.601-.545M84.652 15.242L86.795 15.242 86.795.781 84.652.781z" mask="url(#prefix__b)"/>
        <mask id="prefix__e" fill="#fff">
            <use xlink:href="#prefix__c"/>
        </mask>
        <path fill="url(#prefix__d)" d="M38.347 0c-.572 0-1.09.223-1.482.58l-.012.01c-.122.113-.234.237-.327.375l-7.219 9.313L22.09.965c-.093-.138-.205-.262-.327-.375L21.75.58C21.36.223 20.84 0 20.268 0c-.47 0-.904.15-1.262.401l-.008.005c-.015.011-.027.025-.043.037-.094.07-.186.145-.267.23-.035.036-.063.076-.095.113-.059.07-.117.139-.166.215-.029.043-.05.09-.075.136-.044.078-.086.155-.119.238-.018.047-.03.096-.045.144-.027.083-.054.167-.07.254-.013.067-.014.135-.021.204-.004.059-.018.116-.018.177V7.44L13.022.914c-.232-.32-.542-.552-.883-.703l-.053-.026c-.097-.04-.198-.07-.3-.095-.042-.011-.084-.025-.126-.033-.08-.016-.16-.022-.242-.03-.064-.005-.126-.013-.19-.013-.063 0-.125.008-.188.014-.082.007-.163.013-.243.029-.043.008-.084.022-.126.033-.102.026-.202.056-.3.095-.018.008-.034.018-.053.026-.341.151-.651.383-.883.703L4.378 7.44V2.154C4.378.969 3.393 0 2.188 0 .986 0 0 .97 0 2.154v11.693c0 .078.015.152.024.229.005.038.005.08.012.118C.206 15.214 1.106 16 2.19 16c.788 0 1.476-.418 1.862-1.038L11.229 5.7l7.178 9.26c.385.62 1.073 1.039 1.861 1.039 1.083 0 1.983-.786 2.154-1.807.006-.038.006-.077.012-.116.008-.077.023-.151.023-.23V8.54l5.057 6.524c.232.321.542.553.884.704.017.007.034.018.052.025.098.04.197.07.3.096.042.011.084.025.126.034.08.015.161.022.242.028.064.006.126.013.19.013.063 0 .125-.007.189-.013.081-.006.161-.013.241-.028.043-.009.085-.023.127-.034.102-.026.203-.056.3-.096.018-.007.035-.018.053-.025.341-.151.65-.383.883-.704l5.057-6.524v5.307c0 1.184.985 2.153 2.19 2.153 1.203 0 2.188-.97 2.188-2.153V2.154c0-.061-.012-.118-.017-.177-.007-.069-.01-.137-.022-.204-.016-.087-.043-.17-.07-.254-.015-.048-.027-.097-.045-.144-.033-.083-.076-.16-.119-.238-.025-.046-.047-.093-.075-.136-.05-.076-.107-.146-.166-.215-.032-.037-.06-.077-.095-.113-.082-.085-.173-.16-.268-.23-.015-.012-.026-.026-.042-.037L39.61.401C39.25.151 38.817 0 38.347 0z" mask="url(#prefix__e)"/>
        <path fill="#1672F7" d="M38.347 16c-1.21 0-2.189-.964-2.189-2.153 0-1.19.98-2.154 2.189-2.154 1.21 0 2.19.964 2.19 2.154S39.556 16 38.346 16"/>
        <path fill-rule="nonzero" d="M0 0H88.338V16H0z"/>
    </g>
</svg>