<svg width="16" height="16" viewBox="0 0 16 16" fill="none" xmlns="http://www.w3.org/2000/svg">
<path fill-rule="evenodd" clip-rule="evenodd" d="M8 0C12.4183 0 16 3.58172 16 8C16 12.4183 12.4183 16 8 16C3.58172 16 0 12.4183 0 8C0 6.55723 0.381927 5.20366 1.05019 4.03489C1.13767 3.88499 1.2997 3.78379 1.48537 3.78379C1.76151 3.78379 1.98537 4.00765 1.98537 4.28379C1.98537 4.37584 1.9605 4.46207 1.9171 4.53615L1.90769 4.55024C1.32991 5.56841 1 6.74568 1 8C1 11.866 4.13401 15 8 15C11.866 15 15 11.866 15 8C15 4.13401 11.866 1 8 1C6.89684 1 5.85328 1.25518 4.92514 1.70974C4.84952 1.75902 4.75909 1.78657 4.66222 1.78657C4.38607 1.78657 4.16222 1.56271 4.16222 1.28657C4.16222 1.11629 4.24733 0.965902 4.37733 0.875611L4.44571 0.835762L4.44475 0.833972C5.51479 0.299476 6.72242 0 8 0ZM8.46084 11.2688V12.2688H7.46084V11.2688H8.46084ZM9.76053 4.87093C9.29365 4.46952 8.69728 4.26881 7.97142 4.26881C7.26669 4.26881 6.69235 4.46421 6.24837 4.85502C5.80439 5.24583 5.54189 5.8002 5.46084 6.51815L6.43865 6.62425C6.61483 5.57738 7.12927 5.05396 7.98199 5.05396C8.4013 5.05396 8.75718 5.19454 9.04964 5.47571C9.3421 5.75688 9.48833 6.08313 9.48833 6.45449C9.48833 6.63486 9.44517 6.81258 9.35884 6.98765C9.27251 7.16271 9.05669 7.40409 8.71137 7.71178L8.41497 7.97746C8.28135 8.10096 8.16962 8.21046 8.07977 8.30595C7.93001 8.4651 7.80845 8.63486 7.71507 8.81523C7.6217 8.9956 7.56003 9.18039 7.53008 9.36961C7.50013 9.55882 7.48516 9.85855 7.48516 10.2688H8.39425C8.40482 9.75245 8.46032 9.39437 8.56074 9.19454C8.66116 8.99472 8.90517 8.72151 9.29277 8.37491L9.45502 8.22821C9.86933 7.84502 10.1368 7.52611 10.2574 7.27147C10.393 6.98499 10.4608 6.68968 10.4608 6.38552C10.4608 5.77721 10.2274 5.27235 9.76053 4.87093Z" fill="#BCC0C6"/>
</svg>
