<svg width="72" height="72" xmlns="http://www.w3.org/2000/svg"><defs><linearGradient x1="50%" y1="0%" x2="50%" y2="100%" id="a"><stop stop-color="#FDA76F" offset="0%"/><stop stop-color="#FA6E3C" offset="100%"/></linearGradient></defs><g fill="none" fill-rule="evenodd"><path d="M36 61.714c14.202 0 25.714-11.512 25.714-25.714 0-14.202-11.512-25.714-25.714-25.714-14.202 0-25.714 11.512-25.714 25.714 0 14.202 11.512 25.714 25.714 25.714zM36 72C16.118 72 0 55.882 0 36S16.118 0 36 0s36 16.118 36 36-16.118 36-36 36z" fill="#EBEEF2" fill-rule="nonzero"/><path d="M66.857 61.714V72c-9.538 0-18.21-3.71-24.65-9.764C35.22 55.67 30.856 46.344 30.856 36c0-10.46 4.461-19.878 11.584-26.455A35.872 35.872 0 0166.857 0v10.286a25.582 25.582 0 00-17.438 6.816C44.171 21.947 41.143 28.718 41.143 36a25.61 25.61 0 008.108 18.742 25.585 25.585 0 0017.606 6.972zm0-61.714l.218.005a5.143 5.143 0 01-.218 10.28 25.582 25.582 0 00-17.438 6.817C44.171 21.947 41.143 28.718 41.143 36a25.61 25.61 0 008.108 18.742 25.585 25.585 0 0017.606 6.972V72c-9.538 0-18.21-3.71-24.65-9.764C35.22 55.67 30.856 46.344 30.856 36c0-10.46 4.461-19.878 11.584-26.455A35.872 35.872 0 0166.857 0z" fill="url(#a)" fill-rule="nonzero" transform="matrix(-1 0 0 1 102.857 0)"/><path d="M36 72a5.143 5.143 0 100-10.286A5.143 5.143 0 0036 72zM33.814 46.709v-1.325h-6.223v-1.62h6.133V42.44h-7.74v4.269h7.83zm1.569 2.198v-1.324H24.429v1.324h10.954zm-5.477 5.426c.523 0 1.018-.045 1.485-.135a4.59 4.59 0 001.228-.405c.351-.18.63-.407.835-.681.206-.275.309-.6.309-.978v-.385a1.59 1.59 0 00-.309-.97 2.344 2.344 0 00-.835-.689 4.59 4.59 0 00-1.228-.405 7.842 7.842 0 00-1.485-.135c-.523 0-1.018.045-1.485.135a4.59 4.59 0 00-1.228.405c-.352.18-.63.41-.836.688a1.59 1.59 0 00-.308.97v.386c0 .378.102.703.308.978.206.274.484.501.836.681.351.18.76.315 1.228.405.467.09.962.135 1.485.135zm0-1.311c-.283 0-.56-.024-.83-.071a3.5 3.5 0 01-.72-.2 1.65 1.65 0 01-.507-.308.55.55 0 01-.193-.411v-.18a.55.55 0 01.193-.412 1.65 1.65 0 01.507-.308 3.5 3.5 0 01.72-.2c.27-.047.547-.07.83-.07.283 0 .559.023.829.07.27.047.51.114.72.2.21.085.38.188.508.308a.55.55 0 01.193.412v.18a.55.55 0 01-.193.411 1.65 1.65 0 01-.508.309 3.5 3.5 0 01-.72.199c-.27.047-.546.07-.83.07zm16.721-5.013v-1.363h-1.851a17.662 17.662 0 00.174-1.267c.02-.21.038-.411.05-.604.014-.193.02-.362.02-.508V42.43H37.1v1.362h6.3v.566c0 .3-.017.656-.051 1.067a8.422 8.422 0 01-.193 1.222h-7.483v1.363h10.954zM45.097 54v-5.079H43.49v1.183h-4.68v-1.183h-1.607V54h7.894zm-1.607-1.324h-4.68V51.39h4.68v1.286z" fill="#E04108" fill-rule="nonzero"/><path d="M44.956 31.081c-.069 1.48-.472 2.787-1.208 3.92-.737 1.135-1.77 2.013-3.1 2.636-1.331.623-2.85.934-4.56.934-2.818 0-5.037-.91-6.658-2.73-1.62-1.82-2.43-4.39-2.43-7.709v-1.051c0-2.083.366-3.906 1.097-5.468.732-1.562 1.785-2.77 3.16-3.621 1.375-.852 2.966-1.278 4.772-1.278 2.603 0 4.694.68 6.275 2.037 1.581 1.358 2.48 3.23 2.696 5.614h-5.155c-.04-1.295-.369-2.224-.987-2.789-.62-.564-1.562-.847-2.829-.847-1.286 0-2.229.477-2.828 1.431-.599.954-.913 2.478-.942 4.57v1.504c0 2.268.287 3.889.861 4.862.575.974 1.564 1.46 2.968 1.46 1.189 0 2.097-.277 2.725-.832.629-.555.963-1.436 1.002-2.643h5.14z" fill="#FA6E3C"/></g></svg>