<svg width="72" height="72" xmlns="http://www.w3.org/2000/svg"><defs><linearGradient x1="50%" y1="0%" x2="50%" y2="100%" id="a"><stop stop-color="#9D61EB" offset="0%"/><stop stop-color="#6432D2" offset="100%"/></linearGradient></defs><g fill="none" fill-rule="evenodd"><path d="M36 61.714c-14.202 0-25.714-11.512-25.714-25.714 0-14.202 11.512-25.714 25.714-25.714 14.202 0 25.714 11.512 25.714 25.714 0 14.202-11.512 25.714-25.714 25.714zM36 72c19.882 0 36-16.118 36-36S55.882 0 36 0 0 16.118 0 36s16.118 36 36 36z" fill="#EBEEF2" fill-rule="nonzero"/><path d="M61.097 10.19C67.822 16.73 72 25.878 72 36c0 9.772-3.893 18.634-10.213 25.12C55.247 67.833 46.11 72 36 72c-9.538 0-18.21-3.71-24.65-9.764C4.362 55.67 0 46.344 0 36 0 25.54 4.461 16.122 11.584 9.545A35.872 35.872 0 0136 0v10.286a25.582 25.582 0 00-17.438 6.816C13.314 21.947 10.286 28.718 10.286 36a25.61 25.61 0 008.108 18.742A25.585 25.585 0 0036 61.714c7.04 0 13.603-2.828 18.42-7.771A25.592 25.592 0 0061.714 36a25.603 25.603 0 00-7.788-18.436l7.17-7.374zM36 0l.217.005A5.143 5.143 0 0136 10.285a25.582 25.582 0 00-17.438 6.817C13.314 21.947 10.286 28.718 10.286 36a25.61 25.61 0 008.108 18.742A25.585 25.585 0 0036 61.714c7.04 0 13.603-2.828 18.42-7.771A25.592 25.592 0 0061.714 36a25.603 25.603 0 00-7.788-18.436l7.17-7.374C67.823 16.73 72 25.878 72 36c0 9.772-3.893 18.634-10.213 25.12C55.247 67.833 46.11 72 36 72c-9.538 0-18.21-3.71-24.65-9.764C4.362 55.67 0 46.344 0 36 0 25.54 4.461 16.122 11.584 9.545A35.872 35.872 0 0136 0z" fill="url(#a)" fill-rule="nonzero" transform="matrix(-1 0 0 1 72 0)"/><path d="M33.814 46.709v-1.325h-6.223v-1.62h6.133V42.44h-7.74v4.269h7.83zm1.569 2.198v-1.324H24.429v1.324h10.954zm-5.477 5.426c.523 0 1.018-.045 1.485-.135a4.59 4.59 0 001.228-.405c.351-.18.63-.407.835-.681.206-.275.309-.6.309-.978v-.385a1.59 1.59 0 00-.309-.97 2.344 2.344 0 00-.835-.689 4.59 4.59 0 00-1.228-.405 7.842 7.842 0 00-1.485-.135c-.523 0-1.018.045-1.485.135a4.59 4.59 0 00-1.228.405c-.352.18-.63.41-.836.688a1.59 1.59 0 00-.308.97v.386c0 .378.102.703.308.978.206.274.484.501.836.681.351.18.76.315 1.228.405.467.09.962.135 1.485.135zm0-1.311c-.283 0-.56-.024-.83-.071a3.5 3.5 0 01-.72-.2 1.65 1.65 0 01-.507-.308.55.55 0 01-.193-.411v-.18a.55.55 0 01.193-.412 1.65 1.65 0 01.507-.308 3.5 3.5 0 01.72-.2c.27-.047.547-.07.83-.07.283 0 .559.023.829.07.27.047.51.114.72.2.21.085.38.188.508.308a.55.55 0 01.193.412v.18a.55.55 0 01-.193.411 1.65 1.65 0 01-.508.309 3.5 3.5 0 01-.72.199c-.27.047-.546.07-.83.07zm16.721-5.013v-1.363h-1.851a17.662 17.662 0 00.174-1.267c.02-.21.038-.411.05-.604.014-.193.02-.362.02-.508V42.43H37.1v1.362h6.3v.566c0 .3-.017.656-.051 1.067a8.422 8.422 0 01-.193 1.222h-7.483v1.363h10.954zM45.097 54v-5.079H43.49v1.183h-4.68v-1.183h-1.607V54h7.894zm-1.607-1.324h-4.68V51.39h4.68v1.286zM14.143 19.286a5.143 5.143 0 100-10.286 5.143 5.143 0 000 10.286z" fill="#6432D2" fill-rule="nonzero"/><path fill="#6432D2" d="M43.107 37.286h-4.623l-6.835-12v12H27V18h4.65l6.82 12V18h4.637z"/></g></svg>