<svg xmlns="http://www.w3.org/2000/svg" width="72" height="72"><defs><linearGradient id="a" x1="50%" x2="50%" y1="0%" y2="100%"><stop offset="0%" stop-color="#31ABFC"/><stop offset="100%" stop-color="#1672F7"/></linearGradient></defs><g fill="none" fill-rule="evenodd"><path fill="url(#a)" fill-rule="nonzero" d="M36 61.714c14.202 0 25.714-11.512 25.714-25.714 0-14.202-11.512-25.714-25.714-25.714-14.202 0-25.714 11.512-25.714 25.714 0 14.202 11.512 25.714 25.714 25.714zM36 72C16.118 72 0 55.882 0 36S16.118 0 36 0s36 16.118 36 36-16.118 36-36 36z"/><path fill="#1672F7" fill-rule="nonzero" d="M36 10.286a5.144 5.144 0 10-.001-10.287A5.144 5.144 0 0036 10.286z"/><path fill="#1672F7" d="M38.604 32.975c0-.706-.265-1.256-.794-1.65-.529-.395-1.458-.802-2.788-1.224-1.33-.422-2.417-.83-3.261-1.224-2.747-1.274-4.12-3.025-4.12-5.253 0-1.11.342-2.088 1.026-2.936.684-.848 1.653-1.508 2.905-1.98 1.252-.472 2.66-.708 4.222-.708 1.524 0 2.89.257 4.098.77 1.209.513 2.148 1.245 2.818 2.193.67.95 1.004 2.033 1.004 3.252h-5.096c0-.815-.264-1.448-.793-1.897-.529-.45-1.245-.674-2.148-.674-.912 0-1.633.19-2.162.57-.529.381-.793.865-.793 1.451 0 .514.291.979.873 1.396.583.417 1.607.848 3.072 1.293 1.466.444 2.67.923 3.611 1.437 2.291 1.246 3.436 2.965 3.436 5.156 0 1.751-.699 3.126-2.096 4.126-1.398.999-3.315 1.498-5.751 1.498-1.718 0-3.274-.29-4.667-.873-1.392-.582-2.44-1.38-3.144-2.392-.704-1.013-1.056-2.18-1.056-3.5h5.125c0 1.073.294 1.863.88 2.372.588.509 1.542.763 2.862.763.844 0 1.511-.172 2.002-.515.49-.344.735-.828.735-1.451z"/><path fill="#1672F7" fill-rule="nonzero" d="M33.814 46.709v-1.325h-6.223v-1.62h6.133V42.44h-7.74v4.269h7.83zm1.569 2.198v-1.324H24.429v1.324h10.954zm-5.477 5.426a7.84 7.84 0 001.485-.135 4.6 4.6 0 001.228-.405c.351-.18.63-.407.835-.681.206-.275.309-.6.309-.978v-.385c0-.369-.103-.692-.309-.97a2.327 2.327 0 00-.835-.689 4.6 4.6 0 00-1.228-.405 7.84 7.84 0 00-1.485-.135 7.84 7.84 0 00-1.485.135c-.467.09-.877.225-1.228.405-.352.18-.63.41-.836.688a1.588 1.588 0 00-.308.97v.386c0 .378.102.703.308.978.206.274.484.501.836.681.351.18.76.315 1.228.405.467.09.962.135 1.485.135zm0-1.311c-.283 0-.56-.024-.83-.071a3.473 3.473 0 01-.72-.2 1.625 1.625 0 01-.507-.308.548.548 0 01-.193-.411v-.18c0-.155.064-.292.193-.412.128-.12.297-.223.507-.308.21-.086.45-.153.72-.2.27-.047.547-.07.83-.07.283 0 .559.023.829.07.27.047.51.114.72.2.21.085.38.188.508.308s.193.257.193.412v.18a.551.551 0 01-.193.411c-.129.12-.298.223-.508.309-.21.085-.45.152-.72.199-.27.047-.546.07-.83.07zm16.721-5.013v-1.363h-1.851A18.194 18.194 0 0045 44.775c.014-.193.02-.362.02-.508V42.43H37.1v1.362h6.3v.566c0 .3-.017.656-.051 1.067a8.42 8.42 0 01-.193 1.222h-7.483v1.363h10.954zM45.097 54v-5.079H43.49v1.183h-4.68v-1.183h-1.607V54h7.894zm-1.607-1.324h-4.68V51.39h4.68v1.286z"/></g></svg>