<svg width="73" height="72" xmlns="http://www.w3.org/2000/svg"><defs><linearGradient x1="50%" y1="0%" x2="50%" y2="100%" id="a"><stop stop-color="#FFD551" offset="0%"/><stop stop-color="#FFAA28" offset="100%"/></linearGradient></defs><g fill="none" fill-rule="evenodd"><path d="M36 61.714c14.202 0 25.714-11.512 25.714-25.714 0-14.202-11.512-25.714-25.714-25.714-14.202 0-25.714 11.512-25.714 25.714 0 14.202 11.512 25.714 25.714 25.714zM36 72C16.118 72 0 55.882 0 36S16.118 0 36 0s36 16.118 36 36-16.118 36-36 36z" fill="#EBEEF2" fill-rule="nonzero"/><path d="M46.286 0l.217.005a5.143 5.143 0 01-.217 10.28 25.582 25.582 0 00-17.438 6.817C23.6 21.947 20.57 28.718 20.57 36a25.61 25.61 0 008.108 18.742 25.585 25.585 0 0017.607 6.972c7.039 0 13.603-2.828 18.42-7.771l7.366 7.178C65.533 67.832 56.396 72 46.286 72c-9.538 0-18.21-3.71-24.651-9.764C14.649 55.67 10.285 46.344 10.285 36c0-10.46 4.462-19.878 11.585-26.455A35.872 35.872 0 0146.286 0z" fill="url(#a)" fill-rule="nonzero" transform="matrix(-1 0 0 1 82.358 0)"/><path d="M33.814 46.709v-1.325h-6.223v-1.62h6.133V42.44h-7.74v4.269h7.83zm1.569 2.198v-1.324H24.429v1.324h10.954zm-5.477 5.426c.523 0 1.018-.045 1.485-.135a4.59 4.59 0 001.228-.405c.351-.18.63-.407.835-.681.206-.275.309-.6.309-.978v-.385a1.59 1.59 0 00-.309-.97 2.344 2.344 0 00-.835-.689 4.59 4.59 0 00-1.228-.405 7.842 7.842 0 00-1.485-.135c-.523 0-1.018.045-1.485.135a4.59 4.59 0 00-1.228.405c-.352.18-.63.41-.836.688a1.59 1.59 0 00-.308.97v.386c0 .378.102.703.308.978.206.274.484.501.836.681.351.18.76.315 1.228.405.467.09.962.135 1.485.135zm0-1.311c-.283 0-.56-.024-.83-.071a3.5 3.5 0 01-.72-.2 1.65 1.65 0 01-.507-.308.55.55 0 01-.193-.411v-.18a.55.55 0 01.193-.412 1.65 1.65 0 01.507-.308 3.5 3.5 0 01.72-.2c.27-.047.547-.07.83-.07.283 0 .559.023.829.07.27.047.51.114.72.2.21.085.38.188.508.308a.55.55 0 01.193.412v.18a.55.55 0 01-.193.411 1.65 1.65 0 01-.508.309 3.5 3.5 0 01-.72.199c-.27.047-.546.07-.83.07zm16.721-5.013v-1.363h-1.851a17.662 17.662 0 00.174-1.267c.02-.21.038-.411.05-.604.014-.193.02-.362.02-.508V42.43H37.1v1.362h6.3v.566c0 .3-.017.656-.051 1.067a8.422 8.422 0 01-.193 1.222h-7.483v1.363h10.954zM45.097 54v-5.079H43.49v1.183h-4.68v-1.183h-1.607V54h7.894zm-1.607-1.324h-4.68V51.39h4.68v1.286zM14.018 62.73a5.143 5.143 0 100-10.286 5.143 5.143 0 000 10.286z" fill="#FF8600" fill-rule="nonzero"/><path d="M28.286 38.571V18h7.75c2.775 0 4.887.485 6.334 1.455 1.447.97 2.17 2.379 2.17 4.225 0 1.064-.256 1.973-.77 2.727-.514.753-1.27 1.309-2.267 1.667 1.126.282 1.99.81 2.593 1.582.603.773.904 1.714.904 2.826 0 2.016-.67 3.53-2.008 4.542-1.338 1.013-3.321 1.529-5.95 1.547h-8.756zm5.2-8.745v4.93h3.409c.938 0 1.66-.204 2.163-.614.504-.41.756-.987.756-1.73 0-1.715-.894-2.577-2.682-2.586h-3.645zm0-3.25h2.712c1.136-.01 1.946-.207 2.43-.593.484-.386.726-.956.726-1.71 0-.866-.261-1.49-.785-1.872-.523-.381-1.368-.572-2.534-.572h-2.548v4.747z" fill="#FFAA28"/></g></svg>