<svg width="72" height="72" xmlns="http://www.w3.org/2000/svg"><defs><linearGradient x1="50%" y1="0%" x2="50%" y2="100%" id="a"><stop stop-color="#FD6F6F" offset="0%"/><stop stop-color="#FA3C3C" offset="100%"/></linearGradient></defs><g fill="none" fill-rule="evenodd"><path d="M36 61.714c14.202 0 25.714-11.512 25.714-25.714 0-14.202-11.512-25.714-25.714-25.714-14.202 0-25.714 11.512-25.714 25.714 0 14.202 11.512 25.714 25.714 25.714zM36 72C16.118 72 0 55.882 0 36S16.118 0 36 0s36 16.118 36 36-16.118 36-36 36z" fill="#EBEEF2" fill-rule="nonzero"/><path d="M33.814 46.709v-1.325h-6.223v-1.62h6.133V42.44h-7.74v4.269h7.83zm1.569 2.198v-1.324H24.429v1.324h10.954zm-5.477 5.426c.523 0 1.018-.045 1.485-.135a4.59 4.59 0 001.228-.405c.351-.18.63-.407.835-.681.206-.275.309-.6.309-.978v-.385a1.59 1.59 0 00-.309-.97 2.344 2.344 0 00-.835-.689 4.59 4.59 0 00-1.228-.405 7.842 7.842 0 00-1.485-.135c-.523 0-1.018.045-1.485.135a4.59 4.59 0 00-1.228.405c-.352.18-.63.41-.836.688a1.59 1.59 0 00-.308.97v.386c0 .378.102.703.308.978.206.274.484.501.836.681.351.18.76.315 1.228.405.467.09.962.135 1.485.135zm0-1.311c-.283 0-.56-.024-.83-.071a3.5 3.5 0 01-.72-.2 1.65 1.65 0 01-.507-.308.55.55 0 01-.193-.411v-.18a.55.55 0 01.193-.412 1.65 1.65 0 01.507-.308 3.5 3.5 0 01.72-.2c.27-.047.547-.07.83-.07.283 0 .559.023.829.07.27.047.51.114.72.2.21.085.38.188.508.308a.55.55 0 01.193.412v.18a.55.55 0 01-.193.411 1.65 1.65 0 01-.508.309 3.5 3.5 0 01-.72.199c-.27.047-.546.07-.83.07zm16.721-5.013v-1.363h-1.851a17.662 17.662 0 00.174-1.267c.02-.21.038-.411.05-.604.014-.193.02-.362.02-.508V42.43H37.1v1.362h6.3v.566c0 .3-.017.656-.051 1.067a8.422 8.422 0 01-.193 1.222h-7.483v1.363h10.954zM45.097 54v-5.079H43.49v1.183h-4.68v-1.183h-1.607V54h7.894zm-1.607-1.324h-4.68V51.39h4.68v1.286z" fill="#D10707" fill-rule="nonzero"/><path d="M66.857 0l.218.005A5.143 5.143 0 0172 5.143c0 2.84-2.303 4.996-5.143 4.996-15.864.708-25.409 12.919-25.707 25.265a23.91 23.91 0 00-.007.596c0 4.702 1.481 11.187 5.746 16.447l-7.007 7.394A35.864 35.864 0 0130.857 36c0-19.882 16.118-36 36-36z" fill="url(#a)" fill-rule="nonzero" transform="matrix(-1 0 0 1 102.857 0)"/><path d="M59.3 61.431a5.143 5.143 0 100-10.285 5.143 5.143 0 000 10.285z" fill="#D10707" fill-rule="nonzero"/><path d="M29.571 37.286V16.714h6.853c1.88 0 3.57.412 5.07 1.237a8.833 8.833 0 013.513 3.49c.843 1.502 1.269 3.185 1.279 5.05v.947c0 1.884-.412 3.572-1.235 5.065a8.864 8.864 0 01-3.477 3.504c-1.495.843-3.163 1.27-5.004 1.279H29.57zM34.7 20.543v12.928h1.782c1.47 0 2.6-.506 3.39-1.519.789-1.012 1.183-2.517 1.183-4.514v-.89c0-1.988-.394-3.485-1.183-4.493-.79-1.008-1.939-1.512-3.448-1.512H34.7z" fill="#FA3C3C"/></g></svg>