<svg width="14" height="14" viewBox="0 0 14 14" fill="none" xmlns="http://www.w3.org/2000/svg">
<path fill-rule="evenodd" clip-rule="evenodd" d="M6.5 0.5C6.5 0.223858 6.72386 0 7 0C7.27614 0 7.5 0.223858 7.5 0.5V6H13.5C13.7761 6 14 6.22386 14 6.5C14 6.77614 13.7761 7 13.5 7H7.00049C7.00033 7 7.00016 7 7 7C6.99984 7 6.99967 7 6.99951 7H0.5C0.223857 7 0 6.77614 0 6.5C0 6.22386 0.223858 6 0.5 6H6.5V0.5ZM6.5 8.5C6.5 8.22386 6.72386 8 7 8C7.27614 8 7.5 8.22386 7.5 8.5V13.5C7.5 13.7761 7.27614 14 7 14C6.72386 14 6.5 13.7761 6.5 13.5V8.5Z" fill="#1672F7"/>
</svg>
