<svg width="740" height="339" viewBox="0 0 740 339" fill="none" xmlns="http://www.w3.org/2000/svg">
<g filter="url(#filter0_f)">
<path fill-rule="evenodd" clip-rule="evenodd" d="M82.4653 21.2446C82.174 21.0915 81.826 21.0915 81.5347 21.2446L79.0912 22.5293C78.3576 22.9149 77.5001 22.292 77.6402 21.4751L78.1069 18.7542C78.1625 18.4298 78.055 18.0988 77.8193 17.8691L75.8425 15.9422C75.249 15.3637 75.5765 14.3557 76.3967 14.2365L79.1286 13.8395C79.4543 13.7922 79.7359 13.5876 79.8815 13.2925L81.1033 10.817C81.4701 10.0737 82.5299 10.0737 82.8967 10.817L84.1185 13.2925C84.2641 13.5876 84.5457 13.7922 84.8714 13.8395L87.6033 14.2365C88.4235 14.3557 88.751 15.3637 88.1575 15.9422L86.1807 17.8691C85.945 18.0988 85.8375 18.4298 85.8931 18.7542L86.3598 21.4751C86.4999 22.292 85.6424 22.9149 84.9088 22.5293L82.4653 21.2446Z" fill="#1672F7"/>
<path fill-rule="evenodd" clip-rule="evenodd" d="M50.4653 21.2446C50.174 21.0915 49.826 21.0915 49.5347 21.2446L47.0912 22.5293C46.3576 22.9149 45.5001 22.292 45.6402 21.4751L46.1069 18.7542C46.1625 18.4298 46.055 18.0988 45.8193 17.8691L43.8425 15.9422C43.249 15.3637 43.5765 14.3557 44.3967 14.2365L47.1286 13.8395C47.4543 13.7922 47.7359 13.5876 47.8815 13.2925L49.1033 10.817C49.4701 10.0737 50.5299 10.0737 50.8967 10.817L52.1185 13.2925C52.2641 13.5876 52.5457 13.7922 52.8714 13.8395L55.6033 14.2365C56.4235 14.3557 56.751 15.3637 56.1575 15.9422L54.1807 17.8691C53.945 18.0988 53.8375 18.4298 53.8931 18.7542L54.3598 21.4751C54.4999 22.292 53.6424 22.9149 52.9088 22.5293L50.4653 21.2446Z" fill="#1672F7"/>
<path fill-rule="evenodd" clip-rule="evenodd" d="M66.4653 21.2446C66.174 21.0915 65.826 21.0915 65.5347 21.2446L63.0912 22.5293C62.3576 22.9149 61.5001 22.292 61.6402 21.4751L62.1069 18.7542C62.1625 18.4298 62.055 18.0988 61.8193 17.8691L59.8425 15.9422C59.249 15.3637 59.5765 14.3557 60.3967 14.2365L63.1286 13.8395C63.4543 13.7922 63.7359 13.5876 63.8815 13.2925L65.1033 10.817C65.4701 10.0737 66.5299 10.0737 66.8967 10.817L68.1185 13.2925C68.2641 13.5876 68.5457 13.7922 68.8714 13.8395L71.6033 14.2365C72.4235 14.3557 72.751 15.3637 72.1575 15.9422L70.1807 17.8691C69.945 18.0988 69.8375 18.4298 69.8931 18.7542L70.3598 21.4751C70.4999 22.292 69.6424 22.9149 68.9088 22.5293L66.4653 21.2446Z" fill="#1672F7"/>
<path fill-rule="evenodd" clip-rule="evenodd" d="M34.4653 21.2446C34.174 21.0915 33.826 21.0915 33.5347 21.2446L31.0912 22.5293C30.3576 22.9149 29.5001 22.292 29.6402 21.4751L30.1069 18.7542C30.1625 18.4298 30.055 18.0988 29.8193 17.8691L27.8425 15.9422C27.249 15.3637 27.5765 14.3557 28.3967 14.2365L31.1286 13.8395C31.4543 13.7922 31.7359 13.5876 31.8815 13.2925L33.1033 10.817C33.4701 10.0737 34.5299 10.0737 34.8967 10.817L36.1185 13.2925C36.2641 13.5876 36.5457 13.7922 36.8714 13.8395L39.6033 14.2365C40.4235 14.3557 40.751 15.3637 40.1575 15.9422L38.1807 17.8691C37.945 18.0988 37.8375 18.4298 37.8931 18.7542L38.3598 21.4751C38.4999 22.292 37.6424 22.9149 36.9088 22.5293L34.4653 21.2446Z" fill="#1672F7"/>
<path fill-rule="evenodd" clip-rule="evenodd" d="M18.4653 21.2446C18.174 21.0915 17.826 21.0915 17.5347 21.2446L15.0912 22.5293C14.3576 22.9149 13.5001 22.292 13.6402 21.4751L14.1069 18.7542C14.1625 18.4298 14.055 18.0988 13.8193 17.8691L11.8425 15.9422C11.249 15.3637 11.5765 14.3557 12.3967 14.2365L15.1286 13.8395C15.4543 13.7922 15.7359 13.5876 15.8815 13.2925L17.1033 10.817C17.4701 10.0737 18.5299 10.0737 18.8967 10.817L20.1185 13.2925C20.2641 13.5876 20.5457 13.7922 20.8714 13.8395L23.6033 14.2365C24.4235 14.3557 24.751 15.3637 24.1575 15.9422L22.1807 17.8691C21.945 18.0988 21.8375 18.4298 21.8931 18.7542L22.3598 21.4751C22.4999 22.292 21.6424 22.9149 20.9088 22.5293L18.4653 21.2446Z" fill="#1672F7"/>
<path d="M579.604 13.984C579.604 15.496 579.604 17.26 579.128 19.668L580.276 19.794C580.752 17.26 580.752 15.538 580.752 13.984V12.738H571.946V13.676H579.604V13.984ZM576.314 21.334V16.84H575.166V21.334H570.756V22.272H582.11V21.334H576.314ZM583.181 12.416V13.34H586.905C586.695 15.426 585.253 17.12 582.691 18.17L583.251 19.01C586.429 17.666 588.081 15.412 588.081 12.416H583.181ZM584.777 20.41H592.071V24.036H593.219V19.472H584.777V20.41ZM592.113 11.492V14.642H590.461V11.716H589.369V18.814H590.461V15.58H592.113V18.87H593.219V11.492H592.113ZM599.652 17.708H596.264V15.44H599.652V17.708ZM600.786 15.958H603.684V20.774H604.846V11.478H603.684V15.02H600.786V12.318H599.652V14.53H596.264V12.318H595.13V18.632H600.786V15.958ZM597.916 22.818V19.864H596.768V23.756H605.14V22.818H597.916ZM617.131 13.312H612.637V11.674H611.489V13.312H606.939V14.25H617.131V13.312ZM609.095 17.484C609.095 16.56 610.229 16 612.063 16C613.869 16 614.989 16.56 614.989 17.484C614.989 18.422 613.869 18.982 612.063 18.982C610.229 18.982 609.095 18.422 609.095 17.484ZM612.637 21.628V19.864C614.821 19.724 616.151 18.884 616.151 17.484C616.151 15.972 614.569 15.104 612.063 15.104C609.515 15.104 607.933 15.972 607.933 17.484C607.933 18.884 609.277 19.738 611.489 19.864V21.628H606.379V22.566H617.761V21.628H612.637ZM623.748 17.582C624.994 17.582 625.61 18.464 625.61 19.85C625.61 21.25 624.84 22.188 623.86 22.188C622.572 22.188 621.802 21.026 621.648 18.898C622.278 17.96 623.104 17.582 623.748 17.582ZM623.86 23.182C625.456 23.182 626.8 21.838 626.8 19.85C626.8 17.708 625.694 16.63 623.958 16.63C623.146 16.63 622.25 17.106 621.62 17.876C621.676 14.684 622.866 13.606 624.266 13.606C624.896 13.606 625.512 13.9 625.918 14.39L626.618 13.592C626.058 12.99 625.288 12.542 624.224 12.542C622.236 12.542 620.43 14.082 620.43 18.1C620.43 21.488 621.886 23.182 623.86 23.182ZM627.028 23H633.482V21.894H630.64C630.122 21.894 629.492 21.95 628.96 21.992C631.368 19.71 632.978 17.624 632.978 15.58C632.978 13.746 631.83 12.542 629.996 12.542C628.694 12.542 627.812 13.144 626.972 14.054L627.714 14.782C628.274 14.11 629.002 13.592 629.842 13.592C631.116 13.592 631.732 14.446 631.732 15.622C631.732 17.386 630.248 19.43 627.028 22.244V23ZM634.41 23H640.038V21.936H637.98V12.724H637C636.44 13.06 635.782 13.298 634.872 13.466V14.278H636.692V21.936H634.41V23ZM641.763 15.874C641.763 14.474 642.519 13.55 643.499 13.55C644.815 13.55 645.599 14.67 645.739 16.784C645.081 17.75 644.297 18.156 643.597 18.156C642.379 18.156 641.763 17.26 641.763 15.874ZM643.219 23.182C645.151 23.182 646.943 21.586 646.943 17.428C646.943 14.166 645.473 12.542 643.499 12.542C641.903 12.542 640.559 13.886 640.559 15.874C640.559 18.002 641.679 19.108 643.387 19.108C644.241 19.108 645.123 18.618 645.753 17.848C645.655 21.026 644.507 22.118 643.177 22.118C642.519 22.118 641.889 21.824 641.469 21.334L640.755 22.132C641.329 22.734 642.113 23.182 643.219 23.182ZM647.941 23H653.569V21.936H651.511V12.724H650.531C649.971 13.06 649.313 13.298 648.403 13.466V14.278H650.223V21.936H647.941V23ZM657.129 23.182C658.865 23.182 660.489 21.908 660.489 19.654C660.489 17.4 659.103 16.392 657.395 16.392C656.779 16.392 656.331 16.546 655.869 16.798L656.121 13.83H659.999V12.724H655.001L654.679 17.54L655.365 17.96C655.953 17.568 656.387 17.358 657.073 17.358C658.361 17.358 659.201 18.226 659.201 19.696C659.201 21.194 658.221 22.118 657.017 22.118C655.827 22.118 655.085 21.572 654.497 20.984L653.867 21.824C654.553 22.51 655.533 23.182 657.129 23.182Z" fill="#666666"/>
<path d="M671.232 23H676.86V21.936H674.802V12.724H673.822C673.262 13.06 672.604 13.298 671.694 13.466V14.278H673.514V21.936H671.232V23ZM684.774 15.972C683.094 16.308 681.638 16.406 679.202 16.406V13.13H683.612V12.206H678.068V17.33H679.034C681.624 17.33 683.15 17.246 684.914 16.882L684.774 15.972ZM680.434 21.53H687.252V18.436H679.272V19.346H686.118V20.662H679.314V23.868H687.714V22.944H680.434V21.53ZM687.252 14.124V11.478H686.104V17.792H687.252V15.062H689.114V14.124H687.252ZM693.281 13.004H692.133V20.774H692.931C694.289 20.774 695.731 20.704 697.425 20.382L697.313 19.388C695.815 19.682 694.485 19.766 693.281 19.78V13.004ZM701.065 11.478V16.588H699.287V11.758H698.209V23.392H699.287V17.54H701.065V24.022H702.171V11.478H701.065ZM714.655 11.478V24.064H715.803V11.478H714.655ZM709.181 12.444C707.319 12.444 705.989 14.152 705.989 16.826C705.989 19.5 707.319 21.208 709.181 21.208C711.043 21.208 712.373 19.5 712.373 16.826C712.373 14.152 711.043 12.444 709.181 12.444ZM709.181 13.48C710.399 13.48 711.267 14.796 711.267 16.826C711.267 18.87 710.399 20.186 709.181 20.186C707.949 20.186 707.081 18.87 707.081 16.826C707.081 14.796 707.949 13.48 709.181 13.48ZM721.62 12.57H720.486V14.824C720.486 17.106 719.058 19.514 717.252 20.438L717.938 21.362C719.352 20.606 720.514 19.038 721.06 17.204C721.634 18.926 722.768 20.396 724.098 21.11L724.812 20.2C723.048 19.318 721.62 17.036 721.62 14.824V12.57ZM729.138 16.574H727.066V11.492H725.918V24.036H727.066V17.526H729.138V16.574Z" fill="#666666"/>
<path d="M666 10V25" stroke="#666666"/>
<path d="M17.406 50.95V51.888H19.926V56.69H21.088V47.492H19.926V50.95H17.406ZM18.148 53.904C16.328 53.26 15.096 51.692 15.096 50.054V49.438H17.854V48.5H11.148V49.438H13.948V50.068C13.948 51.846 12.646 53.512 10.784 54.184L11.386 55.08C12.856 54.548 14.004 53.386 14.55 51.958C15.096 53.246 16.174 54.296 17.574 54.8L18.148 53.904ZM14.214 58.818V55.878H13.052V59.756H21.438V58.818H14.214ZM31.3849 51.552H25.1969V48.99H31.3849V51.552ZM32.5189 48.066H24.0769V52.476H32.5189V48.066ZM25.1969 56.172H24.0489V59.756H32.7289V58.818H25.1969V56.172ZM22.5929 53.904V54.828H27.8149V57.362H28.9629V54.828H34.0029V53.904H22.5929ZM43.6838 54.912H44.8458V47.492H43.6838V50.152H40.9538V51.09H43.6838V54.912ZM41.8638 53.428C40.0298 52.784 38.8118 51.23 38.8118 49.438V48.192H37.6638V49.48C37.6638 51.398 36.4178 53.078 34.4858 53.764L35.0878 54.702C36.5998 54.128 37.7338 52.994 38.2658 51.51C38.8118 52.812 39.8758 53.806 41.2478 54.324L41.8638 53.428ZM40.7018 59.112C38.8118 59.112 37.6638 58.566 37.6638 57.656C37.6638 56.732 38.8118 56.186 40.7018 56.186C42.5918 56.186 43.7398 56.732 43.7398 57.656C43.7398 58.566 42.5918 59.112 40.7018 59.112ZM40.7018 55.29C38.1258 55.29 36.5158 56.144 36.5158 57.656C36.5158 59.154 38.1258 60.022 40.7018 60.022C43.2778 60.022 44.8878 59.154 44.8878 57.656C44.8878 56.144 43.2778 55.29 40.7018 55.29Z" fill="#666666"/>
<path d="M49.4896 54.534C50.9876 54.058 52.1496 53.064 52.6956 51.748C53.2696 52.994 54.4176 53.946 55.9016 54.394L56.4336 53.512C54.5996 52.966 53.2836 51.636 53.2556 50.04H56.1536V49.116H53.2556V47.562H52.1076V49.116H49.2516V50.04H52.1076C52.0796 51.692 50.8056 53.078 48.9576 53.638L49.4896 54.534ZM53.2556 54.114H52.1076V56.452C50.8336 56.494 49.6156 56.494 48.5796 56.494L48.7336 57.46C50.9736 57.446 54.0536 57.432 56.8676 56.914L56.7696 56.06C55.6496 56.242 54.4316 56.326 53.2556 56.396V54.114ZM57.5956 47.478V60.05H58.7436V47.478H57.5956ZM69.2505 49.984C69.2505 51.496 69.2505 53.26 68.7745 55.668L69.9225 55.794C70.3985 53.26 70.3985 51.538 70.3985 49.984V48.738H61.5925V49.676H69.2505V49.984ZM65.9605 57.334V52.84H64.8125V57.334H60.4025V58.272H71.7565V57.334H65.9605ZM77.6714 54.338C77.7414 53.89 77.7834 53.428 77.7834 52.896C77.7834 52.364 77.7414 51.902 77.6714 51.454H79.3794V54.338H77.6714ZM75.0954 56.214C74.1014 56.214 73.4574 54.94 73.4574 52.896C73.4574 50.866 74.1014 49.592 75.0954 49.592C76.1034 49.592 76.7334 50.866 76.7334 52.896C76.7334 54.94 76.1034 56.214 75.0954 56.214ZM79.3794 50.516H77.4334C76.9994 49.256 76.1874 48.528 75.0954 48.528C73.4714 48.528 72.4214 50.208 72.4214 52.896C72.4214 55.598 73.4714 57.278 75.0954 57.278C76.1874 57.278 76.9854 56.55 77.4334 55.29H79.3794V59.42H80.4714V47.758H79.3794V50.516ZM81.8434 47.478V60.036H82.9354V47.478H81.8434ZM88.0803 54.52C88.5983 54.646 89.2003 54.716 89.8163 54.716C90.4463 54.716 91.0483 54.646 91.5803 54.52V57.474H88.0803V54.52ZM89.8163 49.172C91.8323 49.172 93.2883 50.096 93.2883 51.496C93.2883 52.896 91.8323 53.82 89.8163 53.82C87.8003 53.82 86.3583 52.896 86.3583 51.496C86.3583 50.096 87.8003 49.172 89.8163 49.172ZM92.7283 57.474V54.072C93.7643 53.526 94.3803 52.63 94.3803 51.496C94.3803 49.536 92.4903 48.276 89.8163 48.276C87.1563 48.276 85.2523 49.536 85.2523 51.496C85.2523 52.63 85.8823 53.54 86.9323 54.086V57.474H84.1323V58.426H95.5423V57.474H92.7283Z" fill="#0070FF"/>
<path d="M21.046 71.492H19.898V80.76H21.046V71.492ZM18.47 78.114C16.608 77.54 15.292 76.056 15.292 74.404V74.082H18.134V73.158H15.306V71.534H14.158V73.158H11.302V74.082H14.158V74.404C14.158 76.154 12.884 77.736 11.008 78.352L11.568 79.248C13.052 78.744 14.2 77.652 14.746 76.266C15.32 77.554 16.468 78.548 17.924 79.01L18.47 78.114ZM14.116 82.818V79.906H12.968V83.756H21.424V82.818H14.116ZM29.3269 74.292V75.216H31.8049V77.974H32.9529V71.492H31.8049V74.292H29.3269ZM29.9849 76.924C28.1929 76.35 26.9609 74.908 26.9609 73.396V73.06H29.7329V72.136H23.0129V73.06H25.7989V73.396C25.7989 75.02 24.4969 76.588 22.6629 77.218L23.2369 78.114C24.7069 77.61 25.8549 76.504 26.3869 75.16C26.9329 76.392 28.0249 77.372 29.4389 77.82L29.9849 76.924ZM26.0229 82.986V81.614H32.9529V78.604H24.8609V79.5H31.8189V80.746H24.8889V83.896H33.4289V82.986H26.0229ZM40.7578 81.502V78.282H44.5798V77.358H37.0898V73.424H44.4538V72.486H35.9418V78.282H39.5958V81.502H34.4858V82.454H45.8958V81.502H40.7578Z" fill="#666666"/>
<path d="M49.4896 78.534C50.9876 78.058 52.1496 77.064 52.6956 75.748C53.2696 76.994 54.4176 77.946 55.9016 78.394L56.4336 77.512C54.5996 76.966 53.2836 75.636 53.2556 74.04H56.1536V73.116H53.2556V71.562H52.1076V73.116H49.2516V74.04H52.1076C52.0796 75.692 50.8056 77.078 48.9576 77.638L49.4896 78.534ZM53.2556 78.114H52.1076V80.452C50.8336 80.494 49.6156 80.494 48.5796 80.494L48.7336 81.46C50.9736 81.446 54.0536 81.432 56.8676 80.914L56.7696 80.06C55.6496 80.242 54.4316 80.326 53.2556 80.396V78.114ZM57.5956 71.478V84.05H58.7436V71.478H57.5956ZM69.2505 73.984C69.2505 75.496 69.2505 77.26 68.7745 79.668L69.9225 79.794C70.3985 77.26 70.3985 75.538 70.3985 73.984V72.738H61.5925V73.676H69.2505V73.984ZM65.9605 81.334V76.84H64.8125V81.334H60.4025V82.272H71.7565V81.334H65.9605ZM77.6714 78.338C77.7414 77.89 77.7834 77.428 77.7834 76.896C77.7834 76.364 77.7414 75.902 77.6714 75.454H79.3794V78.338H77.6714ZM75.0954 80.214C74.1014 80.214 73.4574 78.94 73.4574 76.896C73.4574 74.866 74.1014 73.592 75.0954 73.592C76.1034 73.592 76.7334 74.866 76.7334 76.896C76.7334 78.94 76.1034 80.214 75.0954 80.214ZM79.3794 74.516H77.4334C76.9994 73.256 76.1874 72.528 75.0954 72.528C73.4714 72.528 72.4214 74.208 72.4214 76.896C72.4214 79.598 73.4714 81.278 75.0954 81.278C76.1874 81.278 76.9854 80.55 77.4334 79.29H79.3794V83.42H80.4714V71.758H79.3794V74.516ZM81.8434 71.478V84.036H82.9354V71.478H81.8434ZM88.0803 78.52C88.5983 78.646 89.2003 78.716 89.8163 78.716C90.4463 78.716 91.0483 78.646 91.5803 78.52V81.474H88.0803V78.52ZM89.8163 73.172C91.8323 73.172 93.2883 74.096 93.2883 75.496C93.2883 76.896 91.8323 77.82 89.8163 77.82C87.8003 77.82 86.3583 76.896 86.3583 75.496C86.3583 74.096 87.8003 73.172 89.8163 73.172ZM92.7283 81.474V78.072C93.7643 77.526 94.3803 76.63 94.3803 75.496C94.3803 73.536 92.4903 72.276 89.8163 72.276C87.1563 72.276 85.2523 73.536 85.2523 75.496C85.2523 76.63 85.8823 77.54 86.9323 78.086V81.474H84.1323V82.426H95.5423V81.474H92.7283Z" fill="#0070FF"/>
<path d="M11.414 96.822V97.774H16.02C15.754 100.742 14.032 103.15 10.826 104.76L11.456 105.656C15.516 103.626 17.154 100.392 17.154 96.822H11.414ZM22.418 100.574H20.402V95.478H19.254V108.036H20.402V101.526H22.418V100.574ZM24.5669 104.452H31.8049V108.008H32.9669V103.528H24.5669V104.452ZM31.8049 95.478V97.718H29.0329C29.1449 97.27 29.2009 96.794 29.2009 96.318H23.4609V97.256H27.9689C27.7449 99.398 25.8409 101.064 22.8029 101.89L23.2649 102.814C25.9529 102.058 27.8989 100.63 28.7389 98.656H31.8049V100.378H28.5569V101.316H31.8049V102.968H32.9669V95.478H31.8049ZM40.7578 105.502V102.282H44.5798V101.358H37.0898V97.424H44.4538V96.486H35.9418V102.282H39.5958V105.502H34.4858V106.454H45.8958V105.502H40.7578Z" fill="#666666"/>
<path d="M49.4896 99.972C51.6036 99.776 53.5216 98.95 54.1936 97.662C54.8796 98.95 56.7836 99.762 58.8976 99.972L59.2616 99.09C57.0776 98.922 55.0896 98.012 54.9496 96.766H58.8276V95.87H49.5596V96.766H53.4376C53.2976 98.012 51.2956 98.922 49.1116 99.09L49.4896 99.972ZM54.1796 107.322C52.5136 107.322 51.5896 107.028 51.5896 106.468C51.5896 105.88 52.5136 105.6 54.1796 105.6C55.8456 105.6 56.7836 105.88 56.7836 106.468C56.7836 107.028 55.8456 107.322 54.1796 107.322ZM54.1796 104.788C51.7576 104.788 50.4136 105.362 50.4136 106.468C50.4136 107.546 51.7576 108.106 54.1796 108.106C56.6016 108.106 57.9596 107.546 57.9596 106.468C57.9596 105.362 56.6016 104.788 54.1796 104.788ZM54.7676 102.114H53.6196V103.29H49.5596V104.172H58.8136V103.29H54.7676V102.114ZM54.7536 100.686V99.188H53.6056V100.686H48.5096V101.61H59.8776V100.686H54.7536ZM63.7345 104.186C62.5165 104.186 61.6625 102.87 61.6625 100.826C61.6625 98.796 62.5165 97.48 63.7345 97.48C64.9385 97.48 65.7925 98.796 65.7925 100.826C65.7925 102.87 64.9385 104.186 63.7345 104.186ZM63.7345 96.444C61.8865 96.444 60.5705 98.152 60.5705 100.826C60.5705 103.5 61.8865 105.208 63.7345 105.208C65.5825 105.208 66.8845 103.5 66.8845 100.826C66.8845 98.152 65.5825 96.444 63.7345 96.444ZM72.1205 100.49H70.0485V95.492H68.9005V108.036H70.0485V101.456H72.1205V100.49ZM76.2014 102.52C76.7194 102.646 77.3214 102.716 77.9374 102.716C78.5674 102.716 79.1694 102.646 79.7014 102.52V105.474H76.2014V102.52ZM77.9374 97.172C79.9534 97.172 81.4094 98.096 81.4094 99.496C81.4094 100.896 79.9534 101.82 77.9374 101.82C75.9214 101.82 74.4794 100.896 74.4794 99.496C74.4794 98.096 75.9214 97.172 77.9374 97.172ZM80.8494 105.474V102.072C81.8854 101.526 82.5014 100.63 82.5014 99.496C82.5014 97.536 80.6114 96.276 77.9374 96.276C75.2774 96.276 73.3734 97.536 73.3734 99.496C73.3734 100.63 74.0034 101.54 75.0534 102.086V105.474H72.2534V106.426H83.6634V105.474H80.8494Z" fill="#0070FF"/>
<path d="M12.268 141.844H14.9V147.752H12.268V141.844ZM11.19 148.662H15.964V140.934H11.19V148.662ZM20.318 139.478V144.448H18.624V139.758H17.546V151.406H18.624V145.386H20.318V152.022H21.41V139.478H20.318ZM28.2769 140.906C30.1949 140.906 31.4969 141.62 31.4969 142.726C31.4969 143.846 30.1949 144.56 28.2769 144.56C26.3729 144.56 25.0709 143.846 25.0709 142.726C25.0709 141.62 26.3729 140.906 28.2769 140.906ZM28.2769 145.484C30.8949 145.484 32.6729 144.42 32.6729 142.726C32.6729 141.046 30.8949 139.982 28.2769 139.982C25.6729 139.982 23.8949 141.046 23.8949 142.726C23.8949 144.42 25.6729 145.484 28.2769 145.484ZM33.9889 146.674H22.6209V147.626H27.7029V152.05H28.8509V147.626H33.9889V146.674ZM46.9347 139.492H45.7867V148.76H46.9347V139.492ZM44.3587 146.114C42.4967 145.54 41.1807 144.056 41.1807 142.404V142.082H44.0227V141.158H41.1947V139.534H40.0467V141.158H37.1907V142.082H40.0467V142.404C40.0467 144.154 38.7727 145.736 36.8967 146.352L37.4567 147.248C38.9407 146.744 40.0887 145.652 40.6347 144.266C41.2087 145.554 42.3567 146.548 43.8127 147.01L44.3587 146.114ZM40.0047 150.818V147.906H38.8567V151.756H47.3127V150.818H40.0047ZM55.2156 142.292V143.216H57.6936V145.974H58.8416V139.492H57.6936V142.292H55.2156ZM55.8736 144.924C54.0816 144.35 52.8496 142.908 52.8496 141.396V141.06H55.6216V140.136H48.9016V141.06H51.6876V141.396C51.6876 143.02 50.3856 144.588 48.5516 145.218L49.1256 146.114C50.5956 145.61 51.7436 144.504 52.2756 143.16C52.8216 144.392 53.9136 145.372 55.3276 145.82L55.8736 144.924ZM51.9116 150.986V149.614H58.8416V146.604H50.7496V147.5H57.7076V148.746H50.7776V151.896H59.3176V150.986H51.9116ZM64.0705 148.284C62.9365 148.284 62.1105 147.472 62.1105 146.352C62.1105 145.218 62.9365 144.406 64.0705 144.406C65.2185 144.406 66.0445 145.218 66.0445 146.352C66.0445 147.472 65.2185 148.284 64.0705 148.284ZM64.0705 143.454C62.3065 143.454 61.0325 144.658 61.0325 146.352C61.0325 148.06 62.3065 149.236 64.0705 149.236C65.8625 149.236 67.1365 148.06 67.1365 146.352C67.1365 144.658 65.8625 143.454 64.0705 143.454ZM64.6305 139.632H63.4825V141.494H60.3185V142.418H67.7245V141.494H64.6305V139.632ZM72.1205 144.644H70.0625V139.492H68.9145V152.036H70.0625V145.61H72.1205V144.644ZM81.1294 141.984C81.1294 143.496 81.1294 145.26 80.6534 147.668L81.8014 147.794C82.2774 145.26 82.2774 143.538 82.2774 141.984V140.738H73.4714V141.676H81.1294V141.984ZM77.8394 149.334V144.84H76.6914V149.334H72.2814V150.272H83.6354V149.334H77.8394ZM95.4612 148.816H96.6232V139.492H95.4612V141.872H93.3612V142.796H95.4612V144.266H93.3612V145.204H95.4612V148.816ZM89.0072 141.424H90.8972V145.876C90.2672 145.904 89.6232 145.932 89.0072 145.946V141.424ZM93.6552 145.652C93.1372 145.708 92.5772 145.764 92.0172 145.806V141.424H93.2632V140.5H86.6552V141.424H87.9012V145.96C87.3412 145.974 86.7952 145.974 86.3192 145.974L86.4452 146.926C88.4752 146.926 91.3172 146.884 93.7252 146.506L93.6552 145.652ZM89.7212 150.818V148.06H88.5732V151.756H96.9452V150.818H89.7212ZM101.838 148.284C100.704 148.284 99.8781 147.472 99.8781 146.352C99.8781 145.218 100.704 144.406 101.838 144.406C102.986 144.406 103.812 145.218 103.812 146.352C103.812 147.472 102.986 148.284 101.838 148.284ZM101.838 143.454C100.074 143.454 98.8001 144.658 98.8001 146.352C98.8001 148.06 100.074 149.236 101.838 149.236C103.63 149.236 104.904 148.06 104.904 146.352C104.904 144.658 103.63 143.454 101.838 143.454ZM102.398 139.632H101.25V141.494H98.0861V142.418H105.492V141.494H102.398V139.632ZM109.888 144.644H107.83V139.492H106.682V152.036H107.83V145.61H109.888V144.644ZM116.993 144.616H114.823C115.243 143.496 115.425 142.306 115.425 141.074H110.581V142.012H114.291C114.081 144.644 112.737 146.898 110.049 148.508L110.721 149.334C112.457 148.298 113.661 146.996 114.417 145.54H116.993V151.406H118.085V139.814H116.993V144.616ZM119.611 139.478V152.036H120.703V139.478H119.611ZM127.153 148.172C126.173 148.172 125.487 147.374 125.487 146.254C125.487 145.162 126.173 144.364 127.153 144.364C128.119 144.364 128.819 145.162 128.819 146.254C128.819 147.374 128.119 148.172 127.153 148.172ZM127.153 143.398C125.599 143.398 124.465 144.574 124.465 146.254C124.465 147.962 125.599 149.124 127.153 149.124C128.707 149.124 129.841 147.962 129.841 146.254C129.841 144.574 128.707 143.398 127.153 143.398ZM127.713 139.842H126.579V141.62H124.031V142.558H130.261V141.62H127.713V139.842ZM133.579 139.464V144.77H131.969V139.758H130.891V151.42H131.969V145.708H133.579V152.022H134.685V139.464H133.579ZM139.175 145.582C141.121 145.246 142.969 144.196 143.739 142.712C144.495 144.196 146.357 145.246 148.303 145.582L148.751 144.672C146.539 144.35 144.369 142.908 144.369 141.256V141.186H148.303V140.262H139.133V141.186H143.095V141.256C143.095 142.908 140.925 144.35 138.741 144.672L139.175 145.582ZM149.409 146.632H138.069V147.57H143.137V152.036H144.285V147.57H149.423L149.409 146.632ZM154.329 140.57H153.181V142.81C153.181 145.148 151.753 147.556 149.933 148.48L150.633 149.39C152.047 148.62 153.209 147.052 153.755 145.19C154.315 146.968 155.477 148.48 156.891 149.208L157.577 148.284C155.757 147.416 154.329 145.12 154.329 142.81V140.57ZM159.117 139.478V142.208H156.401V143.16H159.117V145.344H156.401V146.296H159.117V152.064H160.279V139.478H159.117ZM166.208 140.556H165.06V142.81C165.06 145.134 163.632 147.556 161.812 148.466L162.512 149.376C163.926 148.62 165.088 147.038 165.634 145.176C166.208 146.94 167.356 148.438 168.784 149.152L169.456 148.242C167.636 147.374 166.208 145.092 166.208 142.81V140.556ZM171.01 139.478V143.734H168.098V144.672H171.01V152.05H172.158V139.478H171.01ZM176.368 140.276V141.214H180.932C180.708 143.342 178.874 144.994 175.808 145.82L176.256 146.73C179.952 145.722 182.164 143.468 182.164 140.276H176.368ZM178.79 148.116H184.432V150.93H178.79V148.116ZM177.656 151.854H185.566V147.192H177.656V151.854ZM187.428 142.544H185.566V139.464H184.418V146.604H185.566V143.496H187.428V142.544ZM191.915 140.57H190.781V142.824C190.781 145.106 189.353 147.514 187.547 148.438L188.233 149.362C189.647 148.606 190.809 147.038 191.355 145.204C191.929 146.926 193.063 148.396 194.393 149.11L195.107 148.2C193.343 147.318 191.915 145.036 191.915 142.824V140.57ZM199.433 144.574H197.361V139.492H196.213V152.036H197.361V145.526H199.433V144.574ZM207.49 143.874H209.072V147.262H210.178V139.492H209.072V142.936H207.49V139.674H206.412V147.066H207.49V143.874ZM205.894 140.92H203.276V139.548H202.142V140.92H199.51V141.83H205.88L205.894 140.92ZM202.716 143.314C203.696 143.314 204.368 143.832 204.368 144.616C204.368 145.4 203.696 145.904 202.716 145.904C201.722 145.904 201.064 145.4 201.064 144.616C201.064 143.832 201.722 143.314 202.716 143.314ZM202.716 146.758C204.298 146.758 205.39 145.904 205.39 144.616C205.39 143.314 204.298 142.46 202.716 142.46C201.134 142.46 200.028 143.314 200.028 144.616C200.028 145.904 201.134 146.758 202.716 146.758ZM208.638 147.626H207.504V148.06C207.504 148.984 206.916 150.188 205.74 150.888C204.578 150.244 204.004 149.124 204.004 148.06V147.626H202.898V148.06C202.898 149.208 201.946 150.496 200.378 151.028L200.91 151.882C202.114 151.448 202.982 150.622 203.444 149.642C203.822 150.664 204.564 151.546 205.768 151.994C206.93 151.518 207.686 150.594 208.064 149.6C208.484 150.622 209.366 151.448 210.626 151.882L211.158 151.028C209.576 150.524 208.638 149.292 208.638 148.06V147.626ZM222.169 143.398C219.943 143.118 217.731 141.732 217.731 140.178V139.618H216.555V140.178C216.555 141.774 214.357 143.118 212.103 143.398L212.523 144.322C214.483 144.014 216.359 143.034 217.143 141.634C217.941 143.034 219.803 144.014 221.749 144.322L222.169 143.398ZM220.195 150.944H214.021V149.348H220.195V150.944ZM220.195 148.466H214.021V146.996H212.887V151.868H221.329V146.996H220.195V148.466ZM211.445 145.204V146.128H222.813V145.204H211.445ZM225.27 140.696H224.122V148.788H225.158C227.16 148.788 229.134 148.648 231.318 148.2L231.192 147.22C229.106 147.64 227.16 147.808 225.27 147.808V140.696ZM232.48 139.478V152.022H233.628V139.478H232.48ZM236.897 141.634H241.587V140.682H235.749V148.928H236.743C239.109 148.928 240.761 148.844 242.679 148.48L242.553 147.528C240.733 147.85 239.123 147.948 236.897 147.948V141.634ZM246.949 144.434H244.877V139.478H243.729V152.064H244.877V145.386H246.949V144.434ZM248.3 151.182C248.804 151.182 249.224 150.79 249.224 150.216C249.224 149.628 248.804 149.222 248.3 149.222C247.796 149.222 247.376 149.628 247.376 150.216C247.376 150.79 247.796 151.182 248.3 151.182ZM18.554 160.822H15.32V159.366H14.172V160.822H10.924V161.746H18.554V160.822ZM12.772 164.602C12.772 163.762 13.542 163.23 14.746 163.23C15.936 163.23 16.72 163.762 16.72 164.602C16.72 165.428 15.936 165.974 14.746 165.974C13.542 165.974 12.772 165.428 12.772 164.602ZM17.812 164.602C17.812 163.216 16.58 162.362 14.746 162.362C12.912 162.362 11.68 163.216 11.68 164.602C11.68 165.974 12.912 166.828 14.746 166.828C16.58 166.828 17.812 165.974 17.812 164.602ZM14.046 168.662H19.926V170.944H14.046V168.662ZM12.926 171.868H21.046V167.752H12.926V171.868ZM19.898 159.478V167.08H21.046V159.478H19.898ZM32.6869 165.498H25.1969V161.578H32.5609V160.626H24.0629V166.436H32.6869V165.498ZM22.6069 169.39V170.342H34.0029V169.39H22.6069ZM44.7898 159.492H43.6418V165.988H44.7898V159.492ZM42.1018 164.728C40.2398 164.112 38.9238 162.544 38.9238 160.808V159.856H37.7758V160.808C37.7758 162.628 36.4738 164.308 34.5838 164.966L35.1718 165.862C36.6558 165.33 37.8178 164.182 38.3638 162.74C38.9378 164.07 40.0858 165.12 41.5278 165.624L42.1018 164.728ZM37.8318 170.986V169.642H44.8038V166.618H36.6698V167.514H43.6698V168.774H36.6978V171.896H45.2238V170.986H37.8318ZM56.9767 159.492H55.8707V168.9H56.9767V159.492ZM53.4487 168.578H54.5407V159.744H53.4487V163.034H51.7827V163.972H53.4487V168.578ZM52.2587 165.554C50.9567 165.82 49.8227 165.89 48.0587 165.89V164.07H51.1947V163.174H48.0587V161.452H51.6987V160.528H46.9527V166.814H47.7507C49.7527 166.814 50.9287 166.758 52.3707 166.478L52.2587 165.554ZM49.9627 170.818V167.864H48.8147V171.756H57.3407V170.818H49.9627ZM59.8536 161.942H63.4376V161.018H58.7196V169.012H59.5316C61.5336 169.012 62.7516 168.956 64.1796 168.648L64.0676 167.71C62.7516 167.99 61.6316 168.046 59.8536 168.06V161.942ZM65.2996 164.266H62.5976V165.218H65.2996V171.406H66.3776V159.786H65.2996V164.266ZM67.8196 159.478V172.036H68.9116V159.478H67.8196ZM76.3945 169.502V166.282H80.2165V165.358H72.7265V161.424H80.0905V160.486H71.5785V166.282H75.2325V169.502H70.1225V170.454H81.5325V169.502H76.3945ZM86.5963 161.438H93.0223V165.512H86.5963V161.438ZM90.4043 169.474V166.422H94.1423V160.528H85.4903V166.422H89.2423V169.474H84.1463V170.426H95.5283V169.474H90.4043ZM105.979 164.154H98.7552V161.158H105.825V160.22H97.5792V165.078H105.979V164.154ZM107.407 166.716H96.0252V167.654H101.107V171.98H102.255V167.654H107.407V166.716ZM115.705 160.542C117.707 160.542 118.939 161.074 118.939 161.956C118.939 162.852 117.707 163.37 115.705 163.37C113.703 163.37 112.471 162.852 112.471 161.956C112.471 161.074 113.703 160.542 115.705 160.542ZM115.705 164.266C118.435 164.266 120.115 163.426 120.115 161.956C120.115 160.5 118.435 159.66 115.705 159.66C112.975 159.66 111.295 160.5 111.295 161.956C111.295 163.426 112.975 164.266 115.705 164.266ZM116.293 168.116H115.103V168.508C115.103 169.852 113.129 170.874 110.861 171.112L111.239 171.994C113.199 171.77 114.935 171 115.705 169.824C116.433 171.014 118.183 171.756 120.143 171.994L120.521 171.112C118.225 170.888 116.293 169.88 116.293 168.508V168.116ZM110.035 165.218V166.156H115.131V167.542H116.265V166.156H121.417V165.218H110.035ZM131.98 163.258H124.588V159.94H123.44V164.196H131.98V163.258ZM124.504 168.06H123.356V171.728H132.05V170.79H124.504V168.06ZM121.9 165.876V166.8H133.282V165.876H121.9ZM137.212 162.754C137.212 161.648 138.122 160.85 139.354 160.85C140.586 160.85 141.496 161.648 141.496 162.754C141.496 163.874 140.586 164.672 139.354 164.672C138.122 164.672 137.212 163.874 137.212 162.754ZM145.108 163.202V165.876H146.256V159.492H145.108V162.278H142.546C142.308 160.864 141.034 159.912 139.354 159.912C137.478 159.912 136.12 161.074 136.12 162.754C136.12 164.448 137.478 165.61 139.354 165.61C141.048 165.61 142.322 164.644 142.56 163.202H145.108ZM139.326 170.958V169.586H146.256V166.562H138.164V167.472H145.122V168.718H138.192V171.868H146.732V170.958H139.326ZM159.199 164.924V164H157.477C157.729 162.656 157.729 161.592 157.729 160.766V159.982H149.259V160.892H156.595C156.595 161.704 156.581 162.67 156.315 164H147.803V164.924H152.899V166.548H149.147V167.458H156.623V168.76H149.189V171.882H158.079V170.972H150.323V169.586H157.771V166.548H154.061V164.924H159.199ZM165.939 169.544V167.178H169.957V166.254H162.229V164.224H169.663V160.402H161.067V161.34H168.543V163.3H161.095V167.178H164.777V169.544H159.667V170.482H171.077V169.544H165.939ZM175.903 163.594C175.903 162.152 177.373 161.214 179.375 161.214C181.377 161.214 182.833 162.152 182.833 163.594C182.833 165.036 181.377 165.974 179.375 165.974C177.373 165.974 175.903 165.036 175.903 163.594ZM179.949 169.474V166.856C182.287 166.688 183.925 165.442 183.925 163.594C183.925 161.592 182.021 160.304 179.375 160.304C176.715 160.304 174.797 161.592 174.797 163.594C174.797 165.442 176.449 166.688 178.787 166.856V169.474H173.677V170.426H185.087V169.474H179.949ZM189.63 168.284C188.468 168.284 187.628 167.472 187.628 166.338C187.628 165.218 188.468 164.406 189.63 164.406C190.792 164.406 191.646 165.218 191.646 166.338C191.646 167.472 190.792 168.284 189.63 168.284ZM189.63 163.454C187.838 163.454 186.536 164.644 186.536 166.338C186.536 168.06 187.838 169.236 189.63 169.236C191.45 169.236 192.738 168.06 192.738 166.338C192.738 164.644 191.45 163.454 189.63 163.454ZM190.19 159.604H189.042V161.508H185.85V162.446H193.382V161.508H190.19V159.604ZM194.698 159.478V172.036H195.846V159.478H194.698ZM199.045 165.106H203.371V160.612H197.883V161.536H202.237V164.168H197.911V169.124H198.863C200.823 169.124 202.433 169.054 204.407 168.746L204.309 167.794C202.433 168.088 200.893 168.172 199.045 168.172V165.106ZM206.633 159.464V162.334H204.155V163.272H206.633V165.778H204.071V166.716H206.633V172.05H207.781V159.464H206.633ZM212.425 164.196C214.511 163.986 216.387 163.188 217.143 161.942C217.885 163.188 219.775 163.986 221.847 164.196L222.211 163.314C219.971 163.132 217.941 162.138 217.815 160.864H221.791V159.954H212.495V160.864H216.457C216.331 162.152 214.287 163.118 212.061 163.314L212.425 164.196ZM213.979 169.754H221.357V166.884H212.817V167.766H220.223V168.914H212.859V171.896H221.735V171.014H213.979V169.754ZM211.445 164.826V165.75H222.813V164.826H211.445ZM224.136 160.262V161.2H228.56C228.364 163.272 226.558 164.826 223.492 165.61L223.954 166.506C227.636 165.554 229.792 163.426 229.792 160.262H224.136ZM232.536 170.944H226.698V169.334H232.536V170.944ZM232.536 168.438H226.698V166.856H225.55V171.868H233.67V166.856H232.536V168.438ZM232.522 159.478V162.628H229.806V163.58H232.522V166.24H233.67V159.478H232.522ZM242.175 164.616H240.005C240.425 163.496 240.607 162.306 240.607 161.074H235.763V162.012H239.473C239.263 164.644 237.919 166.898 235.231 168.508L235.903 169.334C237.639 168.298 238.843 166.996 239.599 165.54H242.175V171.406H243.267V159.814H242.175V164.616ZM244.793 159.478V172.036H245.885V159.478H244.793ZM252.334 168.172C251.354 168.172 250.668 167.374 250.668 166.254C250.668 165.162 251.354 164.364 252.334 164.364C253.3 164.364 254 165.162 254 166.254C254 167.374 253.3 168.172 252.334 168.172ZM252.334 163.398C250.78 163.398 249.646 164.574 249.646 166.254C249.646 167.962 250.78 169.124 252.334 169.124C253.888 169.124 255.022 167.962 255.022 166.254C255.022 164.574 253.888 163.398 252.334 163.398ZM252.894 159.842H251.76V161.62H249.212V162.558H255.442V161.62H252.894V159.842ZM258.76 159.464V164.77H257.15V159.758H256.072V171.42H257.15V165.708H258.76V172.022H259.866V159.464H258.76ZM262.225 165.582C264.171 165.246 266.019 164.196 266.789 162.712C267.545 164.196 269.407 165.246 271.353 165.582L271.801 164.672C269.589 164.35 267.419 162.908 267.419 161.256V161.186H271.353V160.262H262.183V161.186H266.145V161.256C266.145 162.908 263.975 164.35 261.791 164.672L262.225 165.582ZM272.459 166.632H261.119V167.57H266.187V172.036H267.335V167.57H272.473L272.459 166.632ZM277.436 160.57H276.302V162.824C276.302 165.204 274.776 167.612 272.928 168.494L273.628 169.432C275.098 168.676 276.302 167.108 276.876 165.218C277.478 167.01 278.682 168.494 280.11 169.194L280.796 168.27C278.934 167.43 277.436 165.12 277.436 162.824V160.57ZM282.112 159.478V172.064H283.26V159.478H282.112ZM293.725 161.984C293.725 163.496 293.725 165.26 293.249 167.668L294.397 167.794C294.873 165.26 294.873 163.538 294.873 161.984V160.738H286.067V161.676H293.725V161.984ZM290.435 169.334V164.84H289.287V169.334H284.877V170.272H296.231V169.334H290.435ZM302.807 166.52C303.325 166.646 303.927 166.716 304.543 166.716C305.173 166.716 305.775 166.646 306.307 166.52V169.474H302.807V166.52ZM304.543 161.172C306.559 161.172 308.015 162.096 308.015 163.496C308.015 164.896 306.559 165.82 304.543 165.82C302.527 165.82 301.085 164.896 301.085 163.496C301.085 162.096 302.527 161.172 304.543 161.172ZM307.455 169.474V166.072C308.491 165.526 309.107 164.63 309.107 163.496C309.107 161.536 307.217 160.276 304.543 160.276C301.883 160.276 299.979 161.536 299.979 163.496C299.979 164.63 300.609 165.54 301.659 166.086V169.474H298.859V170.426H310.269V169.474H307.455ZM322.12 165.694H320.258C320.608 163.888 320.608 162.558 320.608 161.382V160.29H312.18V161.214H319.488V161.382C319.488 162.558 319.488 163.888 319.096 165.694H310.766V166.632H315.834V172.05H316.996V166.632H322.12V165.694ZM326.845 160.57H325.711V162.824C325.711 165.106 324.283 167.514 322.477 168.438L323.163 169.362C324.577 168.606 325.739 167.038 326.285 165.204C326.859 166.926 327.993 168.396 329.323 169.11L330.037 168.2C328.273 167.318 326.845 165.036 326.845 162.824V160.57ZM334.363 164.574H332.291V159.492H331.143V172.036H332.291V165.526H334.363V164.574ZM341.958 160.892H338.822V159.366H337.674V160.892H334.552V161.816H341.958V160.892ZM336.344 164.658C336.344 163.846 337.1 163.314 338.248 163.314C339.396 163.314 340.166 163.846 340.166 164.658C340.166 165.484 339.396 166.016 338.248 166.016C337.1 166.016 336.344 165.484 336.344 164.658ZM341.258 164.658C341.258 163.314 340.04 162.446 338.248 162.446C336.456 162.446 335.252 163.314 335.252 164.658C335.252 166.016 336.456 166.884 338.248 166.884C340.04 166.884 341.258 166.016 341.258 164.658ZM340.32 171.14C338.486 171.14 337.366 170.664 337.366 169.852C337.366 169.04 338.486 168.564 340.32 168.564C342.154 168.564 343.274 169.04 343.274 169.852C343.274 170.664 342.154 171.14 340.32 171.14ZM340.32 167.682C337.786 167.682 336.232 168.466 336.232 169.852C336.232 171.224 337.786 172.022 340.32 172.022C342.84 172.022 344.408 171.224 344.408 169.852C344.408 168.466 342.84 167.682 340.32 167.682ZM344.254 162.964V159.478H343.106V167.556H344.254V163.916H346.102V162.964H344.254ZM352.646 169.502V166.282H356.468V165.358H348.978V161.424H356.342V160.486H347.83V166.282H351.484V169.502H346.374V170.454H357.784V169.502H352.646ZM369.106 162.068C369.106 163.622 369.106 165.498 368.602 168.06L369.75 168.186C370.24 165.47 370.24 163.664 370.24 162.068V160.808H361.63V161.746H369.106V162.068ZM360.412 169.25V170.202H371.766V169.25H360.412ZM373.859 161.942H377.401V161.004H372.725V168.942H373.551C375.427 168.942 376.701 168.886 378.199 168.564L378.101 167.612C376.729 167.906 375.539 167.976 373.859 167.99V161.942ZM381.839 159.478V164.518H380.061V159.758H378.983V171.406H380.061V165.456H381.839V172.036H382.945V159.478H381.839ZM390.414 169.544V167.178H394.432V166.254H386.704V164.224H394.138V160.402H385.542V161.34H393.018V163.3H385.57V167.178H389.252V169.544H384.142V170.482H395.552V169.544H390.414ZM403.374 165.68H399.818V163.384H403.374V165.68ZM404.494 160.388H403.374V162.488H399.818V160.388H398.684V166.604H404.494V160.388ZM401.246 167.822H400.098V171.756H408.47V170.818H401.246V167.822ZM407.91 163.286V159.492H406.762V168.704H407.91V164.252H409.758V163.286H407.91ZM411.333 163.202C411.333 162.04 412.257 161.2 413.475 161.2C414.707 161.2 415.603 162.04 415.603 163.202C415.603 164.378 414.707 165.218 413.475 165.218C412.257 165.218 411.333 164.378 411.333 163.202ZM419.229 162.222V164.182H416.527C416.639 163.874 416.695 163.552 416.695 163.202C416.695 162.838 416.639 162.516 416.541 162.222H419.229ZM419.229 165.12V166.912H420.391V159.478H419.229V161.284H416.009C415.435 160.64 414.539 160.234 413.475 160.234C411.613 160.234 410.241 161.452 410.241 163.202C410.241 164.966 411.613 166.198 413.475 166.198C414.539 166.198 415.435 165.792 416.009 165.12H419.229ZM416.233 171.112C414.343 171.112 413.195 170.552 413.195 169.614C413.195 168.662 414.343 168.102 416.233 168.102C418.151 168.102 419.299 168.662 419.299 169.614C419.299 170.552 418.151 171.112 416.233 171.112ZM416.233 167.206C413.657 167.206 412.061 168.088 412.061 169.614C412.061 171.14 413.657 172.022 416.233 172.022C418.823 172.022 420.433 171.14 420.433 169.614C420.433 168.088 418.823 167.206 416.233 167.206ZM425.032 168.172C424.052 168.172 423.366 167.374 423.366 166.254C423.366 165.162 424.052 164.364 425.032 164.364C425.998 164.364 426.698 165.162 426.698 166.254C426.698 167.374 425.998 168.172 425.032 168.172ZM425.032 163.398C423.478 163.398 422.344 164.574 422.344 166.254C422.344 167.962 423.478 169.124 425.032 169.124C426.586 169.124 427.72 167.962 427.72 166.254C427.72 164.574 426.586 163.398 425.032 163.398ZM425.592 159.842H424.458V161.62H421.91V162.558H428.14V161.62H425.592V159.842ZM431.458 159.464V164.77H429.848V159.758H428.77V171.42H429.848V165.708H431.458V172.022H432.564V159.464H431.458ZM434.923 165.582C436.869 165.246 438.717 164.196 439.487 162.712C440.243 164.196 442.105 165.246 444.051 165.582L444.499 164.672C442.287 164.35 440.117 162.908 440.117 161.256V161.186H444.051V160.262H434.881V161.186H438.843V161.256C438.843 162.908 436.673 164.35 434.489 164.672L434.923 165.582ZM445.157 166.632H433.817V167.57H438.885V172.036H440.033V167.57H445.171L445.157 166.632ZM450.077 160.57H448.929V162.81C448.929 165.148 447.501 167.556 445.681 168.48L446.381 169.39C447.795 168.62 448.957 167.052 449.503 165.19C450.063 166.968 451.225 168.48 452.639 169.208L453.325 168.284C451.505 167.416 450.077 165.12 450.077 162.81V160.57ZM454.865 159.478V162.208H452.149V163.16H454.865V165.344H452.149V166.296H454.865V172.064H456.027V159.478H454.865ZM461.956 160.556H460.808V162.81C460.808 165.134 459.38 167.556 457.56 168.466L458.26 169.376C459.674 168.62 460.836 167.038 461.382 165.176C461.956 166.94 463.104 168.438 464.532 169.152L465.204 168.242C463.384 167.374 461.956 165.092 461.956 162.81V160.556ZM466.758 159.478V163.734H463.846V164.672H466.758V172.05H467.906V159.478H466.758ZM478.276 162.74V163.678H480.754V166.968H481.916V159.492H480.754V162.74H478.276ZM478.976 165.596C477.156 164.952 475.924 163.37 475.924 161.76V161.326H478.682V160.402H471.976V161.326H474.776V161.76C474.776 163.566 473.488 165.26 471.612 165.946L472.214 166.856C473.684 166.296 474.846 165.12 475.378 163.664C475.924 164.952 477.002 165.988 478.402 166.492L478.976 165.596ZM477.772 171.14C475.882 171.14 474.734 170.608 474.734 169.698C474.734 168.788 475.882 168.242 477.772 168.242C479.662 168.242 480.81 168.788 480.81 169.698C480.81 170.608 479.662 171.14 477.772 171.14ZM477.772 167.36C475.196 167.36 473.586 168.214 473.586 169.698C473.586 171.182 475.196 172.036 477.772 172.036C480.348 172.036 481.958 171.182 481.958 169.698C481.958 168.214 480.348 167.36 477.772 167.36ZM488.615 164.308H485.087V161.102H488.615V164.308ZM489.735 160.192H483.967V165.218H489.735V160.192ZM486.375 169.544H493.193V166.464H485.213V167.374H492.059V168.69H485.255V171.868H493.655V170.944H486.375V169.544ZM493.193 162.18V159.492H492.045V165.876H493.193V163.132H495.055V162.18H493.193ZM506.643 168.816H507.805V159.492H506.643V161.872H504.543V162.796H506.643V164.266H504.543V165.204H506.643V168.816ZM500.189 161.424H502.079V165.876C501.449 165.904 500.805 165.932 500.189 165.946V161.424ZM504.837 165.652C504.319 165.708 503.759 165.764 503.199 165.806V161.424H504.445V160.5H497.837V161.424H499.083V165.96C498.523 165.974 497.977 165.974 497.501 165.974L497.627 166.926C499.657 166.926 502.499 166.884 504.907 166.506L504.837 165.652ZM500.903 170.818V168.06H499.755V171.756H508.127V170.818H500.903ZM513.02 168.284C511.886 168.284 511.06 167.472 511.06 166.352C511.06 165.218 511.886 164.406 513.02 164.406C514.168 164.406 514.994 165.218 514.994 166.352C514.994 167.472 514.168 168.284 513.02 168.284ZM513.02 163.454C511.256 163.454 509.982 164.658 509.982 166.352C509.982 168.06 511.256 169.236 513.02 169.236C514.812 169.236 516.086 168.06 516.086 166.352C516.086 164.658 514.812 163.454 513.02 163.454ZM513.58 159.632H512.432V161.494H509.268V162.418H516.674V161.494H513.58V159.632ZM521.07 164.644H519.012V159.492H517.864V172.036H519.012V165.61H521.07V164.644ZM528.175 164.616H526.005C526.425 163.496 526.607 162.306 526.607 161.074H521.763V162.012H525.473C525.263 164.644 523.919 166.898 521.231 168.508L521.903 169.334C523.639 168.298 524.843 166.996 525.599 165.54H528.175V171.406H529.267V159.814H528.175V164.616ZM530.793 159.478V172.036H531.885V159.478H530.793ZM542.548 164.826C540.714 164.308 539.468 162.95 539.468 161.452V161.116H542.226V160.178H535.506V161.116H538.306V161.466C538.306 163.118 537.004 164.588 535.114 165.162L535.674 166.058C537.2 165.582 538.376 164.546 538.908 163.202C539.468 164.378 540.574 165.316 542.03 165.736L542.548 164.826ZM538.152 169.572H544.97V166.548H536.99V167.43H543.836V168.718H537.032V171.91H545.432V171.028H538.152V169.572ZM544.97 162.208V159.492H543.822V165.946H544.97V163.16H546.832V162.208H544.97ZM550.86 161.662H554.374V167.92H550.86V161.662ZM549.74 168.844H555.494V160.738H549.74V168.844ZM560.968 164.49H558.896V159.492H557.748V172.036H558.896V165.456H560.968V164.49ZM568.045 162.236V163.174H570.299V164.322H568.045V165.26H570.299V167.038H571.461V159.478H570.299V162.236H568.045ZM568.535 165.736C566.687 165.176 565.399 163.748 565.399 162.166V161.858H568.171V160.934H565.399V159.436H564.251V160.934H561.465V161.858H564.251V162.166C564.251 163.818 562.977 165.33 561.129 165.904L561.689 166.8C563.159 166.31 564.307 165.274 564.825 163.944C565.399 165.19 566.547 166.17 567.989 166.618L568.535 165.736ZM570.089 167.416H568.969V168.06C568.969 168.998 568.367 170.258 567.191 171C566.029 170.328 565.455 169.152 565.455 168.06V167.416H564.349V168.06C564.349 169.25 563.397 170.58 561.815 171.154L562.389 171.994C563.565 171.546 564.433 170.678 564.881 169.67C565.245 170.72 566.001 171.63 567.205 172.106C568.367 171.602 569.137 170.65 569.515 169.656C569.935 170.692 570.831 171.56 572.049 171.994L572.623 171.154C571.027 170.622 570.089 169.334 570.089 168.06V167.416ZM583.704 163.398C581.478 163.118 579.266 161.732 579.266 160.178V159.618H578.09V160.178C578.09 161.774 575.892 163.118 573.638 163.398L574.058 164.322C576.018 164.014 577.894 163.034 578.678 161.634C579.476 163.034 581.338 164.014 583.284 164.322L583.704 163.398ZM581.73 170.944H575.556V169.348H581.73V170.944ZM581.73 168.466H575.556V166.996H574.422V171.868H582.864V166.996H581.73V168.466ZM572.98 165.204V166.128H584.348V165.204H572.98ZM586.805 160.696H585.657V168.788H586.693C588.695 168.788 590.669 168.648 592.853 168.2L592.727 167.22C590.641 167.64 588.695 167.808 586.805 167.808V160.696ZM594.015 159.478V172.022H595.163V159.478H594.015ZM598.432 161.634H603.122V160.682H597.284V168.928H598.278C600.644 168.928 602.296 168.844 604.214 168.48L604.088 167.528C602.268 167.85 600.658 167.948 598.432 167.948V161.634ZM608.484 164.434H606.412V159.478H605.264V172.064H606.412V165.386H608.484V164.434ZM609.835 171.182C610.339 171.182 610.759 170.79 610.759 170.216C610.759 169.628 610.339 169.222 609.835 169.222C609.331 169.222 608.911 169.628 608.911 170.216C608.911 170.79 609.331 171.182 609.835 171.182ZM615.184 161.844H617.816V167.752H615.184V161.844ZM614.106 168.662H618.88V160.934H614.106V168.662ZM623.234 159.478V164.448H621.54V159.758H620.462V171.406H621.54V165.386H623.234V172.022H624.326V159.478H623.234ZM631.193 160.906C633.111 160.906 634.413 161.62 634.413 162.726C634.413 163.846 633.111 164.56 631.193 164.56C629.289 164.56 627.987 163.846 627.987 162.726C627.987 161.62 629.289 160.906 631.193 160.906ZM631.193 165.484C633.811 165.484 635.589 164.42 635.589 162.726C635.589 161.046 633.811 159.982 631.193 159.982C628.589 159.982 626.811 161.046 626.811 162.726C626.811 164.42 628.589 165.484 631.193 165.484ZM636.905 166.674H625.537V167.626H630.619V172.05H631.767V167.626H636.905V166.674ZM649.851 159.492H648.703V168.76H649.851V159.492ZM647.275 166.114C645.413 165.54 644.097 164.056 644.097 162.404V162.082H646.939V161.158H644.111V159.534H642.963V161.158H640.107V162.082H642.963V162.404C642.963 164.154 641.689 165.736 639.813 166.352L640.373 167.248C641.857 166.744 643.005 165.652 643.551 164.266C644.125 165.554 645.273 166.548 646.729 167.01L647.275 166.114ZM642.921 170.818V167.906H641.773V171.756H650.229V170.818H642.921ZM654.03 173.758L654.828 173.38C653.61 171.392 653.036 169.026 653.036 166.646C653.036 164.266 653.61 161.914 654.828 159.912L654.03 159.548C652.742 161.634 651.972 163.902 651.972 166.646C651.972 169.404 652.742 171.658 654.03 173.758ZM658.11 171.182C659.93 171.182 661.4 170.09 661.4 168.256C661.4 166.856 660.434 165.932 659.23 165.652V165.596C660.308 165.19 661.05 164.364 661.05 163.118C661.05 161.494 659.79 160.542 658.068 160.542C656.878 160.542 655.968 161.06 655.198 161.774L655.884 162.586C656.458 161.998 657.186 161.592 658.012 161.592C659.076 161.592 659.748 162.236 659.748 163.216C659.748 164.322 659.02 165.176 656.906 165.176V166.156C659.272 166.156 660.098 166.982 660.098 168.2C660.098 169.39 659.23 170.118 658.012 170.118C656.85 170.118 656.066 169.572 655.464 168.942L654.82 169.782C655.492 170.51 656.5 171.182 658.11 171.182ZM665.282 165.582C666.528 165.582 667.144 166.464 667.144 167.85C667.144 169.25 666.374 170.188 665.394 170.188C664.106 170.188 663.336 169.026 663.182 166.898C663.812 165.96 664.638 165.582 665.282 165.582ZM665.394 171.182C666.99 171.182 668.334 169.838 668.334 167.85C668.334 165.708 667.228 164.63 665.492 164.63C664.68 164.63 663.784 165.106 663.154 165.876C663.21 162.684 664.4 161.606 665.8 161.606C666.43 161.606 667.046 161.9 667.452 162.39L668.152 161.592C667.592 160.99 666.822 160.542 665.758 160.542C663.77 160.542 661.964 162.082 661.964 166.1C661.964 169.488 663.42 171.182 665.394 171.182ZM671.837 171.182C673.783 171.182 675.029 169.404 675.029 165.834C675.029 162.278 673.783 160.542 671.837 160.542C669.877 160.542 668.631 162.264 668.631 165.834C668.631 169.404 669.877 171.182 671.837 171.182ZM671.837 170.16C670.661 170.16 669.877 168.858 669.877 165.834C669.877 162.838 670.661 161.564 671.837 161.564C672.999 161.564 673.783 162.838 673.783 165.834C673.783 168.858 672.999 170.16 671.837 170.16ZM678.561 168.172C677.581 168.172 676.895 167.374 676.895 166.254C676.895 165.162 677.581 164.364 678.561 164.364C679.527 164.364 680.227 165.162 680.227 166.254C680.227 167.374 679.527 168.172 678.561 168.172ZM678.561 163.398C677.007 163.398 675.873 164.574 675.873 166.254C675.873 167.962 677.007 169.124 678.561 169.124C680.115 169.124 681.249 167.962 681.249 166.254C681.249 164.574 680.115 163.398 678.561 163.398ZM679.121 159.842H677.987V161.62H675.439V162.558H681.669V161.62H679.121V159.842ZM684.987 159.464V164.77H683.377V159.758H682.299V171.42H683.377V165.708H684.987V172.022H686.093V159.464H684.987ZM694.584 165.386C692.778 164.77 691.546 163.202 691.546 161.508V160.122H690.398V161.41C690.398 163.328 689.18 165.036 687.276 165.722L687.878 166.632C689.348 166.072 690.468 164.924 690.986 163.454C691.546 164.742 692.624 165.778 693.982 166.282L694.584 165.386ZM693.086 171.126C691.224 171.126 690.09 170.608 690.09 169.74C690.09 168.858 691.224 168.34 693.086 168.34C694.934 168.34 696.068 168.858 696.068 169.74C696.068 170.608 694.934 171.126 693.086 171.126ZM693.086 167.444C690.524 167.444 688.942 168.27 688.942 169.74C688.942 171.196 690.524 172.022 693.086 172.022C695.634 172.022 697.216 171.196 697.216 169.74C697.216 168.27 695.634 167.444 693.086 167.444ZM697.076 162.726V159.492H695.928V167.094H697.076V163.678H698.938V162.726H697.076ZM705.469 169.502V166.282H709.291V165.358H701.801V161.424H709.165V160.486H700.653V166.282H704.307V169.502H699.197V170.454H710.607V169.502H705.469ZM10.644 187.57H14.228V186.59H10.644V187.57ZM15.4635 187.15L17.8015 183.65C18.0955 183.146 18.3755 182.642 18.6275 182.138H18.6835C18.6555 182.67 18.6135 183.496 18.6135 184V187.15H15.4635ZM18.6135 191H19.8175V188.172H21.1755V187.15H19.8175V180.724H18.4035L14.1335 187.332V188.172H18.6135V191ZM21.2351 191H27.6891V189.894H24.8471C24.3291 189.894 23.6991 189.95 23.1671 189.992C25.5751 187.71 27.1851 185.624 27.1851 183.58C27.1851 181.746 26.0371 180.542 24.2031 180.542C22.9011 180.542 22.0191 181.144 21.1791 182.054L21.9211 182.782C22.4811 182.11 23.2091 181.592 24.0491 181.592C25.3231 181.592 25.9391 182.446 25.9391 183.622C25.9391 185.386 24.4551 187.43 21.2351 190.244V191ZM30.6468 189.502H38.0948V186.338H29.4708V187.248H36.9468V188.634H29.5128V191.882H38.4028V190.972H30.6468V189.502ZM37.7728 184.154C38.0528 182.74 38.0528 181.662 38.0528 180.808V180.01H29.5828V180.934H36.9188C36.9188 181.76 36.9048 182.768 36.6248 184.154H28.1268V185.078H39.5228V184.154H37.7728ZM44.2337 181.718H47.0197V180.766H40.2297V181.718H43.0997V183.314C43.0997 185.442 41.5877 187.822 39.7957 188.718L40.4677 189.628C41.8817 188.9 43.0997 187.304 43.6737 185.47C44.2477 187.15 45.4237 188.62 46.8237 189.32L47.4817 188.396C45.6617 187.542 44.2337 185.316 44.2337 183.314V181.718ZM51.7377 184.546H49.6657V179.492H48.5177V192.036H49.6657V185.512H51.7377V184.546ZM63.1434 179.478V192.064H64.2914V179.478H63.1434ZM57.6694 180.444C55.8074 180.444 54.4774 182.152 54.4774 184.826C54.4774 187.5 55.8074 189.208 57.6694 189.208C59.5314 189.208 60.8614 187.5 60.8614 184.826C60.8614 182.152 59.5314 180.444 57.6694 180.444ZM57.6694 181.48C58.8874 181.48 59.7554 182.796 59.7554 184.826C59.7554 186.87 58.8874 188.186 57.6694 188.186C56.4374 188.186 55.5694 186.87 55.5694 184.826C55.5694 182.796 56.4374 181.48 57.6694 181.48ZM73.1463 185.386C71.3403 184.77 70.1083 183.202 70.1083 181.508V180.122H68.9603V181.41C68.9603 183.328 67.7423 185.036 65.8383 185.722L66.4403 186.632C67.9103 186.072 69.0303 184.924 69.5483 183.454C70.1083 184.742 71.1863 185.778 72.5443 186.282L73.1463 185.386ZM71.6483 191.126C69.7863 191.126 68.6523 190.608 68.6523 189.74C68.6523 188.858 69.7863 188.34 71.6483 188.34C73.4963 188.34 74.6303 188.858 74.6303 189.74C74.6303 190.608 73.4963 191.126 71.6483 191.126ZM71.6483 187.444C69.0863 187.444 67.5043 188.27 67.5043 189.74C67.5043 191.196 69.0863 192.022 71.6483 192.022C74.1963 192.022 75.7783 191.196 75.7783 189.74C75.7783 188.27 74.1963 187.444 71.6483 187.444ZM75.6383 182.726V179.492H74.4903V187.094H75.6383V183.678H77.5003V182.726H75.6383ZM81.5001 184.756C80.9821 184.756 80.5761 185.162 80.5761 185.68C80.5761 186.198 80.9821 186.604 81.5001 186.604C82.0181 186.604 82.4241 186.198 82.4241 185.68C82.4241 185.162 82.0181 184.756 81.5001 184.756ZM86.1621 184.756C85.6441 184.756 85.2381 185.162 85.2381 185.68C85.2381 186.198 85.6441 186.604 86.1621 186.604C86.6801 186.604 87.0861 186.198 87.0861 185.68C87.0861 185.162 86.6801 184.756 86.1621 184.756ZM90.8241 184.756C90.3061 184.756 89.9001 185.162 89.9001 185.68C89.9001 186.198 90.3061 186.604 90.8241 186.604C91.3421 186.604 91.7481 186.198 91.7481 185.68C91.7481 185.162 91.3421 184.756 90.8241 184.756ZM99.375 182.572H102.161V181.648H99.375V179.702H98.227V181.648H95.399V182.572H98.241V183.538C98.241 185.708 96.897 187.85 95.049 188.732L95.693 189.614C97.121 188.914 98.283 187.458 98.815 185.708C99.375 187.36 100.537 188.718 101.965 189.376L102.595 188.494C100.747 187.668 99.375 185.624 99.375 183.538V182.572ZM104.233 179.464V184.518H101.517V185.456H104.233V192.064H105.381V179.464H104.233ZM108.79 185.12H113.424V180.64H107.6V181.578H112.262V184.196H107.642V189.012H108.678C110.834 189.012 112.738 188.928 115.006 188.55L114.894 187.612C112.696 187.962 110.848 188.06 108.79 188.06V185.12ZM116.07 179.464V192.05H117.218V179.464H116.07ZM119.437 193.758C120.739 191.658 121.509 189.404 121.509 186.646C121.509 183.902 120.739 181.634 119.437 179.548L118.653 179.912C119.857 181.914 120.445 184.266 120.445 186.646C120.445 189.026 119.857 191.392 118.653 193.38L119.437 193.758ZM123.727 191.182C124.231 191.182 124.651 190.79 124.651 190.216C124.651 189.628 124.231 189.222 123.727 189.222C123.223 189.222 122.803 189.628 122.803 190.216C122.803 190.79 123.223 191.182 123.727 191.182ZM126.624 191.182C127.128 191.182 127.548 190.79 127.548 190.216C127.548 189.628 127.128 189.222 126.624 189.222C126.12 189.222 125.7 189.628 125.7 190.216C125.7 190.79 126.12 191.182 126.624 191.182ZM129.52 191.182C130.024 191.182 130.444 190.79 130.444 190.216C130.444 189.628 130.024 189.222 129.52 189.222C129.016 189.222 128.596 189.628 128.596 190.216C128.596 190.79 129.016 191.182 129.52 191.182Z" fill="#333333"/>
<path d="M12.52 209.62H17.084V208.668H11.372V216.956H12.338C14.718 216.956 16.23 216.872 18.05 216.536L17.91 215.584C16.216 215.906 14.746 215.99 12.52 215.99V209.62ZM19.94 207.478V212.028H16.342V212.98H19.94V220.064H21.088V207.478H19.94ZM25.0989 211.552H31.5109V213.862H25.0989V211.552ZM28.8789 217.488V214.786H32.6309V208.374H31.5109V210.614H25.0989V208.374H23.9649V214.786H27.7169V217.488H22.6209V218.426H34.0029V217.488H28.8789ZM35.2418 208.836V209.76H39.9598C39.7218 212.742 38.0418 215.15 34.6678 216.76L35.2838 217.698C39.4558 215.654 41.1218 212.462 41.1218 208.836H35.2418ZM43.6558 207.478V220.036H44.8038V207.478H43.6558Z" fill="#333333"/>
<path d="M64.3529 210.854C64.549 210.658 64.549 210.342 64.3529 210.146C64.1567 209.951 63.8387 209.951 63.6425 210.146L58.9748 214.793L54.3575 210.197C54.1613 210.001 53.8433 210.001 53.6471 210.197C53.451 210.392 53.451 210.709 53.6471 210.904L58.6196 215.854C58.8157 216.049 59.1338 216.049 59.3299 215.854C59.3384 215.845 59.3465 215.836 59.3543 215.828C59.3632 215.82 59.3719 215.812 59.3804 215.803L64.3529 210.854Z" fill="#333333"/>
<path fill-rule="evenodd" clip-rule="evenodd" d="M10 253C10 249.686 12.6863 247 16 247H724C727.314 247 730 249.686 730 253V323C730 326.314 727.314 329 724 329H16C12.6863 329 10 326.314 10 323V253Z" fill="#F7F8FA"/>
<path d="M28.506 297.004H27.358V304.774H28.156C29.514 304.774 30.956 304.704 32.65 304.382L32.538 303.388C31.04 303.682 29.71 303.766 28.506 303.78V297.004ZM36.29 295.478V300.588H34.512V295.758H33.434V307.392H34.512V301.54H36.29V308.022H37.396V295.478H36.29ZM44.2909 307.14C42.3169 307.14 41.1549 306.65 41.1549 305.796C41.1549 304.942 42.3169 304.452 44.2909 304.452C46.2509 304.452 47.4269 304.942 47.4269 305.796C47.4269 306.65 46.2509 307.14 44.2909 307.14ZM44.2909 303.556C41.6029 303.556 39.9929 304.354 39.9929 305.796C39.9929 307.238 41.6029 308.022 44.2909 308.022C46.9929 308.022 48.5889 307.238 48.5889 305.796C48.5889 304.354 46.9929 303.556 44.2909 303.556ZM42.5549 300.224C43.0729 300.308 43.6609 300.364 44.2909 300.364C44.9349 300.364 45.5229 300.308 46.0409 300.224V301.694H42.5549V300.224ZM41.0569 298.04C41.0569 297.13 42.2889 296.598 44.2909 296.598C46.2929 296.598 47.5249 297.13 47.5249 298.04C47.5249 298.936 46.2929 299.482 44.2909 299.482C42.2889 299.482 41.0569 298.936 41.0569 298.04ZM47.1749 301.694V299.916C48.1409 299.524 48.7009 298.88 48.7009 298.04C48.7009 296.57 47.0209 295.702 44.2909 295.702C41.5749 295.702 39.8809 296.57 39.8809 298.04C39.8809 298.894 40.4269 299.524 41.4209 299.93V301.694H38.6069V302.618H49.9749V301.694H47.1749ZM55.0807 297.438H61.5067V301.512H55.0807V297.438ZM58.8887 305.474V302.422H62.6267V296.528H53.9747V302.422H57.7267V305.474H52.6307V306.426H64.0127V305.474H58.8887ZM74.4636 300.154H67.2396V297.158H74.3096V296.22H66.0636V301.078H74.4636V300.154ZM75.8916 302.716H64.5096V303.654H69.5916V307.98H70.7396V303.654H75.8916V302.716ZM84.7773 305.474V302.114H88.6133V301.19H81.0533V296.556H79.9053V302.114H83.6293V305.474H78.5053V306.412H89.9153V305.474H84.7773ZM91.3363 300.49C93.4503 300.322 95.3123 299.678 96.0823 298.516C96.8522 299.678 98.7003 300.322 100.8 300.49L101.15 299.622C98.8123 299.468 96.9223 298.698 96.7262 297.452H100.59V296.584H96.6562V295.394H95.5083V296.584H91.5603V297.452H95.4383C95.2423 298.698 93.3243 299.468 91.0003 299.622L91.3363 300.49ZM101.738 301.932V301.05H90.4123V301.932H95.4943V303.094H91.7563V303.948H99.1623V305.012H91.7983V307.896H100.674V307.028H92.9183V305.838H100.296V303.094H96.6562V301.932H101.738ZM107.012 309.758L107.81 309.38C106.592 307.392 106.018 305.026 106.018 302.646C106.018 300.266 106.592 297.914 107.81 295.912L107.012 295.548C105.724 297.634 104.954 299.902 104.954 302.646C104.954 305.404 105.724 307.658 107.012 309.758ZM110.658 305.502H118.106V302.338H109.482V303.248H116.958V304.634H109.524V307.882H118.414V306.972H110.658V305.502ZM117.784 300.154C118.064 298.74 118.064 297.662 118.064 296.808V296.01H109.594V296.934H116.93C116.93 297.76 116.916 298.768 116.636 300.154H108.138V301.078H119.534V300.154H117.784ZM124.245 297.718H127.031V296.766H120.241V297.718H123.111V299.314C123.111 301.442 121.599 303.822 119.807 304.718L120.479 305.628C121.893 304.9 123.111 303.304 123.685 301.47C124.259 303.15 125.435 304.62 126.835 305.32L127.493 304.396C125.673 303.542 124.245 301.316 124.245 299.314V297.718ZM131.749 300.546H129.677V295.492H128.529V308.036H129.677V301.512H131.749V300.546ZM142.704 300.266C140.422 299.93 138.182 298.376 138.182 296.626V295.926H136.978V296.626C136.978 298.418 134.766 299.93 132.484 300.266L132.946 301.19C134.906 300.854 136.796 299.776 137.58 298.25C138.392 299.762 140.282 300.854 142.228 301.19L142.704 300.266ZM143.25 302.548H131.91V303.5H136.978V308.05H138.126V303.5H143.264L143.25 302.548ZM149.588 297.886H151.828V296.948H146.102V297.886H148.482V299.02C148.482 301.33 147.502 303.612 145.752 304.662L146.452 305.516C147.698 304.732 148.608 303.262 149.042 301.54C149.476 303.136 150.344 304.48 151.562 305.208L152.262 304.368C150.526 303.388 149.588 301.204 149.588 299.02V297.886ZM152.948 299.986H150.876V300.924H152.948V307.378H154.04V295.758H152.948V299.986ZM155.468 295.464V308.022H156.574V295.464H155.468ZM165.233 297.018H162.097V295.478H160.949V297.018H157.827V297.942H165.233V297.018ZM159.619 300.966C159.619 300.098 160.389 299.538 161.523 299.538C162.657 299.538 163.441 300.098 163.441 300.966C163.441 301.848 162.657 302.408 161.523 302.408C160.389 302.408 159.619 301.848 159.619 300.966ZM164.533 300.966C164.533 299.566 163.301 298.642 161.523 298.642C159.745 298.642 158.527 299.566 158.527 300.966C158.527 302.38 159.745 303.304 161.523 303.304C163.301 303.304 164.533 302.38 164.533 300.966ZM160.865 304.158H159.717V307.756H168.089V306.818H160.865V304.158ZM167.529 299.622V295.478H166.381V304.9H167.529V300.588H169.377V299.622H167.529ZM176.513 306.972H174.301V305.278H176.513V306.972ZM176.513 304.424H174.301V302.842H173.223V307.868H177.577V302.842H176.513V304.424ZM175.225 300.868C173.979 300.868 173.083 300.056 173.083 298.922C173.083 297.788 173.979 296.99 175.225 296.99C176.471 296.99 177.367 297.788 177.367 298.922C177.367 300.056 176.471 300.868 175.225 300.868ZM180.979 299.37V302.128H182.141V295.492H180.979V298.432H178.417C178.179 296.99 176.919 296.038 175.225 296.038C173.349 296.038 171.991 297.2 171.991 298.922C171.991 300.644 173.349 301.82 175.225 301.82C176.947 301.82 178.207 300.84 178.431 299.37H180.979ZM181.133 302.758H180.013V303.822C180.013 305.11 179.229 306.468 177.731 307.112L178.319 307.98C179.411 307.504 180.167 306.636 180.573 305.614C180.951 306.65 181.707 307.504 182.841 307.98L183.415 307.112C181.917 306.524 181.133 305.152 181.133 303.822V302.758ZM189.344 295.758C186.628 295.758 184.934 296.64 184.934 298.138C184.934 299.622 186.628 300.504 189.344 300.504C192.06 300.504 193.754 299.622 193.754 298.138C193.754 296.64 192.06 295.758 189.344 295.758ZM189.344 296.668C191.332 296.668 192.578 297.214 192.578 298.138C192.578 299.062 191.332 299.608 189.344 299.608C187.356 299.608 186.11 299.062 186.11 298.138C186.11 297.214 187.356 296.668 189.344 296.668ZM185.074 303.738V307.868H193.642V303.738H185.074ZM192.522 304.648V306.944H186.194V304.648H192.522ZM183.674 301.582V302.506H195.028V301.582H183.674ZM196.197 309.758C197.499 307.658 198.269 305.404 198.269 302.646C198.269 299.902 197.499 297.634 196.197 295.548L195.413 295.912C196.617 297.914 197.205 300.266 197.205 302.646C197.205 305.026 196.617 307.392 195.413 309.38L196.197 309.758ZM200.826 309.506H201.764L205.95 295.884H205.026L200.826 309.506ZM209.791 297.004H208.643V304.774H209.441C210.799 304.774 212.241 304.704 213.935 304.382L213.823 303.388C212.325 303.682 210.995 303.766 209.791 303.78V297.004ZM217.575 295.478V300.588H215.797V295.758H214.719V307.392H215.797V301.54H217.575V308.022H218.681V295.478H217.575ZM225.576 307.14C223.602 307.14 222.44 306.65 222.44 305.796C222.44 304.942 223.602 304.452 225.576 304.452C227.536 304.452 228.712 304.942 228.712 305.796C228.712 306.65 227.536 307.14 225.576 307.14ZM225.576 303.556C222.888 303.556 221.278 304.354 221.278 305.796C221.278 307.238 222.888 308.022 225.576 308.022C228.278 308.022 229.874 307.238 229.874 305.796C229.874 304.354 228.278 303.556 225.576 303.556ZM223.84 300.224C224.358 300.308 224.946 300.364 225.576 300.364C226.22 300.364 226.808 300.308 227.326 300.224V301.694H223.84V300.224ZM222.342 298.04C222.342 297.13 223.574 296.598 225.576 296.598C227.578 296.598 228.81 297.13 228.81 298.04C228.81 298.936 227.578 299.482 225.576 299.482C223.574 299.482 222.342 298.936 222.342 298.04ZM228.46 301.694V299.916C229.426 299.524 229.986 298.88 229.986 298.04C229.986 296.57 228.306 295.702 225.576 295.702C222.86 295.702 221.166 296.57 221.166 298.04C221.166 298.894 221.712 299.524 222.706 299.93V301.694H219.892V302.618H231.26V301.694H228.46ZM236.366 297.438H242.792V301.512H236.366V297.438ZM240.174 305.474V302.422H243.912V296.528H235.26V302.422H239.012V305.474H233.916V306.426H245.298V305.474H240.174ZM255.749 300.154H248.525V297.158H255.595V296.22H247.349V301.078H255.749V300.154ZM257.177 302.716H245.795V303.654H250.877V307.98H252.025V303.654H257.177V302.716ZM266.062 305.474V302.114H269.899V301.19H262.339V296.556H261.191V302.114H264.915V305.474H259.791V306.412H271.201V305.474H266.062ZM272.621 300.49C274.735 300.322 276.597 299.678 277.367 298.516C278.137 299.678 279.985 300.322 282.085 300.49L282.435 299.622C280.097 299.468 278.207 298.698 278.011 297.452H281.875V296.584H277.941V295.394H276.793V296.584H272.845V297.452H276.723C276.527 298.698 274.609 299.468 272.285 299.622L272.621 300.49ZM283.023 301.932V301.05H271.697V301.932H276.779V303.094H273.041V303.948H280.447V305.012H273.083V307.896H281.959V307.028H274.203V305.838H281.581V303.094H277.941V301.932H283.023ZM286.166 309.758L286.964 309.38C285.746 307.392 285.172 305.026 285.172 302.646C285.172 300.266 285.746 297.914 286.964 295.912L286.166 295.548C284.878 297.634 284.108 299.902 284.108 302.646C284.108 305.404 284.878 307.658 286.166 309.758ZM289.813 305.502H297.261V302.338H288.637V303.248H296.113V304.634H288.679V307.882H297.569V306.972H289.813V305.502ZM296.939 300.154C297.219 298.74 297.219 297.662 297.219 296.808V296.01H288.749V296.934H296.085C296.085 297.76 296.071 298.768 295.791 300.154H287.293V301.078H298.689V300.154H296.939ZM303.4 297.718H306.186V296.766H299.396V297.718H302.266V299.314C302.266 301.442 300.754 303.822 298.962 304.718L299.634 305.628C301.048 304.9 302.266 303.304 302.84 301.47C303.414 303.15 304.59 304.62 305.99 305.32L306.648 304.396C304.828 303.542 303.4 301.316 303.4 299.314V297.718ZM310.904 300.546H308.832V295.492H307.684V308.036H308.832V301.512H310.904V300.546ZM321.859 300.266C319.577 299.93 317.337 298.376 317.337 296.626V295.926H316.133V296.626C316.133 298.418 313.921 299.93 311.639 300.266L312.101 301.19C314.061 300.854 315.951 299.776 316.735 298.25C317.547 299.762 319.437 300.854 321.383 301.19L321.859 300.266ZM322.405 302.548H311.065V303.5H316.133V308.05H317.281V303.5H322.419L322.405 302.548ZM328.742 297.886H330.982V296.948H325.256V297.886H327.636V299.02C327.636 301.33 326.656 303.612 324.906 304.662L325.606 305.516C326.852 304.732 327.762 303.262 328.196 301.54C328.63 303.136 329.498 304.48 330.716 305.208L331.416 304.368C329.68 303.388 328.742 301.204 328.742 299.02V297.886ZM332.102 299.986H330.03V300.924H332.102V307.378H333.194V295.758H332.102V299.986ZM334.622 295.464V308.022H335.728V295.464H334.622ZM344.387 297.018H341.251V295.478H340.103V297.018H336.981V297.942H344.387V297.018ZM338.773 300.966C338.773 300.098 339.543 299.538 340.677 299.538C341.811 299.538 342.595 300.098 342.595 300.966C342.595 301.848 341.811 302.408 340.677 302.408C339.543 302.408 338.773 301.848 338.773 300.966ZM343.687 300.966C343.687 299.566 342.455 298.642 340.677 298.642C338.899 298.642 337.681 299.566 337.681 300.966C337.681 302.38 338.899 303.304 340.677 303.304C342.455 303.304 343.687 302.38 343.687 300.966ZM340.019 304.158H338.871V307.756H347.243V306.818H340.019V304.158ZM346.683 299.622V295.478H345.535V304.9H346.683V300.588H348.531V299.622H346.683ZM355.667 306.972H353.455V305.278H355.667V306.972ZM355.667 304.424H353.455V302.842H352.377V307.868H356.731V302.842H355.667V304.424ZM354.379 300.868C353.133 300.868 352.237 300.056 352.237 298.922C352.237 297.788 353.133 296.99 354.379 296.99C355.625 296.99 356.521 297.788 356.521 298.922C356.521 300.056 355.625 300.868 354.379 300.868ZM360.133 299.37V302.128H361.295V295.492H360.133V298.432H357.571C357.333 296.99 356.073 296.038 354.379 296.038C352.503 296.038 351.145 297.2 351.145 298.922C351.145 300.644 352.503 301.82 354.379 301.82C356.101 301.82 357.361 300.84 357.585 299.37H360.133ZM360.287 302.758H359.167V303.822C359.167 305.11 358.383 306.468 356.885 307.112L357.473 307.98C358.565 307.504 359.321 306.636 359.727 305.614C360.105 306.65 360.861 307.504 361.995 307.98L362.569 307.112C361.071 306.524 360.287 305.152 360.287 303.822V302.758ZM368.498 295.758C365.782 295.758 364.088 296.64 364.088 298.138C364.088 299.622 365.782 300.504 368.498 300.504C371.214 300.504 372.908 299.622 372.908 298.138C372.908 296.64 371.214 295.758 368.498 295.758ZM368.498 296.668C370.486 296.668 371.732 297.214 371.732 298.138C371.732 299.062 370.486 299.608 368.498 299.608C366.51 299.608 365.264 299.062 365.264 298.138C365.264 297.214 366.51 296.668 368.498 296.668ZM364.228 303.738V307.868H372.796V303.738H364.228ZM371.676 304.648V306.944H365.348V304.648H371.676ZM362.828 301.582V302.506H374.182V301.582H362.828ZM375.351 309.758C376.653 307.658 377.423 305.404 377.423 302.646C377.423 299.902 376.653 297.634 375.351 295.548L374.567 295.912C375.771 297.914 376.359 300.266 376.359 302.646C376.359 305.026 375.771 307.392 374.567 309.38L375.351 309.758Z" fill="#333333"/>
<path d="M35.87 267.478V280.064H37.018V267.478H35.87ZM30.396 268.444C28.534 268.444 27.204 270.152 27.204 272.826C27.204 275.5 28.534 277.208 30.396 277.208C32.258 277.208 33.588 275.5 33.588 272.826C33.588 270.152 32.258 268.444 30.396 268.444ZM30.396 269.48C31.614 269.48 32.482 270.796 32.482 272.826C32.482 274.87 31.614 276.186 30.396 276.186C29.164 276.186 28.296 274.87 28.296 272.826C28.296 270.796 29.164 269.48 30.396 269.48ZM42.8349 268.57H41.7009V270.824C41.7009 273.106 40.2729 275.514 38.4669 276.438L39.1529 277.362C40.5669 276.606 41.7289 275.038 42.2749 273.204C42.8489 274.926 43.9829 276.396 45.3129 277.11L46.0269 276.2C44.2629 275.318 42.8349 273.036 42.8349 270.824V268.57ZM50.3529 272.574H48.2809V267.492H47.1329V280.036H48.2809V273.526H50.3529V272.574ZM59.6978 278.944H53.9438V277.32H59.6978V278.944ZM59.6978 276.424H53.9438V274.828H52.8098V279.868H60.8458V274.828H59.6978V276.424ZM53.9298 272.924C52.6838 272.924 51.7878 272.112 51.7878 270.964C51.7878 269.816 52.6838 269.018 53.9298 269.018C55.1758 269.018 56.0718 269.816 56.0718 270.964C56.0718 272.112 55.1758 272.924 53.9298 272.924ZM59.6838 267.492V270.474H57.1218C56.8838 269.018 55.6238 268.066 53.9298 268.066C52.0538 268.066 50.6958 269.242 50.6958 270.964C50.6958 272.7 52.0538 273.876 53.9298 273.876C55.6518 273.876 56.9118 272.896 57.1358 271.412H59.6838V274.226H60.8458V267.492H59.6838ZM66.0327 270.74H68.3567V269.788H66.0467V267.926H64.9407V269.788H62.6167V270.74H64.9407V271.342C64.9407 273.4 63.9747 275.598 62.2807 276.606L62.9527 277.46C64.1847 276.718 65.0667 275.318 65.5007 273.722C65.9627 275.234 66.8587 276.508 68.0767 277.194L68.7347 276.326C67.0407 275.416 66.0327 273.344 66.0327 271.342V270.74ZM69.4207 272.434H67.5027V273.386H69.4207V279.378H70.5127V267.772H69.4207V272.434ZM71.9407 267.478V280.022H73.0467V267.478H71.9407ZM83.6545 272.378C82.0165 272.714 80.5885 272.798 78.1105 272.798V269.228H82.4925V268.304H76.9625V273.75H77.9425C80.5745 273.75 82.0585 273.666 83.7805 273.302L83.6545 272.378ZM84.9985 278.888H79.3565V277.32H84.9985V278.888ZM84.9985 276.41H79.3565V274.842H78.2225V279.826H86.1325V274.842H84.9985V276.41ZM87.9945 270.418H86.1325V267.464H84.9845V274.17H86.1325V271.37H87.9945V270.418ZM97.4514 270.712V272.49H94.5534V270.712H97.4514ZM93.4194 273.708H90.0314V271.44H93.4194V273.708ZM94.5534 273.428H97.4514V276.774H98.6134V267.492H97.4514V269.788H94.5534V268.318H93.4194V270.53H90.0314V268.318H88.8974V274.632H94.5534V273.428ZM91.6834 278.818V275.864H90.5354V279.756H98.9074V278.818H91.6834Z" fill="#333333"/>
</g>
<path d="M278.07 180.538C278.07 182.266 278.07 184.282 277.526 187.034L278.838 187.178C279.382 184.282 279.382 182.314 279.382 180.538V179.114H269.318V180.186H278.07V180.538ZM274.31 188.938V183.802H272.998V188.938H267.958V190.01H280.934V188.938H274.31ZM282.301 178.746V179.802H286.557C286.317 182.186 284.669 184.122 281.741 185.322L282.381 186.282C286.013 184.746 287.901 182.17 287.901 178.746H282.301ZM284.125 187.882H292.461V192.026H293.773V186.81H284.125V187.882ZM292.509 177.69V181.29H290.621V177.946H289.373V186.058H290.621V182.362H292.509V186.122H293.773V177.69H292.509ZM305.875 186.522H307.203V177.69H305.875V180.234H303.507V181.306H305.875V182.81H303.507V183.882H305.875V186.522ZM298.499 179.818H300.659V184.474C299.939 184.506 299.203 184.538 298.499 184.554V179.818ZM303.811 184.218C303.219 184.298 302.579 184.346 301.939 184.394V179.818H303.363V178.762H295.811V179.818H297.235V184.57C296.595 184.586 295.971 184.586 295.427 184.586L295.571 185.674C297.891 185.674 301.123 185.626 303.891 185.194L303.811 184.218ZM302.467 190.986C300.291 190.986 298.995 190.41 298.995 189.402C298.995 188.426 300.291 187.834 302.467 187.834C304.643 187.834 305.939 188.426 305.939 189.402C305.939 190.41 304.643 190.986 302.467 190.986ZM302.467 186.826C299.491 186.826 297.683 187.754 297.683 189.402C297.683 191.066 299.491 192.01 302.467 192.01C305.427 192.01 307.251 191.066 307.251 189.402C307.251 187.754 305.427 186.826 302.467 186.826ZM309.866 179.21V180.298H315.13C314.826 183.69 312.858 186.442 309.194 188.282L309.914 189.306C314.554 186.986 316.426 183.29 316.426 179.21H309.866ZM322.442 183.498H320.138V177.674H318.826V192.026H320.138V184.586H322.442V183.498ZM332.865 180.186H324.481V183.258H334.417V182.314H325.777V181.082H334.161V178.09H324.449V179.018H332.865V180.186ZM325.697 189.562H334.209V186.506H324.369V187.45H332.913V188.65H324.401V191.834H334.657V190.89H325.697V189.562ZM322.817 184.346V185.338H335.825V184.346H322.817ZM341.164 181.434C341.164 180.138 342.188 179.242 343.612 179.242C345.02 179.242 346.044 180.138 346.044 181.434C346.044 182.714 345.02 183.626 343.612 183.626C342.188 183.626 341.164 182.714 341.164 181.434ZM350.188 180.442V182.362H347.164C347.244 182.074 347.292 181.754 347.292 181.434C347.292 181.082 347.244 180.746 347.148 180.442H350.188ZM350.188 183.402V185.034H351.5V177.674H350.188V179.402H346.572C345.916 178.634 344.86 178.17 343.612 178.17C341.468 178.17 339.916 179.498 339.916 181.434C339.916 183.338 341.468 184.682 343.612 184.682C344.892 184.698 345.948 184.202 346.62 183.402H350.188ZM343.58 190.794V189.226H351.5V185.77H342.252V186.81H350.204V188.234H342.284V191.834H352.044V190.794H343.58ZM362.099 184.17C359.971 183.466 358.467 181.674 358.467 179.642V178.25H357.155V179.642C357.155 181.754 355.683 183.674 353.507 184.458L354.179 185.482C355.875 184.858 357.203 183.53 357.827 181.866C358.483 183.418 359.795 184.634 361.443 185.21L362.099 184.17ZM357.187 187.706H363.907V190.778H357.187V187.706ZM355.907 191.834H365.187V186.666H355.907V191.834ZM363.875 177.69V185.85H365.187V177.69H363.875ZM371.769 187.738C370.441 187.738 369.481 186.81 369.481 185.514C369.481 184.234 370.441 183.306 371.769 183.306C373.097 183.306 374.073 184.234 374.073 185.514C374.073 186.81 373.097 187.738 371.769 187.738ZM371.769 182.218C369.721 182.218 368.233 183.578 368.233 185.514C368.233 187.482 369.721 188.826 371.769 188.826C373.849 188.826 375.321 187.482 375.321 185.514C375.321 183.578 373.849 182.218 371.769 182.218ZM372.409 177.818H371.097V179.994H367.449V181.066H376.057V179.994H372.409V177.818ZM377.561 177.674V192.026H378.873V177.674H377.561ZM386.804 179.914H394.148V184.57H386.804V179.914ZM391.156 189.098V185.61H395.428V178.874H385.54V185.61H389.828V189.098H384.004V190.186H397.012V189.098H391.156ZM404.203 178.57C401.227 178.57 398.987 180.154 398.987 182.538C398.987 184.938 401.227 186.506 404.203 186.506C407.179 186.506 409.419 184.938 409.419 182.538C409.419 180.154 407.179 178.57 404.203 178.57ZM404.203 179.642C406.475 179.642 408.171 180.81 408.171 182.538C408.171 184.282 406.475 185.434 404.203 185.434C401.947 185.434 400.235 184.282 400.235 182.538C400.235 180.81 401.947 179.642 404.203 179.642ZM397.707 189.034V190.122H410.747V189.034H397.707ZM421.57 180.538C421.57 182.266 421.57 184.282 421.026 187.034L422.338 187.178C422.882 184.282 422.882 182.314 422.882 180.538V179.114H412.818V180.186H421.57V180.538ZM417.81 188.938V183.802H416.498V188.938H411.458V190.01H424.434V188.938H417.81ZM440.093 177.69H438.781V185.882H440.093V177.69ZM432.381 179.61C433.805 179.61 434.861 180.554 434.861 181.866C434.861 183.194 433.805 184.122 432.381 184.122C430.957 184.122 429.933 183.194 429.933 181.866C429.933 180.554 430.957 179.61 432.381 179.61ZM432.381 185.21C434.557 185.21 436.141 183.85 436.141 181.866C436.141 179.882 434.557 178.522 432.381 178.522C430.221 178.522 428.653 179.882 428.653 181.866C428.653 183.85 430.221 185.21 432.381 185.21ZM438.493 186.506H437.213V187.274C437.213 188.394 436.525 189.834 435.149 190.682C433.821 189.898 433.165 188.538 433.165 187.274V186.506H431.901V187.274C431.901 188.65 430.829 190.202 429.021 190.842L429.677 191.834C431.021 191.322 431.997 190.33 432.509 189.178C432.941 190.378 433.805 191.418 435.181 191.962C436.509 191.386 437.389 190.298 437.837 189.13C438.317 190.33 439.309 191.322 440.717 191.834L441.373 190.842C439.549 190.234 438.493 188.762 438.493 187.274V186.506ZM445.876 187.626C444.5 187.626 443.539 186.122 443.539 183.786C443.539 181.466 444.5 179.962 445.876 179.962C447.236 179.962 448.196 181.466 448.196 183.786C448.196 186.122 447.236 187.626 445.876 187.626ZM452.548 177.674V183.146H449.428C449.22 180.458 447.812 178.778 445.876 178.778C443.78 178.778 442.292 180.73 442.292 183.786C442.292 186.842 443.78 188.794 445.876 188.794C447.876 188.794 449.3 187.034 449.428 184.218H452.548V192.058H453.86V177.674H452.548ZM460.25 185.722C460.842 185.866 461.53 185.946 462.234 185.946C462.954 185.946 463.642 185.866 464.25 185.722V189.098H460.25V185.722ZM462.234 179.61C464.538 179.61 466.202 180.666 466.202 182.266C466.202 183.866 464.538 184.922 462.234 184.922C459.93 184.922 458.282 183.866 458.282 182.266C458.282 180.666 459.93 179.61 462.234 179.61ZM465.562 189.098V185.21C466.746 184.586 467.45 183.562 467.45 182.266C467.45 180.026 465.29 178.586 462.234 178.586C459.194 178.586 457.018 180.026 457.018 182.266C457.018 183.562 457.738 184.602 458.938 185.226V189.098H455.738V190.186H468.778V189.098H465.562ZM471.697 189.162C471.558 189.727 471.356 190.346 471.089 191.018C470.833 191.701 470.577 192.33 470.321 192.906H469.281C469.43 192.298 469.58 191.631 469.729 190.906C469.889 190.181 470.006 189.541 470.081 188.986H471.585L471.697 189.162ZM329.138 201.546C329.138 202.666 329.138 203.722 328.754 205.194L330.05 205.338C330.434 203.866 330.434 202.698 330.434 201.546V200.33H320.642V201.386H329.138V201.546ZM322.034 209.866H330.418V208.794H320.722V213.818H330.626V212.746H322.034V209.866ZM325.746 206.17V203.482H324.434V206.17H319.122V207.226H332.066V206.17H325.746ZM338.813 204.33H346.141V206.97H338.813V204.33ZM343.133 211.114V208.026H347.421V200.698H346.141V203.258H338.813V200.698H337.517V208.026H341.805V211.114H335.981V212.186H348.989V211.114H343.133ZM356.948 207.418C357.044 206.922 357.108 206.378 357.108 205.786C357.108 205.13 357.028 204.522 356.9 203.962H360.212V207.418H356.948ZM353.54 209.626C352.164 209.626 351.204 208.122 351.204 205.786C351.204 203.466 352.164 201.962 353.54 201.962C354.9 201.962 355.876 203.466 355.876 205.786C355.876 208.122 354.9 209.626 353.54 209.626ZM360.212 199.674V202.89H356.532C355.924 201.546 354.868 200.778 353.54 200.778C351.444 200.778 349.956 202.73 349.956 205.786C349.956 208.842 351.444 210.794 353.54 210.794C354.916 210.794 356.036 209.946 356.628 208.49H360.212V214.058H361.524V199.674H360.212ZM374.922 206.554H366.362V202.074H374.778V200.986H365.066V207.626H374.922V206.554ZM363.402 211.002V212.09H376.426V211.002H363.402ZM388.913 199.69H387.601V207.21H388.913V199.69ZM385.857 205.21C383.665 205.578 381.857 205.642 379.153 205.642V203.914H384.401V200.346H377.825V201.37H383.105V202.938H377.857V206.666H379.009C381.857 206.666 383.713 206.602 385.985 206.234L385.857 205.21ZM380.977 212.842V211.258H388.913V207.882H379.617V208.89H387.585V210.282H379.649V213.866H389.393V212.842H380.977ZM398.808 205.546H396.328C396.808 204.266 397.016 202.906 397.016 201.498H391.48V202.57H395.72C395.48 205.578 393.944 208.154 390.872 209.994L391.64 210.938C393.624 209.754 395 208.266 395.864 206.602H398.808V213.306H400.056V200.058H398.808V205.546ZM401.8 199.674V214.026H403.048V199.674H401.8ZM409.071 207.722C409.663 207.866 410.351 207.946 411.055 207.946C411.775 207.946 412.463 207.866 413.071 207.722V211.098H409.071V207.722ZM411.055 201.61C413.359 201.61 415.023 202.666 415.023 204.266C415.023 205.866 413.359 206.922 411.055 206.922C408.751 206.922 407.103 205.866 407.103 204.266C407.103 202.666 408.751 201.61 411.055 201.61ZM414.383 211.098V207.21C415.567 206.586 416.271 205.562 416.271 204.266C416.271 202.026 414.111 200.586 411.055 200.586C408.015 200.586 405.839 202.026 405.839 204.266C405.839 205.562 406.559 206.602 407.759 207.226V211.098H404.559V212.186H417.599V211.098H414.383ZM420.053 209.626H419.141L418.741 201.418H420.453L420.053 209.626ZM418.597 211.978C418.597 211.583 418.693 211.306 418.885 211.146C419.077 210.986 419.312 210.906 419.589 210.906C419.856 210.906 420.085 210.986 420.277 211.146C420.48 211.306 420.581 211.583 420.581 211.978C420.581 212.362 420.48 212.639 420.277 212.81C420.085 212.981 419.856 213.066 419.589 213.066C419.312 213.066 419.077 212.981 418.885 212.81C418.693 212.639 418.597 212.362 418.597 211.978Z" fill="#333333"/>
<path d="M384 140.935C385.598 140.935 386.904 142.18 386.995 143.751L387 143.927C387 154.39 378.493 162.873 368 162.873C357.507 162.873 349 154.39 349 143.927L349.005 143.751C349.096 142.18 350.402 140.935 352 140.935C353.598 140.935 354.904 142.18 354.995 143.751L355 143.927C355 151.086 360.82 156.89 368 156.89C375.18 156.89 381 151.086 381 143.927L381.005 143.751C381.096 142.18 382.402 140.935 384 140.935Z" fill="url(#paint0_linear)"/>
<path fill-rule="evenodd" clip-rule="evenodd" d="M359 129.966C360.657 129.966 362 131.305 362 132.958C362 134.61 360.657 135.949 359 135.949C357.343 135.949 356 134.61 356 132.958C356 131.305 357.343 129.966 359 129.966ZM384 140.935C385.657 140.935 387 142.274 387 143.927C387 145.579 385.657 146.918 384 146.918C382.343 146.918 381 145.579 381 143.927C381 142.274 382.343 140.935 384 140.935ZM380 132.958C380 131.305 378.657 129.966 377 129.966C375.343 129.966 374 131.305 374 132.958C374 134.61 375.343 135.949 377 135.949C378.657 135.949 380 134.61 380 132.958Z" fill="#1672F7"/>
<defs>
<filter id="filter0_f" x="0" y="0" width="740" height="339" filterUnits="userSpaceOnUse" color-interpolation-filters="sRGB">
<feFlood flood-opacity="0" result="BackgroundImageFix"/>
<feBlend mode="normal" in="SourceGraphic" in2="BackgroundImageFix" result="shape"/>
<feGaussianBlur stdDeviation="5" result="effect1_foregroundBlur"/>
</filter>
<linearGradient id="paint0_linear" x1="387" y1="140.935" x2="368.002" y2="173.843" gradientUnits="userSpaceOnUse">
<stop stop-color="#1672F7"/>
<stop offset="1" stop-color="#15D4CC"/>
</linearGradient>
</defs>
</svg>
