<svg width="332" height="304" viewBox="0 0 332 304" fill="none" xmlns="http://www.w3.org/2000/svg">
<g filter="url(#filter0_f)">
<path d="M263.073 22H269.527V20.894H266.685C266.167 20.894 265.537 20.95 265.005 20.992C267.413 18.71 269.023 16.624 269.023 14.58C269.023 12.746 267.875 11.542 266.041 11.542C264.739 11.542 263.857 12.144 263.017 13.054L263.759 13.782C264.319 13.11 265.047 12.592 265.887 12.592C267.161 12.592 267.777 13.446 267.777 14.622C267.777 16.386 266.293 18.43 263.073 21.244V22ZM277.231 14.972C275.551 15.308 274.095 15.406 271.659 15.406V12.13H276.069V11.206H270.525V16.33H271.491C274.081 16.33 275.607 16.246 277.371 15.882L277.231 14.972ZM272.891 20.53H279.709V17.436H271.729V18.346H278.575V19.662H271.771V22.868H280.171V21.944H272.891V20.53ZM279.709 13.124V10.478H278.561V16.792H279.709V14.062H281.571V13.124H279.709ZM285.738 12.004H284.59V19.774H285.388C286.746 19.774 288.188 19.704 289.882 19.382L289.77 18.388C288.272 18.682 286.942 18.766 285.738 18.78V12.004ZM293.522 10.478V15.588H291.744V10.758H290.666V22.392H291.744V16.54H293.522V23.022H294.628V10.478H293.522ZM307.112 10.478V23.064H308.26V10.478H307.112ZM301.638 11.444C299.776 11.444 298.446 13.152 298.446 15.826C298.446 18.5 299.776 20.208 301.638 20.208C303.5 20.208 304.83 18.5 304.83 15.826C304.83 13.152 303.5 11.444 301.638 11.444ZM301.638 12.48C302.856 12.48 303.724 13.796 303.724 15.826C303.724 17.87 302.856 19.186 301.638 19.186C300.406 19.186 299.538 17.87 299.538 15.826C299.538 13.796 300.406 12.48 301.638 12.48ZM314.077 11.57H312.943V13.824C312.943 16.106 311.515 18.514 309.709 19.438L310.395 20.362C311.809 19.606 312.971 18.038 313.517 16.204C314.091 17.926 315.225 19.396 316.555 20.11L317.269 19.2C315.505 18.318 314.077 16.036 314.077 13.824V11.57ZM321.595 15.574H319.523V10.492H318.375V23.036H319.523V16.526H321.595V15.574Z" fill="#666666"/>
<path d="M19.604 12.984C19.604 14.496 19.604 16.26 19.128 18.668L20.276 18.794C20.752 16.26 20.752 14.538 20.752 12.984V11.738H11.946V12.676H19.604V12.984ZM16.314 20.334V15.84H15.166V20.334H10.756V21.272H22.11V20.334H16.314ZM23.1809 11.416V12.34H26.9049C26.6949 14.426 25.2529 16.12 22.6909 17.17L23.2509 18.01C26.4289 16.666 28.0809 14.412 28.0809 11.416H23.1809ZM24.7769 19.41H32.0709V23.036H33.2189V18.472H24.7769V19.41ZM32.1129 10.492V13.642H30.4609V10.716H29.3689V17.814H30.4609V14.58H32.1129V17.87H33.2189V10.492H32.1129ZM39.6518 16.708H36.2638V14.44H39.6518V16.708ZM40.7858 14.958H43.6838V19.774H44.8458V10.478H43.6838V14.02H40.7858V11.318H39.6518V13.53H36.2638V11.318H35.1298V17.632H40.7858V14.958ZM37.9158 21.818V18.864H36.7678V22.756H45.1398V21.818H37.9158ZM57.1307 12.312H52.6367V10.674H51.4887V12.312H46.9387V13.25H57.1307V12.312ZM49.0947 16.484C49.0947 15.56 50.2287 15 52.0627 15C53.8687 15 54.9887 15.56 54.9887 16.484C54.9887 17.422 53.8687 17.982 52.0627 17.982C50.2287 17.982 49.0947 17.422 49.0947 16.484ZM52.6367 20.628V18.864C54.8207 18.724 56.1507 17.884 56.1507 16.484C56.1507 14.972 54.5687 14.104 52.0627 14.104C49.5147 14.104 47.9327 14.972 47.9327 16.484C47.9327 17.884 49.2767 18.738 51.4887 18.864V20.628H46.3787V21.566H57.7607V20.628H52.6367ZM63.5385 22.182C65.4845 22.182 66.7305 20.404 66.7305 16.834C66.7305 13.278 65.4845 11.542 63.5385 11.542C61.5785 11.542 60.3325 13.264 60.3325 16.834C60.3325 20.404 61.5785 22.182 63.5385 22.182ZM63.5385 21.16C62.3625 21.16 61.5785 19.858 61.5785 16.834C61.5785 13.838 62.3625 12.564 63.5385 12.564C64.7005 12.564 65.4845 13.838 65.4845 16.834C65.4845 19.858 64.7005 21.16 63.5385 21.16ZM70.3041 22.182C72.2501 22.182 73.4961 20.404 73.4961 16.834C73.4961 13.278 72.2501 11.542 70.3041 11.542C68.3441 11.542 67.0981 13.264 67.0981 16.834C67.0981 20.404 68.3441 22.182 70.3041 22.182ZM70.3041 21.16C69.1281 21.16 68.3441 19.858 68.3441 16.834C68.3441 13.838 69.1281 12.564 70.3041 12.564C71.4661 12.564 72.2501 13.838 72.2501 16.834C72.2501 19.858 71.4661 21.16 70.3041 21.16ZM77.0697 22.182C79.0157 22.182 80.2617 20.404 80.2617 16.834C80.2617 13.278 79.0157 11.542 77.0697 11.542C75.1097 11.542 73.8637 13.264 73.8637 16.834C73.8637 20.404 75.1097 22.182 77.0697 22.182ZM77.0697 21.16C75.8937 21.16 75.1097 19.858 75.1097 16.834C75.1097 13.838 75.8937 12.564 77.0697 12.564C78.2317 12.564 79.0157 13.838 79.0157 16.834C79.0157 19.858 78.2317 21.16 77.0697 21.16ZM83.8354 22.182C85.7814 22.182 87.0274 20.404 87.0274 16.834C87.0274 13.278 85.7814 11.542 83.8354 11.542C81.8754 11.542 80.6294 13.264 80.6294 16.834C80.6294 20.404 81.8754 22.182 83.8354 22.182ZM83.8354 21.16C82.6594 21.16 81.8754 19.858 81.8754 16.834C81.8754 13.838 82.6594 12.564 83.8354 12.564C84.9974 12.564 85.7814 13.838 85.7814 16.834C85.7814 19.858 84.9974 21.16 83.8354 21.16ZM90.601 22.182C92.547 22.182 93.793 20.404 93.793 16.834C93.793 13.278 92.547 11.542 90.601 11.542C88.641 11.542 87.395 13.264 87.395 16.834C87.395 20.404 88.641 22.182 90.601 22.182ZM90.601 21.16C89.425 21.16 88.641 19.858 88.641 16.834C88.641 13.838 89.425 12.564 90.601 12.564C91.763 12.564 92.547 13.838 92.547 16.834C92.547 19.858 91.763 21.16 90.601 21.16Z" fill="#333333"/>
<path d="M269.52 172.62H274.084V171.668H268.372V179.956H269.338C271.718 179.956 273.23 179.872 275.05 179.536L274.91 178.584C273.216 178.906 271.746 178.99 269.52 178.99V172.62ZM276.94 170.478V175.028H273.342V175.98H276.94V183.064H278.088V170.478H276.94ZM282.099 174.552H288.511V176.862H282.099V174.552ZM285.879 180.488V177.786H289.631V171.374H288.511V173.614H282.099V171.374H280.965V177.786H284.717V180.488H279.621V181.426H291.003V180.488H285.879ZM292.242 171.836V172.76H296.96C296.722 175.742 295.042 178.15 291.668 179.76L292.284 180.698C296.456 178.654 298.122 175.462 298.122 171.836H292.242ZM300.656 170.478V183.036H301.804V170.478H300.656Z" fill="#333333"/>
<path d="M320.86 173.83L314.775 179.859C314.584 180.048 314.277 180.047 314.088 179.855L314.044 179.802L308.142 173.836C307.974 173.667 307.955 173.403 308.086 173.213L308.142 173.145C308.331 172.954 308.637 172.954 308.826 173.145L314.442 178.819L320.172 173.141C320.364 172.952 320.67 172.953 320.86 173.145C321.047 173.334 321.047 173.64 320.86 173.83Z" fill="#121212"/>
<path fill-rule="evenodd" clip-rule="evenodd" d="M10 198C10 195.791 11.7909 194 14 194H318C320.209 194 322 195.791 322 198V290C322 292.209 320.209 294 318 294H14C11.7909 294 10 292.209 10 290V198Z" fill="#F5F7F9"/>
<path d="M36.1168 225.944H30.3628V224.32H36.1168V225.944ZM36.1168 223.424H30.3628V221.828H29.2288V226.868H37.2648V221.828H36.1168V223.424ZM30.3488 219.924C29.1028 219.924 28.2068 219.112 28.2068 217.964C28.2068 216.816 29.1028 216.018 30.3488 216.018C31.5948 216.018 32.4908 216.816 32.4908 217.964C32.4908 219.112 31.5948 219.924 30.3488 219.924ZM36.1028 214.492V217.474H33.5408C33.3028 216.018 32.0428 215.066 30.3488 215.066C28.4728 215.066 27.1148 216.242 27.1148 217.964C27.1148 219.7 28.4728 220.876 30.3488 220.876C32.0708 220.876 33.3308 219.896 33.5548 218.412H36.1028V221.226H37.2648V214.492H36.1028ZM42.4517 217.74H44.7757V216.788H42.4657V214.926H41.3597V216.788H39.0357V217.74H41.3597V218.342C41.3597 220.4 40.3937 222.598 38.6997 223.606L39.3717 224.46C40.6037 223.718 41.4857 222.318 41.9197 220.722C42.3817 222.234 43.2777 223.508 44.4957 224.194L45.1537 223.326C43.4597 222.416 42.4517 220.344 42.4517 218.342V217.74ZM45.8397 219.434H43.9217V220.386H45.8397V226.378H46.9317V214.772H45.8397V219.434ZM48.3597 214.478V227.022H49.4657V214.478H48.3597ZM60.0734 219.378C58.4354 219.714 57.0074 219.798 54.5294 219.798V216.228H58.9114V215.304H53.3814V220.75H54.3614C56.9934 220.75 58.4774 220.666 60.1994 220.302L60.0734 219.378ZM61.4174 225.888H55.7754V224.32H61.4174V225.888ZM61.4174 223.41H55.7754V221.842H54.6414V226.826H62.5514V221.842H61.4174V223.41ZM64.4134 217.418H62.5514V214.464H61.4034V221.17H62.5514V218.37H64.4134V217.418ZM73.8703 217.712V219.49H70.9723V217.712H73.8703ZM69.8383 220.708H66.4503V218.44H69.8383V220.708ZM70.9723 220.428H73.8703V223.774H75.0323V214.492H73.8703V216.788H70.9723V215.318H69.8383V217.53H66.4503V215.318H65.3163V221.632H70.9723V220.428ZM68.1023 225.818V222.864H66.9543V226.756H75.3263V225.818H68.1023Z" fill="#333333"/>
<path d="M28.506 244.004H27.358V251.774H28.156C29.514 251.774 30.956 251.704 32.65 251.382L32.538 250.388C31.04 250.682 29.71 250.766 28.506 250.78V244.004ZM36.29 242.478V247.588H34.512V242.758H33.434V254.392H34.512V248.54H36.29V255.022H37.396V242.478H36.29ZM44.2909 254.14C42.3169 254.14 41.1549 253.65 41.1549 252.796C41.1549 251.942 42.3169 251.452 44.2909 251.452C46.2509 251.452 47.4269 251.942 47.4269 252.796C47.4269 253.65 46.2509 254.14 44.2909 254.14ZM44.2909 250.556C41.6029 250.556 39.9929 251.354 39.9929 252.796C39.9929 254.238 41.6029 255.022 44.2909 255.022C46.9929 255.022 48.5889 254.238 48.5889 252.796C48.5889 251.354 46.9929 250.556 44.2909 250.556ZM42.5549 247.224C43.0729 247.308 43.6609 247.364 44.2909 247.364C44.9349 247.364 45.5229 247.308 46.0409 247.224V248.694H42.5549V247.224ZM41.0569 245.04C41.0569 244.13 42.2889 243.598 44.2909 243.598C46.2929 243.598 47.5249 244.13 47.5249 245.04C47.5249 245.936 46.2929 246.482 44.2909 246.482C42.2889 246.482 41.0569 245.936 41.0569 245.04ZM47.1749 248.694V246.916C48.1409 246.524 48.7009 245.88 48.7009 245.04C48.7009 243.57 47.0209 242.702 44.2909 242.702C41.5749 242.702 39.8809 243.57 39.8809 245.04C39.8809 245.894 40.4269 246.524 41.4209 246.93V248.694H38.6069V249.618H49.9749V248.694H47.1749ZM55.0807 244.438H61.5067V248.512H55.0807V244.438ZM58.8887 252.474V249.422H62.6267V243.528H53.9747V249.422H57.7267V252.474H52.6307V253.426H64.0127V252.474H58.8887ZM74.4636 247.154H67.2396V244.158H74.3096V243.22H66.0636V248.078H74.4636V247.154ZM75.8916 249.716H64.5096V250.654H69.5916V254.98H70.7396V250.654H75.8916V249.716ZM84.7773 252.474V249.114H88.6133V248.19H81.0533V243.556H79.9053V249.114H83.6293V252.474H78.5053V253.412H89.9153V252.474H84.7773ZM91.3363 247.49C93.4503 247.322 95.3123 246.678 96.0823 245.516C96.8522 246.678 98.7003 247.322 100.8 247.49L101.15 246.622C98.8123 246.468 96.9223 245.698 96.7262 244.452H100.59V243.584H96.6562V242.394H95.5083V243.584H91.5603V244.452H95.4383C95.2423 245.698 93.3243 246.468 91.0003 246.622L91.3363 247.49ZM101.738 248.932V248.05H90.4123V248.932H95.4943V250.094H91.7563V250.948H99.1623V252.012H91.7983V254.896H100.674V254.028H92.9183V252.838H100.296V250.094H96.6562V248.932H101.738ZM107.012 256.758L107.81 256.38C106.592 254.392 106.018 252.026 106.018 249.646C106.018 247.266 106.592 244.914 107.81 242.912L107.012 242.548C105.724 244.634 104.954 246.902 104.954 249.646C104.954 252.404 105.724 254.658 107.012 256.758ZM110.658 252.502H118.106V249.338H109.482V250.248H116.958V251.634H109.524V254.882H118.414V253.972H110.658V252.502ZM117.784 247.154C118.064 245.74 118.064 244.662 118.064 243.808V243.01H109.594V243.934H116.93C116.93 244.76 116.916 245.768 116.636 247.154H108.138V248.078H119.534V247.154H117.784ZM124.245 244.718H127.031V243.766H120.241V244.718H123.111V246.314C123.111 248.442 121.599 250.822 119.807 251.718L120.479 252.628C121.893 251.9 123.111 250.304 123.685 248.47C124.259 250.15 125.435 251.62 126.835 252.32L127.493 251.396C125.673 250.542 124.245 248.316 124.245 246.314V244.718ZM131.749 247.546H129.677V242.492H128.529V255.036H129.677V248.512H131.749V247.546ZM142.704 247.266C140.422 246.93 138.182 245.376 138.182 243.626V242.926H136.978V243.626C136.978 245.418 134.766 246.93 132.484 247.266L132.946 248.19C134.906 247.854 136.796 246.776 137.58 245.25C138.392 246.762 140.282 247.854 142.228 248.19L142.704 247.266ZM143.25 249.548H131.91V250.5H136.978V255.05H138.126V250.5H143.264L143.25 249.548ZM149.588 244.886H151.828V243.948H146.102V244.886H148.482V246.02C148.482 248.33 147.502 250.612 145.752 251.662L146.452 252.516C147.698 251.732 148.608 250.262 149.042 248.54C149.476 250.136 150.344 251.48 151.562 252.208L152.262 251.368C150.526 250.388 149.588 248.204 149.588 246.02V244.886ZM152.948 246.986H150.876V247.924H152.948V254.378H154.04V242.758H152.948V246.986ZM155.468 242.464V255.022H156.574V242.464H155.468ZM165.233 244.018H162.097V242.478H160.949V244.018H157.827V244.942H165.233V244.018ZM159.619 247.966C159.619 247.098 160.389 246.538 161.523 246.538C162.657 246.538 163.441 247.098 163.441 247.966C163.441 248.848 162.657 249.408 161.523 249.408C160.389 249.408 159.619 248.848 159.619 247.966ZM164.533 247.966C164.533 246.566 163.301 245.642 161.523 245.642C159.745 245.642 158.527 246.566 158.527 247.966C158.527 249.38 159.745 250.304 161.523 250.304C163.301 250.304 164.533 249.38 164.533 247.966ZM160.865 251.158H159.717V254.756H168.089V253.818H160.865V251.158ZM167.529 246.622V242.478H166.381V251.9H167.529V247.588H169.377V246.622H167.529ZM176.513 253.972H174.301V252.278H176.513V253.972ZM176.513 251.424H174.301V249.842H173.223V254.868H177.577V249.842H176.513V251.424ZM175.225 247.868C173.979 247.868 173.083 247.056 173.083 245.922C173.083 244.788 173.979 243.99 175.225 243.99C176.471 243.99 177.367 244.788 177.367 245.922C177.367 247.056 176.471 247.868 175.225 247.868ZM180.979 246.37V249.128H182.141V242.492H180.979V245.432H178.417C178.179 243.99 176.919 243.038 175.225 243.038C173.349 243.038 171.991 244.2 171.991 245.922C171.991 247.644 173.349 248.82 175.225 248.82C176.947 248.82 178.207 247.84 178.431 246.37H180.979ZM181.133 249.758H180.013V250.822C180.013 252.11 179.229 253.468 177.731 254.112L178.319 254.98C179.411 254.504 180.167 253.636 180.573 252.614C180.951 253.65 181.707 254.504 182.841 254.98L183.415 254.112C181.917 253.524 181.133 252.152 181.133 250.822V249.758ZM189.344 242.758C186.628 242.758 184.934 243.64 184.934 245.138C184.934 246.622 186.628 247.504 189.344 247.504C192.06 247.504 193.754 246.622 193.754 245.138C193.754 243.64 192.06 242.758 189.344 242.758ZM189.344 243.668C191.332 243.668 192.578 244.214 192.578 245.138C192.578 246.062 191.332 246.608 189.344 246.608C187.356 246.608 186.11 246.062 186.11 245.138C186.11 244.214 187.356 243.668 189.344 243.668ZM185.074 250.738V254.868H193.642V250.738H185.074ZM192.522 251.648V253.944H186.194V251.648H192.522ZM183.674 248.582V249.506H195.028V248.582H183.674ZM196.197 256.758C197.499 254.658 198.269 252.404 198.269 249.646C198.269 246.902 197.499 244.634 196.197 242.548L195.413 242.912C196.617 244.914 197.205 247.266 197.205 249.646C197.205 252.026 196.617 254.392 195.413 256.38L196.197 256.758ZM200.826 256.506H201.764L205.95 242.884H205.026L200.826 256.506ZM209.791 244.004H208.643V251.774H209.441C210.799 251.774 212.241 251.704 213.935 251.382L213.823 250.388C212.325 250.682 210.995 250.766 209.791 250.78V244.004ZM217.575 242.478V247.588H215.797V242.758H214.719V254.392H215.797V248.54H217.575V255.022H218.681V242.478H217.575ZM225.576 254.14C223.602 254.14 222.44 253.65 222.44 252.796C222.44 251.942 223.602 251.452 225.576 251.452C227.536 251.452 228.712 251.942 228.712 252.796C228.712 253.65 227.536 254.14 225.576 254.14ZM225.576 250.556C222.888 250.556 221.278 251.354 221.278 252.796C221.278 254.238 222.888 255.022 225.576 255.022C228.278 255.022 229.874 254.238 229.874 252.796C229.874 251.354 228.278 250.556 225.576 250.556ZM223.84 247.224C224.358 247.308 224.946 247.364 225.576 247.364C226.22 247.364 226.808 247.308 227.326 247.224V248.694H223.84V247.224ZM222.342 245.04C222.342 244.13 223.574 243.598 225.576 243.598C227.578 243.598 228.81 244.13 228.81 245.04C228.81 245.936 227.578 246.482 225.576 246.482C223.574 246.482 222.342 245.936 222.342 245.04ZM228.46 248.694V246.916C229.426 246.524 229.986 245.88 229.986 245.04C229.986 243.57 228.306 242.702 225.576 242.702C222.86 242.702 221.166 243.57 221.166 245.04C221.166 245.894 221.712 246.524 222.706 246.93V248.694H219.892V249.618H231.26V248.694H228.46ZM236.366 244.438H242.792V248.512H236.366V244.438ZM240.174 252.474V249.422H243.912V243.528H235.26V249.422H239.012V252.474H233.916V253.426H245.298V252.474H240.174ZM255.749 247.154H248.525V244.158H255.595V243.22H247.349V248.078H255.749V247.154ZM257.177 249.716H245.795V250.654H250.877V254.98H252.025V250.654H257.177V249.716ZM266.062 252.474V249.114H269.899V248.19H262.339V243.556H261.191V249.114H264.915V252.474H259.791V253.412H271.201V252.474H266.062ZM272.621 247.49C274.735 247.322 276.597 246.678 277.367 245.516C278.137 246.678 279.985 247.322 282.085 247.49L282.435 246.622C280.097 246.468 278.207 245.698 278.011 244.452H281.875V243.584H277.941V242.394H276.793V243.584H272.845V244.452H276.723C276.527 245.698 274.609 246.468 272.285 246.622L272.621 247.49ZM283.023 248.932V248.05H271.697V248.932H276.779V250.094H273.041V250.948H280.447V252.012H273.083V254.896H281.959V254.028H274.203V252.838H281.581V250.094H277.941V248.932H283.023ZM29.346 276.758L30.144 276.38C28.926 274.392 28.352 272.026 28.352 269.646C28.352 267.266 28.926 264.914 30.144 262.912L29.346 262.548C28.058 264.634 27.288 266.902 27.288 269.646C27.288 272.404 28.058 274.658 29.346 276.758ZM32.9925 272.502H40.4405V269.338H31.8165V270.248H39.2925V271.634H31.8585V274.882H40.7485V273.972H32.9925V272.502ZM40.1185 267.154C40.3985 265.74 40.3985 264.662 40.3985 263.808V263.01H31.9285V263.934H39.2645C39.2645 264.76 39.2505 265.768 38.9705 267.154H30.4725V268.078H41.8685V267.154H40.1185ZM46.5794 264.718H49.3654V263.766H42.5754V264.718H45.4454V266.314C45.4454 268.442 43.9334 270.822 42.1414 271.718L42.8134 272.628C44.2274 271.9 45.4454 270.304 46.0194 268.47C46.5934 270.15 47.7694 271.62 49.1694 272.32L49.8274 271.396C48.0074 270.542 46.5794 268.316 46.5794 266.314V264.718ZM54.0834 267.546H52.0114V262.492H50.8634V275.036H52.0114V268.512H54.0834V267.546ZM65.0383 267.266C62.7563 266.93 60.5163 265.376 60.5163 263.626V262.926H59.3123V263.626C59.3123 265.418 57.1003 266.93 54.8183 267.266L55.2803 268.19C57.2403 267.854 59.1303 266.776 59.9143 265.25C60.7263 266.762 62.6163 267.854 64.5623 268.19L65.0383 267.266ZM65.5843 269.548H54.2443V270.5H59.3123V275.05H60.4603V270.5H65.5983L65.5843 269.548ZM71.922 264.886H74.162V263.948H68.436V264.886H70.816V266.02C70.816 268.33 69.836 270.612 68.086 271.662L68.786 272.516C70.032 271.732 70.942 270.262 71.376 268.54C71.81 270.136 72.678 271.48 73.896 272.208L74.596 271.368C72.86 270.388 71.922 268.204 71.922 266.02V264.886ZM75.282 266.986H73.21V267.924H75.282V274.378H76.374V262.758H75.282V266.986ZM77.802 262.464V275.022H78.908V262.464H77.802ZM87.567 264.018H84.431V262.478H83.283V264.018H80.161V264.942H87.567V264.018ZM81.953 267.966C81.953 267.098 82.723 266.538 83.857 266.538C84.991 266.538 85.775 267.098 85.775 267.966C85.775 268.848 84.991 269.408 83.857 269.408C82.723 269.408 81.953 268.848 81.953 267.966ZM86.867 267.966C86.867 266.566 85.635 265.642 83.857 265.642C82.079 265.642 80.861 266.566 80.861 267.966C80.861 269.38 82.079 270.304 83.857 270.304C85.635 270.304 86.867 269.38 86.867 267.966ZM83.199 271.158H82.051V274.756H90.423V273.818H83.199V271.158ZM89.863 266.622V262.478H88.715V271.9H89.863V267.588H91.711V266.622H89.863ZM98.8467 273.972H96.6347V272.278H98.8467V273.972ZM98.8467 271.424H96.6347V269.842H95.5567V274.868H99.9107V269.842H98.8467V271.424ZM97.5587 267.868C96.3127 267.868 95.4167 267.056 95.4167 265.922C95.4167 264.788 96.3127 263.99 97.5587 263.99C98.8047 263.99 99.7007 264.788 99.7007 265.922C99.7007 267.056 98.8047 267.868 97.5587 267.868ZM103.313 266.37V269.128H104.475V262.492H103.313V265.432H100.751C100.513 263.99 99.2527 263.038 97.5587 263.038C95.6827 263.038 94.3247 264.2 94.3247 265.922C94.3247 267.644 95.6827 268.82 97.5587 268.82C99.2807 268.82 100.541 267.84 100.765 266.37H103.313ZM103.467 269.758H102.347V270.822C102.347 272.11 101.563 273.468 100.065 274.112L100.653 274.98C101.745 274.504 102.501 273.636 102.907 272.614C103.285 273.65 104.041 274.504 105.175 274.98L105.749 274.112C104.251 273.524 103.467 272.152 103.467 270.822V269.758ZM111.678 262.758C108.962 262.758 107.268 263.64 107.268 265.138C107.268 266.622 108.962 267.504 111.678 267.504C114.394 267.504 116.088 266.622 116.088 265.138C116.088 263.64 114.394 262.758 111.678 262.758ZM111.678 263.668C113.666 263.668 114.912 264.214 114.912 265.138C114.912 266.062 113.666 266.608 111.678 266.608C109.69 266.608 108.444 266.062 108.444 265.138C108.444 264.214 109.69 263.668 111.678 263.668ZM107.408 270.738V274.868H115.976V270.738H107.408ZM114.856 271.648V273.944H108.528V271.648H114.856ZM106.008 268.582V269.506H117.362V268.582H106.008ZM118.531 276.758C119.833 274.658 120.603 272.404 120.603 269.646C120.603 266.902 119.833 264.634 118.531 262.548L117.747 262.912C118.951 264.914 119.539 267.266 119.539 269.646C119.539 272.026 118.951 274.392 117.747 276.38L118.531 276.758Z" fill="#666666"/>
<path d="M12.268 76.844H14.9V82.752H12.268V76.844ZM11.19 83.662H15.964V75.934H11.19V83.662ZM20.318 74.478V79.448H18.624V74.758H17.546V86.406H18.624V80.386H20.318V87.022H21.41V74.478H20.318ZM28.2769 75.906C30.1949 75.906 31.4969 76.62 31.4969 77.726C31.4969 78.846 30.1949 79.56 28.2769 79.56C26.3729 79.56 25.0709 78.846 25.0709 77.726C25.0709 76.62 26.3729 75.906 28.2769 75.906ZM28.2769 80.484C30.8949 80.484 32.6729 79.42 32.6729 77.726C32.6729 76.046 30.8949 74.982 28.2769 74.982C25.6729 74.982 23.8949 76.046 23.8949 77.726C23.8949 79.42 25.6729 80.484 28.2769 80.484ZM33.9889 81.674H22.6209V82.626H27.7029V87.05H28.8509V82.626H33.9889V81.674ZM46.9347 74.492H45.7867V83.76H46.9347V74.492ZM44.3587 81.114C42.4967 80.54 41.1807 79.056 41.1807 77.404V77.082H44.0227V76.158H41.1947V74.534H40.0467V76.158H37.1907V77.082H40.0467V77.404C40.0467 79.154 38.7727 80.736 36.8967 81.352L37.4567 82.248C38.9407 81.744 40.0887 80.652 40.6347 79.266C41.2087 80.554 42.3567 81.548 43.8127 82.01L44.3587 81.114ZM40.0047 85.818V82.906H38.8567V86.756H47.3127V85.818H40.0047ZM55.2156 77.292V78.216H57.6936V80.974H58.8416V74.492H57.6936V77.292H55.2156ZM55.8736 79.924C54.0816 79.35 52.8496 77.908 52.8496 76.396V76.06H55.6216V75.136H48.9016V76.06H51.6876V76.396C51.6876 78.02 50.3856 79.588 48.5516 80.218L49.1256 81.114C50.5956 80.61 51.7436 79.504 52.2756 78.16C52.8216 79.392 53.9136 80.372 55.3276 80.82L55.8736 79.924ZM51.9116 85.986V84.614H58.8416V81.604H50.7496V82.5H57.7076V83.746H50.7776V86.896H59.3176V85.986H51.9116ZM64.0705 83.284C62.9365 83.284 62.1105 82.472 62.1105 81.352C62.1105 80.218 62.9365 79.406 64.0705 79.406C65.2185 79.406 66.0445 80.218 66.0445 81.352C66.0445 82.472 65.2185 83.284 64.0705 83.284ZM64.0705 78.454C62.3065 78.454 61.0325 79.658 61.0325 81.352C61.0325 83.06 62.3065 84.236 64.0705 84.236C65.8625 84.236 67.1365 83.06 67.1365 81.352C67.1365 79.658 65.8625 78.454 64.0705 78.454ZM64.6305 74.632H63.4825V76.494H60.3185V77.418H67.7245V76.494H64.6305V74.632ZM72.1205 79.644H70.0625V74.492H68.9145V87.036H70.0625V80.61H72.1205V79.644ZM81.1294 76.984C81.1294 78.496 81.1294 80.26 80.6534 82.668L81.8014 82.794C82.2774 80.26 82.2774 78.538 82.2774 76.984V75.738H73.4714V76.676H81.1294V76.984ZM77.8394 84.334V79.84H76.6914V84.334H72.2814V85.272H83.6354V84.334H77.8394ZM95.4612 83.816H96.6232V74.492H95.4612V76.872H93.3612V77.796H95.4612V79.266H93.3612V80.204H95.4612V83.816ZM89.0072 76.424H90.8972V80.876C90.2672 80.904 89.6232 80.932 89.0072 80.946V76.424ZM93.6552 80.652C93.1372 80.708 92.5772 80.764 92.0172 80.806V76.424H93.2632V75.5H86.6552V76.424H87.9012V80.96C87.3412 80.974 86.7952 80.974 86.3192 80.974L86.4452 81.926C88.4752 81.926 91.3172 81.884 93.7252 81.506L93.6552 80.652ZM89.7212 85.818V83.06H88.5732V86.756H96.9452V85.818H89.7212ZM101.838 83.284C100.704 83.284 99.8781 82.472 99.8781 81.352C99.8781 80.218 100.704 79.406 101.838 79.406C102.986 79.406 103.812 80.218 103.812 81.352C103.812 82.472 102.986 83.284 101.838 83.284ZM101.838 78.454C100.074 78.454 98.8001 79.658 98.8001 81.352C98.8001 83.06 100.074 84.236 101.838 84.236C103.63 84.236 104.904 83.06 104.904 81.352C104.904 79.658 103.63 78.454 101.838 78.454ZM102.398 74.632H101.25V76.494H98.0861V77.418H105.492V76.494H102.398V74.632ZM109.888 79.644H107.83V74.492H106.682V87.036H107.83V80.61H109.888V79.644ZM116.993 79.616H114.823C115.243 78.496 115.425 77.306 115.425 76.074H110.581V77.012H114.291C114.081 79.644 112.737 81.898 110.049 83.508L110.721 84.334C112.457 83.298 113.661 81.996 114.417 80.54H116.993V86.406H118.085V74.814H116.993V79.616ZM119.611 74.478V87.036H120.703V74.478H119.611ZM127.153 83.172C126.173 83.172 125.487 82.374 125.487 81.254C125.487 80.162 126.173 79.364 127.153 79.364C128.119 79.364 128.819 80.162 128.819 81.254C128.819 82.374 128.119 83.172 127.153 83.172ZM127.153 78.398C125.599 78.398 124.465 79.574 124.465 81.254C124.465 82.962 125.599 84.124 127.153 84.124C128.707 84.124 129.841 82.962 129.841 81.254C129.841 79.574 128.707 78.398 127.153 78.398ZM127.713 74.842H126.579V76.62H124.031V77.558H130.261V76.62H127.713V74.842ZM133.579 74.464V79.77H131.969V74.758H130.891V86.42H131.969V80.708H133.579V87.022H134.685V74.464H133.579ZM139.175 80.582C141.121 80.246 142.969 79.196 143.739 77.712C144.495 79.196 146.357 80.246 148.303 80.582L148.751 79.672C146.539 79.35 144.369 77.908 144.369 76.256V76.186H148.303V75.262H139.133V76.186H143.095V76.256C143.095 77.908 140.925 79.35 138.741 79.672L139.175 80.582ZM149.409 81.632H138.069V82.57H143.137V87.036H144.285V82.57H149.423L149.409 81.632ZM154.329 75.57H153.181V77.81C153.181 80.148 151.753 82.556 149.933 83.48L150.633 84.39C152.047 83.62 153.209 82.052 153.755 80.19C154.315 81.968 155.477 83.48 156.891 84.208L157.577 83.284C155.757 82.416 154.329 80.12 154.329 77.81V75.57ZM159.117 74.478V77.208H156.401V78.16H159.117V80.344H156.401V81.296H159.117V87.064H160.279V74.478H159.117ZM166.208 75.556H165.06V77.81C165.06 80.134 163.632 82.556 161.812 83.466L162.512 84.376C163.926 83.62 165.088 82.038 165.634 80.176C166.208 81.94 167.356 83.438 168.784 84.152L169.456 83.242C167.636 82.374 166.208 80.092 166.208 77.81V75.556ZM171.01 74.478V78.734H168.098V79.672H171.01V87.05H172.158V74.478H171.01ZM176.368 75.276V76.214H180.932C180.708 78.342 178.874 79.994 175.808 80.82L176.256 81.73C179.952 80.722 182.164 78.468 182.164 75.276H176.368ZM178.79 83.116H184.432V85.93H178.79V83.116ZM177.656 86.854H185.566V82.192H177.656V86.854ZM187.428 77.544H185.566V74.464H184.418V81.604H185.566V78.496H187.428V77.544ZM191.915 75.57H190.781V77.824C190.781 80.106 189.353 82.514 187.547 83.438L188.233 84.362C189.647 83.606 190.809 82.038 191.355 80.204C191.929 81.926 193.063 83.396 194.393 84.11L195.107 83.2C193.343 82.318 191.915 80.036 191.915 77.824V75.57ZM199.433 79.574H197.361V74.492H196.213V87.036H197.361V80.526H199.433V79.574ZM207.49 78.874H209.072V82.262H210.178V74.492H209.072V77.936H207.49V74.674H206.412V82.066H207.49V78.874ZM205.894 75.92H203.276V74.548H202.142V75.92H199.51V76.83H205.88L205.894 75.92ZM202.716 78.314C203.696 78.314 204.368 78.832 204.368 79.616C204.368 80.4 203.696 80.904 202.716 80.904C201.722 80.904 201.064 80.4 201.064 79.616C201.064 78.832 201.722 78.314 202.716 78.314ZM202.716 81.758C204.298 81.758 205.39 80.904 205.39 79.616C205.39 78.314 204.298 77.46 202.716 77.46C201.134 77.46 200.028 78.314 200.028 79.616C200.028 80.904 201.134 81.758 202.716 81.758ZM208.638 82.626H207.504V83.06C207.504 83.984 206.916 85.188 205.74 85.888C204.578 85.244 204.004 84.124 204.004 83.06V82.626H202.898V83.06C202.898 84.208 201.946 85.496 200.378 86.028L200.91 86.882C202.114 86.448 202.982 85.622 203.444 84.642C203.822 85.664 204.564 86.546 205.768 86.994C206.93 86.518 207.686 85.594 208.064 84.6C208.484 85.622 209.366 86.448 210.626 86.882L211.158 86.028C209.576 85.524 208.638 84.292 208.638 83.06V82.626ZM222.169 78.398C219.943 78.118 217.731 76.732 217.731 75.178V74.618H216.555V75.178C216.555 76.774 214.357 78.118 212.103 78.398L212.523 79.322C214.483 79.014 216.359 78.034 217.143 76.634C217.941 78.034 219.803 79.014 221.749 79.322L222.169 78.398ZM220.195 85.944H214.021V84.348H220.195V85.944ZM220.195 83.466H214.021V81.996H212.887V86.868H221.329V81.996H220.195V83.466ZM211.445 80.204V81.128H222.813V80.204H211.445ZM225.27 75.696H224.122V83.788H225.158C227.16 83.788 229.134 83.648 231.318 83.2L231.192 82.22C229.106 82.64 227.16 82.808 225.27 82.808V75.696ZM232.48 74.478V87.022H233.628V74.478H232.48ZM236.897 76.634H241.587V75.682H235.749V83.928H236.743C239.109 83.928 240.761 83.844 242.679 83.48L242.553 82.528C240.733 82.85 239.123 82.948 236.897 82.948V76.634ZM246.949 79.434H244.877V74.478H243.729V87.064H244.877V80.386H246.949V79.434ZM248.3 86.182C248.804 86.182 249.224 85.79 249.224 85.216C249.224 84.628 248.804 84.222 248.3 84.222C247.796 84.222 247.376 84.628 247.376 85.216C247.376 85.79 247.796 86.182 248.3 86.182ZM18.554 95.822H15.32V94.366H14.172V95.822H10.924V96.746H18.554V95.822ZM12.772 99.602C12.772 98.762 13.542 98.23 14.746 98.23C15.936 98.23 16.72 98.762 16.72 99.602C16.72 100.428 15.936 100.974 14.746 100.974C13.542 100.974 12.772 100.428 12.772 99.602ZM17.812 99.602C17.812 98.216 16.58 97.362 14.746 97.362C12.912 97.362 11.68 98.216 11.68 99.602C11.68 100.974 12.912 101.828 14.746 101.828C16.58 101.828 17.812 100.974 17.812 99.602ZM14.046 103.662H19.926V105.944H14.046V103.662ZM12.926 106.868H21.046V102.752H12.926V106.868ZM19.898 94.478V102.08H21.046V94.478H19.898ZM32.6869 100.498H25.1969V96.578H32.5609V95.626H24.0629V101.436H32.6869V100.498ZM22.6069 104.39V105.342H34.0029V104.39H22.6069ZM44.7898 94.492H43.6418V100.988H44.7898V94.492ZM42.1018 99.728C40.2398 99.112 38.9238 97.544 38.9238 95.808V94.856H37.7758V95.808C37.7758 97.628 36.4738 99.308 34.5838 99.966L35.1718 100.862C36.6558 100.33 37.8178 99.182 38.3638 97.74C38.9378 99.07 40.0858 100.12 41.5278 100.624L42.1018 99.728ZM37.8318 105.986V104.642H44.8038V101.618H36.6698V102.514H43.6698V103.774H36.6978V106.896H45.2238V105.986H37.8318ZM56.9767 94.492H55.8707V103.9H56.9767V94.492ZM53.4487 103.578H54.5407V94.744H53.4487V98.034H51.7827V98.972H53.4487V103.578ZM52.2587 100.554C50.9567 100.82 49.8227 100.89 48.0587 100.89V99.07H51.1947V98.174H48.0587V96.452H51.6987V95.528H46.9527V101.814H47.7507C49.7527 101.814 50.9287 101.758 52.3707 101.478L52.2587 100.554ZM49.9627 105.818V102.864H48.8147V106.756H57.3407V105.818H49.9627ZM59.8536 96.942H63.4376V96.018H58.7196V104.012H59.5316C61.5336 104.012 62.7516 103.956 64.1796 103.648L64.0676 102.71C62.7516 102.99 61.6316 103.046 59.8536 103.06V96.942ZM65.2996 99.266H62.5976V100.218H65.2996V106.406H66.3776V94.786H65.2996V99.266ZM67.8196 94.478V107.036H68.9116V94.478H67.8196ZM76.3945 104.502V101.282H80.2165V100.358H72.7265V96.424H80.0905V95.486H71.5785V101.282H75.2325V104.502H70.1225V105.454H81.5325V104.502H76.3945ZM86.5963 96.438H93.0223V100.512H86.5963V96.438ZM90.4043 104.474V101.422H94.1423V95.528H85.4903V101.422H89.2423V104.474H84.1463V105.426H95.5283V104.474H90.4043ZM105.979 99.154H98.7552V96.158H105.825V95.22H97.5792V100.078H105.979V99.154ZM107.407 101.716H96.0252V102.654H101.107V106.98H102.255V102.654H107.407V101.716ZM115.705 95.542C117.707 95.542 118.939 96.074 118.939 96.956C118.939 97.852 117.707 98.37 115.705 98.37C113.703 98.37 112.471 97.852 112.471 96.956C112.471 96.074 113.703 95.542 115.705 95.542ZM115.705 99.266C118.435 99.266 120.115 98.426 120.115 96.956C120.115 95.5 118.435 94.66 115.705 94.66C112.975 94.66 111.295 95.5 111.295 96.956C111.295 98.426 112.975 99.266 115.705 99.266ZM116.293 103.116H115.103V103.508C115.103 104.852 113.129 105.874 110.861 106.112L111.239 106.994C113.199 106.77 114.935 106 115.705 104.824C116.433 106.014 118.183 106.756 120.143 106.994L120.521 106.112C118.225 105.888 116.293 104.88 116.293 103.508V103.116ZM110.035 100.218V101.156H115.131V102.542H116.265V101.156H121.417V100.218H110.035ZM131.98 98.258H124.588V94.94H123.44V99.196H131.98V98.258ZM124.504 103.06H123.356V106.728H132.05V105.79H124.504V103.06ZM121.9 100.876V101.8H133.282V100.876H121.9ZM137.212 97.754C137.212 96.648 138.122 95.85 139.354 95.85C140.586 95.85 141.496 96.648 141.496 97.754C141.496 98.874 140.586 99.672 139.354 99.672C138.122 99.672 137.212 98.874 137.212 97.754ZM145.108 98.202V100.876H146.256V94.492H145.108V97.278H142.546C142.308 95.864 141.034 94.912 139.354 94.912C137.478 94.912 136.12 96.074 136.12 97.754C136.12 99.448 137.478 100.61 139.354 100.61C141.048 100.61 142.322 99.644 142.56 98.202H145.108ZM139.326 105.958V104.586H146.256V101.562H138.164V102.472H145.122V103.718H138.192V106.868H146.732V105.958H139.326ZM159.199 99.924V99H157.477C157.729 97.656 157.729 96.592 157.729 95.766V94.982H149.259V95.892H156.595C156.595 96.704 156.581 97.67 156.315 99H147.803V99.924H152.899V101.548H149.147V102.458H156.623V103.76H149.189V106.882H158.079V105.972H150.323V104.586H157.771V101.548H154.061V99.924H159.199ZM165.939 104.544V102.178H169.957V101.254H162.229V99.224H169.663V95.402H161.067V96.34H168.543V98.3H161.095V102.178H164.777V104.544H159.667V105.482H171.077V104.544H165.939ZM175.903 98.594C175.903 97.152 177.373 96.214 179.375 96.214C181.377 96.214 182.833 97.152 182.833 98.594C182.833 100.036 181.377 100.974 179.375 100.974C177.373 100.974 175.903 100.036 175.903 98.594ZM179.949 104.474V101.856C182.287 101.688 183.925 100.442 183.925 98.594C183.925 96.592 182.021 95.304 179.375 95.304C176.715 95.304 174.797 96.592 174.797 98.594C174.797 100.442 176.449 101.688 178.787 101.856V104.474H173.677V105.426H185.087V104.474H179.949ZM189.63 103.284C188.468 103.284 187.628 102.472 187.628 101.338C187.628 100.218 188.468 99.406 189.63 99.406C190.792 99.406 191.646 100.218 191.646 101.338C191.646 102.472 190.792 103.284 189.63 103.284ZM189.63 98.454C187.838 98.454 186.536 99.644 186.536 101.338C186.536 103.06 187.838 104.236 189.63 104.236C191.45 104.236 192.738 103.06 192.738 101.338C192.738 99.644 191.45 98.454 189.63 98.454ZM190.19 94.604H189.042V96.508H185.85V97.446H193.382V96.508H190.19V94.604ZM194.698 94.478V107.036H195.846V94.478H194.698ZM199.045 100.106H203.371V95.612H197.883V96.536H202.237V99.168H197.911V104.124H198.863C200.823 104.124 202.433 104.054 204.407 103.746L204.309 102.794C202.433 103.088 200.893 103.172 199.045 103.172V100.106ZM206.633 94.464V97.334H204.155V98.272H206.633V100.778H204.071V101.716H206.633V107.05H207.781V94.464H206.633ZM212.425 99.196C214.511 98.986 216.387 98.188 217.143 96.942C217.885 98.188 219.775 98.986 221.847 99.196L222.211 98.314C219.971 98.132 217.941 97.138 217.815 95.864H221.791V94.954H212.495V95.864H216.457C216.331 97.152 214.287 98.118 212.061 98.314L212.425 99.196ZM213.979 104.754H221.357V101.884H212.817V102.766H220.223V103.914H212.859V106.896H221.735V106.014H213.979V104.754ZM211.445 99.826V100.75H222.813V99.826H211.445ZM224.136 95.262V96.2H228.56C228.364 98.272 226.558 99.826 223.492 100.61L223.954 101.506C227.636 100.554 229.792 98.426 229.792 95.262H224.136ZM232.536 105.944H226.698V104.334H232.536V105.944ZM232.536 103.438H226.698V101.856H225.55V106.868H233.67V101.856H232.536V103.438ZM232.522 94.478V97.628H229.806V98.58H232.522V101.24H233.67V94.478H232.522ZM242.175 99.616H240.005C240.425 98.496 240.607 97.306 240.607 96.074H235.763V97.012H239.473C239.263 99.644 237.919 101.898 235.231 103.508L235.903 104.334C237.639 103.298 238.843 101.996 239.599 100.54H242.175V106.406H243.267V94.814H242.175V99.616ZM244.793 94.478V107.036H245.885V94.478H244.793ZM252.334 103.172C251.354 103.172 250.668 102.374 250.668 101.254C250.668 100.162 251.354 99.364 252.334 99.364C253.3 99.364 254 100.162 254 101.254C254 102.374 253.3 103.172 252.334 103.172ZM252.334 98.398C250.78 98.398 249.646 99.574 249.646 101.254C249.646 102.962 250.78 104.124 252.334 104.124C253.888 104.124 255.022 102.962 255.022 101.254C255.022 99.574 253.888 98.398 252.334 98.398ZM252.894 94.842H251.76V96.62H249.212V97.558H255.442V96.62H252.894V94.842ZM258.76 94.464V99.77H257.15V94.758H256.072V106.42H257.15V100.708H258.76V107.022H259.866V94.464H258.76ZM262.225 100.582C264.171 100.246 266.019 99.196 266.789 97.712C267.545 99.196 269.407 100.246 271.353 100.582L271.801 99.672C269.589 99.35 267.419 97.908 267.419 96.256V96.186H271.353V95.262H262.183V96.186H266.145V96.256C266.145 97.908 263.975 99.35 261.791 99.672L262.225 100.582ZM272.459 101.632H261.119V102.57H266.187V107.036H267.335V102.57H272.473L272.459 101.632ZM277.436 95.57H276.302V97.824C276.302 100.204 274.776 102.612 272.928 103.494L273.628 104.432C275.098 103.676 276.302 102.108 276.876 100.218C277.478 102.01 278.682 103.494 280.11 104.194L280.796 103.27C278.934 102.43 277.436 100.12 277.436 97.824V95.57ZM282.112 94.478V107.064H283.26V94.478H282.112ZM293.725 96.984C293.725 98.496 293.725 100.26 293.249 102.668L294.397 102.794C294.873 100.26 294.873 98.538 294.873 96.984V95.738H286.067V96.676H293.725V96.984ZM290.435 104.334V99.84H289.287V104.334H284.877V105.272H296.231V104.334H290.435ZM302.807 101.52C303.325 101.646 303.927 101.716 304.543 101.716C305.173 101.716 305.775 101.646 306.307 101.52V104.474H302.807V101.52ZM304.543 96.172C306.559 96.172 308.015 97.096 308.015 98.496C308.015 99.896 306.559 100.82 304.543 100.82C302.527 100.82 301.085 99.896 301.085 98.496C301.085 97.096 302.527 96.172 304.543 96.172ZM307.455 104.474V101.072C308.491 100.526 309.107 99.63 309.107 98.496C309.107 96.536 307.217 95.276 304.543 95.276C301.883 95.276 299.979 96.536 299.979 98.496C299.979 99.63 300.609 100.54 301.659 101.086V104.474H298.859V105.426H310.269V104.474H307.455ZM22.11 120.694H20.248C20.598 118.888 20.598 117.558 20.598 116.382V115.29H12.17V116.214H19.478V116.382C19.478 117.558 19.478 118.888 19.086 120.694H10.756V121.632H15.824V127.05H16.986V121.632H22.11V120.694ZM26.8349 115.57H25.7009V117.824C25.7009 120.106 24.2729 122.514 22.4669 123.438L23.1529 124.362C24.5669 123.606 25.7289 122.038 26.2749 120.204C26.8489 121.926 27.9829 123.396 29.3129 124.11L30.0269 123.2C28.2629 122.318 26.8349 120.036 26.8349 117.824V115.57ZM34.3529 119.574H32.2809V114.492H31.1329V127.036H32.2809V120.526H34.3529V119.574ZM41.9478 115.892H38.8118V114.366H37.6638V115.892H34.5418V116.816H41.9478V115.892ZM36.3338 119.658C36.3338 118.846 37.0898 118.314 38.2378 118.314C39.3858 118.314 40.1558 118.846 40.1558 119.658C40.1558 120.484 39.3858 121.016 38.2378 121.016C37.0898 121.016 36.3338 120.484 36.3338 119.658ZM41.2478 119.658C41.2478 118.314 40.0298 117.446 38.2378 117.446C36.4458 117.446 35.2418 118.314 35.2418 119.658C35.2418 121.016 36.4458 121.884 38.2378 121.884C40.0298 121.884 41.2478 121.016 41.2478 119.658ZM40.3098 126.14C38.4758 126.14 37.3558 125.664 37.3558 124.852C37.3558 124.04 38.4758 123.564 40.3098 123.564C42.1438 123.564 43.2638 124.04 43.2638 124.852C43.2638 125.664 42.1438 126.14 40.3098 126.14ZM40.3098 122.682C37.7758 122.682 36.2218 123.466 36.2218 124.852C36.2218 126.224 37.7758 127.022 40.3098 127.022C42.8298 127.022 44.3978 126.224 44.3978 124.852C44.3978 123.466 42.8298 122.682 40.3098 122.682ZM44.2438 117.964V114.478H43.0958V122.556H44.2438V118.916H46.0918V117.964H44.2438ZM52.6367 124.502V121.282H56.4587V120.358H48.9687V116.424H56.3327V115.486H47.8207V121.282H51.4747V124.502H46.3647V125.454H57.7747V124.502H52.6367ZM69.0965 117.068C69.0965 118.622 69.0965 120.498 68.5925 123.06L69.7405 123.186C70.2305 120.47 70.2305 118.664 70.2305 117.068V115.808H61.6205V116.746H69.0965V117.068ZM60.4025 124.25V125.202H71.7565V124.25H60.4025ZM73.8494 116.942H77.3914V116.004H72.7154V123.942H73.5414C75.4174 123.942 76.6914 123.886 78.1894 123.564L78.0914 122.612C76.7194 122.906 75.5294 122.976 73.8494 122.99V116.942ZM81.8294 114.478V119.518H80.0514V114.758H78.9734V126.406H80.0514V120.456H81.8294V127.036H82.9354V114.478H81.8294ZM90.4043 124.544V122.178H94.4223V121.254H86.6943V119.224H94.1283V115.402H85.5323V116.34H93.0083V118.3H85.5603V122.178H89.2423V124.544H84.1323V125.482H95.5423V124.544H90.4043ZM103.364 120.68H99.8081V118.384H103.364V120.68ZM104.484 115.388H103.364V117.488H99.8081V115.388H98.6741V121.604H104.484V115.388ZM101.236 122.822H100.088V126.756H108.46V125.818H101.236V122.822ZM107.9 118.286V114.492H106.752V123.704H107.9V119.252H109.748V118.286H107.9ZM111.323 118.202C111.323 117.04 112.247 116.2 113.465 116.2C114.697 116.2 115.593 117.04 115.593 118.202C115.593 119.378 114.697 120.218 113.465 120.218C112.247 120.218 111.323 119.378 111.323 118.202ZM119.219 117.222V119.182H116.517C116.629 118.874 116.685 118.552 116.685 118.202C116.685 117.838 116.629 117.516 116.531 117.222H119.219ZM119.219 120.12V121.912H120.381V114.478H119.219V116.284H115.999C115.425 115.64 114.529 115.234 113.465 115.234C111.603 115.234 110.231 116.452 110.231 118.202C110.231 119.966 111.603 121.198 113.465 121.198C114.529 121.198 115.425 120.792 115.999 120.12H119.219ZM116.223 126.112C114.333 126.112 113.185 125.552 113.185 124.614C113.185 123.662 114.333 123.102 116.223 123.102C118.141 123.102 119.289 123.662 119.289 124.614C119.289 125.552 118.141 126.112 116.223 126.112ZM116.223 122.206C113.647 122.206 112.051 123.088 112.051 124.614C112.051 126.14 113.647 127.022 116.223 127.022C118.813 127.022 120.423 126.14 120.423 124.614C120.423 123.088 118.813 122.206 116.223 122.206ZM125.022 123.172C124.042 123.172 123.356 122.374 123.356 121.254C123.356 120.162 124.042 119.364 125.022 119.364C125.988 119.364 126.688 120.162 126.688 121.254C126.688 122.374 125.988 123.172 125.022 123.172ZM125.022 118.398C123.468 118.398 122.334 119.574 122.334 121.254C122.334 122.962 123.468 124.124 125.022 124.124C126.576 124.124 127.71 122.962 127.71 121.254C127.71 119.574 126.576 118.398 125.022 118.398ZM125.582 114.842H124.448V116.62H121.9V117.558H128.13V116.62H125.582V114.842ZM131.448 114.464V119.77H129.838V114.758H128.76V126.42H129.838V120.708H131.448V127.022H132.554V114.464H131.448ZM134.913 120.582C136.859 120.246 138.707 119.196 139.477 117.712C140.233 119.196 142.095 120.246 144.041 120.582L144.489 119.672C142.277 119.35 140.107 117.908 140.107 116.256V116.186H144.041V115.262H134.871V116.186H138.833V116.256C138.833 117.908 136.663 119.35 134.479 119.672L134.913 120.582ZM145.147 121.632H133.807V122.57H138.875V127.036H140.023V122.57H145.161L145.147 121.632ZM150.068 115.57H148.92V117.81C148.92 120.148 147.492 122.556 145.672 123.48L146.372 124.39C147.786 123.62 148.948 122.052 149.494 120.19C150.054 121.968 151.216 123.48 152.63 124.208L153.316 123.284C151.496 122.416 150.068 120.12 150.068 117.81V115.57ZM154.856 114.478V117.208H152.14V118.16H154.856V120.344H152.14V121.296H154.856V127.064H156.018V114.478H154.856ZM161.947 115.556H160.799V117.81C160.799 120.134 159.371 122.556 157.551 123.466L158.251 124.376C159.665 123.62 160.827 122.038 161.373 120.176C161.947 121.94 163.095 123.438 164.523 124.152L165.195 123.242C163.375 122.374 161.947 120.092 161.947 117.81V115.556ZM166.749 114.478V118.734H163.837V119.672H166.749V127.05H167.897V114.478H166.749ZM178.266 117.74V118.678H180.744V121.968H181.906V114.492H180.744V117.74H178.266ZM178.966 120.596C177.146 119.952 175.914 118.37 175.914 116.76V116.326H178.672V115.402H171.966V116.326H174.766V116.76C174.766 118.566 173.478 120.26 171.602 120.946L172.204 121.856C173.674 121.296 174.836 120.12 175.368 118.664C175.914 119.952 176.992 120.988 178.392 121.492L178.966 120.596ZM177.762 126.14C175.872 126.14 174.724 125.608 174.724 124.698C174.724 123.788 175.872 123.242 177.762 123.242C179.652 123.242 180.8 123.788 180.8 124.698C180.8 125.608 179.652 126.14 177.762 126.14ZM177.762 122.36C175.186 122.36 173.576 123.214 173.576 124.698C173.576 126.182 175.186 127.036 177.762 127.036C180.338 127.036 181.948 126.182 181.948 124.698C181.948 123.214 180.338 122.36 177.762 122.36ZM188.605 119.308H185.077V116.102H188.605V119.308ZM189.725 115.192H183.957V120.218H189.725V115.192ZM186.365 124.544H193.183V121.464H185.203V122.374H192.049V123.69H185.245V126.868H193.645V125.944H186.365V124.544ZM193.183 117.18V114.492H192.035V120.876H193.183V118.132H195.045V117.18H193.183ZM206.633 123.816H207.795V114.492H206.633V116.872H204.533V117.796H206.633V119.266H204.533V120.204H206.633V123.816ZM200.179 116.424H202.069V120.876C201.439 120.904 200.795 120.932 200.179 120.946V116.424ZM204.827 120.652C204.309 120.708 203.749 120.764 203.189 120.806V116.424H204.435V115.5H197.827V116.424H199.073V120.96C198.513 120.974 197.967 120.974 197.491 120.974L197.617 121.926C199.647 121.926 202.489 121.884 204.897 121.506L204.827 120.652ZM200.893 125.818V123.06H199.745V126.756H208.117V125.818H200.893ZM213.01 123.284C211.876 123.284 211.05 122.472 211.05 121.352C211.05 120.218 211.876 119.406 213.01 119.406C214.158 119.406 214.984 120.218 214.984 121.352C214.984 122.472 214.158 123.284 213.01 123.284ZM213.01 118.454C211.246 118.454 209.972 119.658 209.972 121.352C209.972 123.06 211.246 124.236 213.01 124.236C214.802 124.236 216.076 123.06 216.076 121.352C216.076 119.658 214.802 118.454 213.01 118.454ZM213.57 114.632H212.422V116.494H209.258V117.418H216.664V116.494H213.57V114.632ZM221.06 119.644H219.002V114.492H217.854V127.036H219.002V120.61H221.06V119.644ZM228.165 119.616H225.995C226.415 118.496 226.597 117.306 226.597 116.074H221.753V117.012H225.463C225.253 119.644 223.909 121.898 221.221 123.508L221.893 124.334C223.629 123.298 224.833 121.996 225.589 120.54H228.165V126.406H229.257V114.814H228.165V119.616ZM230.783 114.478V127.036H231.875V114.478H230.783ZM242.539 119.826C240.705 119.308 239.459 117.95 239.459 116.452V116.116H242.217V115.178H235.497V116.116H238.297V116.466C238.297 118.118 236.995 119.588 235.105 120.162L235.665 121.058C237.191 120.582 238.367 119.546 238.899 118.202C239.459 119.378 240.565 120.316 242.021 120.736L242.539 119.826ZM238.143 124.572H244.961V121.548H236.981V122.43H243.827V123.718H237.023V126.91H245.423V126.028H238.143V124.572ZM244.961 117.208V114.492H243.813V120.946H244.961V118.16H246.823V117.208H244.961ZM250.85 116.662H254.364V122.92H250.85V116.662ZM249.73 123.844H255.484V115.738H249.73V123.844ZM260.958 119.49H258.886V114.492H257.738V127.036H258.886V120.456H260.958V119.49ZM268.035 117.236V118.174H270.289V119.322H268.035V120.26H270.289V122.038H271.451V114.478H270.289V117.236H268.035ZM268.525 120.736C266.677 120.176 265.389 118.748 265.389 117.166V116.858H268.161V115.934H265.389V114.436H264.241V115.934H261.455V116.858H264.241V117.166C264.241 118.818 262.967 120.33 261.119 120.904L261.679 121.8C263.149 121.31 264.297 120.274 264.815 118.944C265.389 120.19 266.537 121.17 267.979 121.618L268.525 120.736ZM270.079 122.416H268.959V123.06C268.959 123.998 268.357 125.258 267.181 126C266.019 125.328 265.445 124.152 265.445 123.06V122.416H264.339V123.06C264.339 124.25 263.387 125.58 261.805 126.154L262.379 126.994C263.555 126.546 264.423 125.678 264.871 124.67C265.235 125.72 265.991 126.63 267.195 127.106C268.357 126.602 269.127 125.65 269.505 124.656C269.925 125.692 270.821 126.56 272.039 126.994L272.613 126.154C271.017 125.622 270.079 124.334 270.079 123.06V122.416ZM283.694 118.398C281.468 118.118 279.256 116.732 279.256 115.178V114.618H278.08V115.178C278.08 116.774 275.882 118.118 273.628 118.398L274.048 119.322C276.008 119.014 277.884 118.034 278.668 116.634C279.466 118.034 281.328 119.014 283.274 119.322L283.694 118.398ZM281.72 125.944H275.546V124.348H281.72V125.944ZM281.72 123.466H275.546V121.996H274.412V126.868H282.854V121.996H281.72V123.466ZM272.97 120.204V121.128H284.338V120.204H272.97ZM286.795 115.696H285.647V123.788H286.683C288.685 123.788 290.659 123.648 292.843 123.2L292.717 122.22C290.631 122.64 288.685 122.808 286.795 122.808V115.696ZM294.005 114.478V127.022H295.153V114.478H294.005ZM298.422 116.634H303.112V115.682H297.274V123.928H298.268C300.634 123.928 302.286 123.844 304.204 123.48L304.078 122.528C302.258 122.85 300.648 122.948 298.422 122.948V116.634ZM308.474 119.434H306.402V114.478H305.254V127.064H306.402V120.386H308.474V119.434ZM309.825 126.182C310.329 126.182 310.749 125.79 310.749 125.216C310.749 124.628 310.329 124.222 309.825 124.222C309.321 124.222 308.901 124.628 308.901 125.216C308.901 125.79 309.321 126.182 309.825 126.182ZM12.268 136.844H14.9V142.752H12.268V136.844ZM11.19 143.662H15.964V135.934H11.19V143.662ZM20.318 134.478V139.448H18.624V134.758H17.546V146.406H18.624V140.386H20.318V147.022H21.41V134.478H20.318ZM28.2769 135.906C30.1949 135.906 31.4969 136.62 31.4969 137.726C31.4969 138.846 30.1949 139.56 28.2769 139.56C26.3729 139.56 25.0709 138.846 25.0709 137.726C25.0709 136.62 26.3729 135.906 28.2769 135.906ZM28.2769 140.484C30.8949 140.484 32.6729 139.42 32.6729 137.726C32.6729 136.046 30.8949 134.982 28.2769 134.982C25.6729 134.982 23.8949 136.046 23.8949 137.726C23.8949 139.42 25.6729 140.484 28.2769 140.484ZM33.9889 141.674H22.6209V142.626H27.7029V147.05H28.8509V142.626H33.9889V141.674ZM46.9347 134.492H45.7867V143.76H46.9347V134.492ZM44.3587 141.114C42.4967 140.54 41.1807 139.056 41.1807 137.404V137.082H44.0227V136.158H41.1947V134.534H40.0467V136.158H37.1907V137.082H40.0467V137.404C40.0467 139.154 38.7727 140.736 36.8967 141.352L37.4567 142.248C38.9407 141.744 40.0887 140.652 40.6347 139.266C41.2087 140.554 42.3567 141.548 43.8127 142.01L44.3587 141.114ZM40.0047 145.818V142.906H38.8567V146.756H47.3127V145.818H40.0047ZM55.2156 137.292V138.216H57.6936V140.974H58.8416V134.492H57.6936V137.292H55.2156ZM55.8736 139.924C54.0816 139.35 52.8496 137.908 52.8496 136.396V136.06H55.6216V135.136H48.9016V136.06H51.6876V136.396C51.6876 138.02 50.3856 139.588 48.5516 140.218L49.1256 141.114C50.5956 140.61 51.7436 139.504 52.2756 138.16C52.8216 139.392 53.9136 140.372 55.3276 140.82L55.8736 139.924ZM51.9116 145.986V144.614H58.8416V141.604H50.7496V142.5H57.7076V143.746H50.7776V146.896H59.3176V145.986H51.9116ZM64.0705 143.284C62.9365 143.284 62.1105 142.472 62.1105 141.352C62.1105 140.218 62.9365 139.406 64.0705 139.406C65.2185 139.406 66.0445 140.218 66.0445 141.352C66.0445 142.472 65.2185 143.284 64.0705 143.284ZM64.0705 138.454C62.3065 138.454 61.0325 139.658 61.0325 141.352C61.0325 143.06 62.3065 144.236 64.0705 144.236C65.8625 144.236 67.1365 143.06 67.1365 141.352C67.1365 139.658 65.8625 138.454 64.0705 138.454ZM64.6305 134.632H63.4825V136.494H60.3185V137.418H67.7245V136.494H64.6305V134.632ZM72.1205 139.644H70.0625V134.492H68.9145V147.036H70.0625V140.61H72.1205V139.644ZM81.1294 136.984C81.1294 138.496 81.1294 140.26 80.6534 142.668L81.8014 142.794C82.2774 140.26 82.2774 138.538 82.2774 136.984V135.738H73.4714V136.676H81.1294V136.984ZM77.8394 144.334V139.84H76.6914V144.334H72.2814V145.272H83.6354V144.334H77.8394ZM95.4612 143.816H96.6232V134.492H95.4612V136.872H93.3612V137.796H95.4612V139.266H93.3612V140.204H95.4612V143.816ZM89.0072 136.424H90.8972V140.876C90.2672 140.904 89.6232 140.932 89.0072 140.946V136.424ZM93.6552 140.652C93.1372 140.708 92.5772 140.764 92.0172 140.806V136.424H93.2632V135.5H86.6552V136.424H87.9012V140.96C87.3412 140.974 86.7952 140.974 86.3192 140.974L86.4452 141.926C88.4752 141.926 91.3172 141.884 93.7252 141.506L93.6552 140.652ZM89.7212 145.818V143.06H88.5732V146.756H96.9452V145.818H89.7212ZM101.838 143.284C100.704 143.284 99.8781 142.472 99.8781 141.352C99.8781 140.218 100.704 139.406 101.838 139.406C102.986 139.406 103.812 140.218 103.812 141.352C103.812 142.472 102.986 143.284 101.838 143.284ZM101.838 138.454C100.074 138.454 98.8001 139.658 98.8001 141.352C98.8001 143.06 100.074 144.236 101.838 144.236C103.63 144.236 104.904 143.06 104.904 141.352C104.904 139.658 103.63 138.454 101.838 138.454ZM102.398 134.632H101.25V136.494H98.0861V137.418H105.492V136.494H102.398V134.632ZM109.888 139.644H107.83V134.492H106.682V147.036H107.83V140.61H109.888V139.644ZM116.993 139.616H114.823C115.243 138.496 115.425 137.306 115.425 136.074H110.581V137.012H114.291C114.081 139.644 112.737 141.898 110.049 143.508L110.721 144.334C112.457 143.298 113.661 141.996 114.417 140.54H116.993V146.406H118.085V134.814H116.993V139.616ZM119.611 134.478V147.036H120.703V134.478H119.611ZM127.153 143.172C126.173 143.172 125.487 142.374 125.487 141.254C125.487 140.162 126.173 139.364 127.153 139.364C128.119 139.364 128.819 140.162 128.819 141.254C128.819 142.374 128.119 143.172 127.153 143.172ZM127.153 138.398C125.599 138.398 124.465 139.574 124.465 141.254C124.465 142.962 125.599 144.124 127.153 144.124C128.707 144.124 129.841 142.962 129.841 141.254C129.841 139.574 128.707 138.398 127.153 138.398ZM127.713 134.842H126.579V136.62H124.031V137.558H130.261V136.62H127.713V134.842ZM133.579 134.464V139.77H131.969V134.758H130.891V146.42H131.969V140.708H133.579V147.022H134.685V134.464H133.579ZM137.044 140.582C138.99 140.246 140.838 139.196 141.608 137.712C142.364 139.196 144.226 140.246 146.172 140.582L146.62 139.672C144.408 139.35 142.238 137.908 142.238 136.256V136.186H146.172V135.262H137.002V136.186H140.964V136.256C140.964 137.908 138.794 139.35 136.61 139.672L137.044 140.582ZM147.278 141.632H135.938V142.57H141.006V147.036H142.154V142.57H147.292L147.278 141.632ZM150.407 148.758L151.205 148.38C149.987 146.392 149.413 144.026 149.413 141.646C149.413 139.266 149.987 136.914 151.205 134.912L150.407 134.548C149.119 136.634 148.349 138.902 148.349 141.646C148.349 144.404 149.119 146.658 150.407 148.758ZM154.487 146.182C156.307 146.182 157.777 145.09 157.777 143.256C157.777 141.856 156.811 140.932 155.607 140.652V140.596C156.685 140.19 157.427 139.364 157.427 138.118C157.427 136.494 156.167 135.542 154.445 135.542C153.255 135.542 152.345 136.06 151.575 136.774L152.261 137.586C152.835 136.998 153.563 136.592 154.389 136.592C155.453 136.592 156.125 137.236 156.125 138.216C156.125 139.322 155.397 140.176 153.283 140.176V141.156C155.649 141.156 156.475 141.982 156.475 143.2C156.475 144.39 155.607 145.118 154.389 145.118C153.227 145.118 152.443 144.572 151.841 143.942L151.197 144.782C151.869 145.51 152.877 146.182 154.487 146.182ZM161.659 140.582C162.905 140.582 163.521 141.464 163.521 142.85C163.521 144.25 162.751 145.188 161.771 145.188C160.483 145.188 159.713 144.026 159.559 141.898C160.189 140.96 161.015 140.582 161.659 140.582ZM161.771 146.182C163.367 146.182 164.711 144.838 164.711 142.85C164.711 140.708 163.605 139.63 161.869 139.63C161.057 139.63 160.161 140.106 159.531 140.876C159.587 137.684 160.777 136.606 162.177 136.606C162.807 136.606 163.423 136.9 163.829 137.39L164.529 136.592C163.969 135.99 163.199 135.542 162.135 135.542C160.147 135.542 158.341 137.082 158.341 141.1C158.341 144.488 159.797 146.182 161.771 146.182ZM168.214 146.182C170.16 146.182 171.406 144.404 171.406 140.834C171.406 137.278 170.16 135.542 168.214 135.542C166.254 135.542 165.008 137.264 165.008 140.834C165.008 144.404 166.254 146.182 168.214 146.182ZM168.214 145.16C167.038 145.16 166.254 143.858 166.254 140.834C166.254 137.838 167.038 136.564 168.214 136.564C169.376 136.564 170.16 137.838 170.16 140.834C170.16 143.858 169.376 145.16 168.214 145.16ZM174.938 143.172C173.958 143.172 173.272 142.374 173.272 141.254C173.272 140.162 173.958 139.364 174.938 139.364C175.904 139.364 176.604 140.162 176.604 141.254C176.604 142.374 175.904 143.172 174.938 143.172ZM174.938 138.398C173.384 138.398 172.25 139.574 172.25 141.254C172.25 142.962 173.384 144.124 174.938 144.124C176.492 144.124 177.626 142.962 177.626 141.254C177.626 139.574 176.492 138.398 174.938 138.398ZM175.498 134.842H174.364V136.62H171.816V137.558H178.046V136.62H175.498V134.842ZM181.364 134.464V139.77H179.754V134.758H178.676V146.42H179.754V140.708H181.364V147.022H182.47V134.464H181.364ZM190.961 140.386C189.155 139.77 187.923 138.202 187.923 136.508V135.122H186.775V136.41C186.775 138.328 185.557 140.036 183.653 140.722L184.255 141.632C185.725 141.072 186.845 139.924 187.363 138.454C187.923 139.742 189.001 140.778 190.359 141.282L190.961 140.386ZM189.463 146.126C187.601 146.126 186.467 145.608 186.467 144.74C186.467 143.858 187.601 143.34 189.463 143.34C191.311 143.34 192.445 143.858 192.445 144.74C192.445 145.608 191.311 146.126 189.463 146.126ZM189.463 142.444C186.901 142.444 185.319 143.27 185.319 144.74C185.319 146.196 186.901 147.022 189.463 147.022C192.011 147.022 193.593 146.196 193.593 144.74C193.593 143.27 192.011 142.444 189.463 142.444ZM193.453 137.726V134.492H192.305V142.094H193.453V138.678H195.315V137.726H193.453ZM201.846 144.502V141.282H205.668V140.358H198.178V136.424H205.542V135.486H197.03V141.282H200.684V144.502H195.574V145.454H206.984V144.502H201.846ZM209.499 142.57H213.083V141.59H209.499V142.57ZM214.319 142.15L216.657 138.65C216.951 138.146 217.231 137.642 217.483 137.138H217.539C217.511 137.67 217.469 138.496 217.469 139V142.15H214.319ZM217.469 146H218.673V143.172H220.031V142.15H218.673V135.724H217.259L212.989 142.332V143.172H217.469V146ZM220.091 146H226.545V144.894H223.703C223.185 144.894 222.555 144.95 222.023 144.992C224.431 142.71 226.041 140.624 226.041 138.58C226.041 136.746 224.893 135.542 223.059 135.542C221.757 135.542 220.875 136.144 220.035 137.054L220.777 137.782C221.337 137.11 222.065 136.592 222.905 136.592C224.179 136.592 224.795 137.446 224.795 138.622C224.795 140.386 223.311 142.43 220.091 145.244V146ZM229.502 144.502H236.95V141.338H228.326V142.248H235.802V143.634H228.368V146.882H237.258V145.972H229.502V144.502ZM236.628 139.154C236.908 137.74 236.908 136.662 236.908 135.808V135.01H228.438V135.934H235.774C235.774 136.76 235.76 137.768 235.48 139.154H226.982V140.078H238.378V139.154H236.628ZM243.089 136.718H245.875V135.766H239.085V136.718H241.955V138.314C241.955 140.442 240.443 142.822 238.651 143.718L239.323 144.628C240.737 143.9 241.955 142.304 242.529 140.47C243.103 142.15 244.279 143.62 245.679 144.32L246.337 143.396C244.517 142.542 243.089 140.316 243.089 138.314V136.718ZM250.593 139.546H248.521V134.492H247.373V147.036H248.521V140.512H250.593V139.546ZM261.999 134.478V147.064H263.147V134.478H261.999ZM256.525 135.444C254.663 135.444 253.333 137.152 253.333 139.826C253.333 142.5 254.663 144.208 256.525 144.208C258.387 144.208 259.717 142.5 259.717 139.826C259.717 137.152 258.387 135.444 256.525 135.444ZM256.525 136.48C257.743 136.48 258.611 137.796 258.611 139.826C258.611 141.87 257.743 143.186 256.525 143.186C255.293 143.186 254.425 141.87 254.425 139.826C254.425 137.796 255.293 136.48 256.525 136.48ZM272.002 140.386C270.196 139.77 268.964 138.202 268.964 136.508V135.122H267.816V136.41C267.816 138.328 266.598 140.036 264.694 140.722L265.296 141.632C266.766 141.072 267.886 139.924 268.404 138.454C268.964 139.742 270.042 140.778 271.4 141.282L272.002 140.386ZM270.504 146.126C268.642 146.126 267.508 145.608 267.508 144.74C267.508 143.858 268.642 143.34 270.504 143.34C272.352 143.34 273.486 143.858 273.486 144.74C273.486 145.608 272.352 146.126 270.504 146.126ZM270.504 142.444C267.942 142.444 266.36 143.27 266.36 144.74C266.36 146.196 267.942 147.022 270.504 147.022C273.052 147.022 274.634 146.196 274.634 144.74C274.634 143.27 273.052 142.444 270.504 142.444ZM274.494 137.726V134.492H273.346V142.094H274.494V138.678H276.356V137.726H274.494ZM280.356 139.756C279.838 139.756 279.432 140.162 279.432 140.68C279.432 141.198 279.838 141.604 280.356 141.604C280.874 141.604 281.28 141.198 281.28 140.68C281.28 140.162 280.874 139.756 280.356 139.756ZM285.018 139.756C284.5 139.756 284.094 140.162 284.094 140.68C284.094 141.198 284.5 141.604 285.018 141.604C285.536 141.604 285.942 141.198 285.942 140.68C285.942 140.162 285.536 139.756 285.018 139.756ZM289.68 139.756C289.162 139.756 288.756 140.162 288.756 140.68C288.756 141.198 289.162 141.604 289.68 141.604C290.198 141.604 290.604 141.198 290.604 140.68C290.604 140.162 290.198 139.756 289.68 139.756ZM298.23 137.572H301.016V136.648H298.23V134.702H297.082V136.648H294.254V137.572H297.096V138.538C297.096 140.708 295.752 142.85 293.904 143.732L294.548 144.614C295.976 143.914 297.138 142.458 297.67 140.708C298.23 142.36 299.392 143.718 300.82 144.376L301.45 143.494C299.602 142.668 298.23 140.624 298.23 138.538V137.572ZM303.088 134.464V139.518H300.372V140.456H303.088V147.064H304.236V134.464H303.088ZM307.645 140.12H312.279V135.64H306.455V136.578H311.117V139.196H306.497V144.012H307.533C309.689 144.012 311.593 143.928 313.861 143.55L313.749 142.612C311.551 142.962 309.703 143.06 307.645 143.06V140.12ZM314.925 134.464V147.05H316.073V134.464H314.925ZM318.292 148.758C319.594 146.658 320.364 144.404 320.364 141.646C320.364 138.902 319.594 136.634 318.292 134.548L317.508 134.912C318.712 136.914 319.3 139.266 319.3 141.646C319.3 144.026 318.712 146.392 317.508 148.38L318.292 148.758Z" fill="#333333"/>
<path d="M11.414 47.822V48.774H16.02C15.754 51.742 14.032 54.15 10.826 55.76L11.456 56.656C15.516 54.626 17.154 51.392 17.154 47.822H11.414ZM22.418 51.574H20.402V46.478H19.254V59.036H20.402V52.526H22.418V51.574ZM24.5669 55.452H31.8049V59.008H32.9669V54.528H24.5669V55.452ZM31.8049 46.478V48.718H29.0329C29.1449 48.27 29.2009 47.794 29.2009 47.318H23.4609V48.256H27.9689C27.7449 50.398 25.8409 52.064 22.8029 52.89L23.2649 53.814C25.9529 53.058 27.8989 51.63 28.7389 49.656H31.8049V51.378H28.5569V52.316H31.8049V53.968H32.9669V46.478H31.8049Z" fill="black"/>
<path fill-rule="evenodd" clip-rule="evenodd" d="M93.2327 55.1223C93.087 55.0457 92.913 55.0457 92.7673 55.1223L90.37 56.3827C90.0032 56.5755 89.5745 56.264 89.6445 55.8556L90.1024 53.1861C90.1302 53.0239 90.0764 52.8584 89.9586 52.7436L88.0191 50.8531C87.7224 50.5638 87.8861 50.0598 88.2962 50.0002L90.9765 49.6107C91.1394 49.5871 91.2801 49.4848 91.353 49.3372L92.5516 46.9085C92.735 46.5369 93.265 46.5369 93.4484 46.9085L94.647 49.3372C94.7199 49.4848 94.8606 49.5871 95.0235 49.6107L97.7038 50.0002C98.1139 50.0598 98.2776 50.5638 97.9809 50.8531L96.0414 52.7436C95.9236 52.8584 95.8698 53.0239 95.8976 53.1861L96.3554 55.8556C96.4255 56.264 95.9968 56.5755 95.63 56.3827L93.2327 55.1223Z" fill="#D7DBE2"/>
<path fill-rule="evenodd" clip-rule="evenodd" d="M69.2327 55.1223C69.087 55.0457 68.913 55.0457 68.7673 55.1223L66.37 56.3827C66.0032 56.5755 65.5745 56.264 65.6445 55.8556L66.1024 53.1861C66.1302 53.0239 66.0764 52.8584 65.9586 52.7436L64.0191 50.8531C63.7224 50.5638 63.8861 50.0598 64.2962 50.0002L66.9765 49.6107C67.1394 49.5871 67.2801 49.4848 67.353 49.3372L68.5516 46.9085C68.735 46.5369 69.265 46.5369 69.4484 46.9085L70.647 49.3372C70.7199 49.4848 70.8606 49.5871 71.0235 49.6107L73.7038 50.0002C74.1139 50.0598 74.2776 50.5638 73.9809 50.8531L72.0414 52.7436C71.9236 52.8584 71.8698 53.0239 71.8976 53.1861L72.3554 55.8556C72.4255 56.264 71.9968 56.5755 71.63 56.3827L69.2327 55.1223Z" fill="#1672F7"/>
<path fill-rule="evenodd" clip-rule="evenodd" d="M81.2327 55.1223C81.087 55.0457 80.913 55.0457 80.7673 55.1223L78.37 56.3827C78.0032 56.5755 77.5745 56.264 77.6445 55.8556L78.1024 53.1861C78.1302 53.0239 78.0764 52.8584 77.9586 52.7436L76.0191 50.8531C75.7224 50.5638 75.8861 50.0598 76.2962 50.0002L78.9765 49.6107C79.1394 49.5871 79.2801 49.4848 79.353 49.3372L80.5516 46.9085C80.735 46.5369 81.265 46.5369 81.4484 46.9085L82.647 49.3372C82.7199 49.4848 82.8606 49.5871 83.0235 49.6107L85.7038 50.0002C86.1139 50.0598 86.2776 50.5638 85.9809 50.8531L84.0414 52.7436C83.9236 52.8584 83.8698 53.0239 83.8976 53.1861L84.3554 55.8556C84.4255 56.264 83.9968 56.5755 83.63 56.3827L81.2327 55.1223Z" fill="#1672F7"/>
<path fill-rule="evenodd" clip-rule="evenodd" d="M57.2327 55.1223C57.087 55.0457 56.913 55.0457 56.7673 55.1223L54.37 56.3827C54.0032 56.5755 53.5745 56.264 53.6445 55.8556L54.1024 53.1861C54.1302 53.0239 54.0764 52.8584 53.9586 52.7436L52.0191 50.8531C51.7224 50.5638 51.8861 50.0598 52.2962 50.0002L54.9765 49.6107C55.1394 49.5871 55.2801 49.4848 55.353 49.3372L56.5516 46.9085C56.735 46.5369 57.265 46.5369 57.4484 46.9085L58.647 49.3372C58.7199 49.4848 58.8606 49.5871 59.0235 49.6107L61.7038 50.0002C62.1139 50.0598 62.2776 50.5638 61.9809 50.8531L60.0414 52.7436C59.9236 52.8584 59.8698 53.0239 59.8976 53.1861L60.3554 55.8556C60.4255 56.264 59.9968 56.5755 59.63 56.3827L57.2327 55.1223Z" fill="#1672F7"/>
<path fill-rule="evenodd" clip-rule="evenodd" d="M45.2327 55.1223C45.087 55.0457 44.913 55.0457 44.7673 55.1223L42.37 56.3827C42.0032 56.5755 41.5745 56.264 41.6445 55.8556L42.1024 53.1861C42.1302 53.0239 42.0764 52.8584 41.9586 52.7436L40.0191 50.8531C39.7224 50.5638 39.8861 50.0598 40.2962 50.0002L42.9765 49.6107C43.1394 49.5871 43.2801 49.4848 43.353 49.3372L44.5516 46.9085C44.735 46.5369 45.265 46.5369 45.4484 46.9085L46.647 49.3372C46.7199 49.4848 46.8606 49.5871 47.0235 49.6107L49.7038 50.0002C50.1139 50.0598 50.2776 50.5638 49.9809 50.8531L48.0414 52.7436C47.9236 52.8584 47.8698 53.0239 47.8976 53.1861L48.3554 55.8556C48.4255 56.264 47.9968 56.5755 47.63 56.3827L45.2327 55.1223Z" fill="#1672F7"/>
<path d="M128.406 49.95V50.888H130.926V55.69H132.088V46.492H130.926V49.95H128.406ZM129.148 52.904C127.328 52.26 126.096 50.692 126.096 49.054V48.438H128.854V47.5H122.148V48.438H124.948V49.068C124.948 50.846 123.646 52.512 121.784 53.184L122.386 54.08C123.856 53.548 125.004 52.386 125.55 50.958C126.096 52.246 127.174 53.296 128.574 53.8L129.148 52.904ZM125.214 57.818V54.878H124.052V58.756H132.438V57.818H125.214ZM142.385 50.552H136.197V47.99H142.385V50.552ZM143.519 47.066H135.077V51.476H143.519V47.066ZM136.197 55.172H135.049V58.756H143.729V57.818H136.197V55.172ZM133.593 52.904V53.828H138.815V56.362H139.963V53.828H145.003V52.904H133.593Z" fill="black"/>
<path fill-rule="evenodd" clip-rule="evenodd" d="M204.233 55.1223C204.087 55.0457 203.913 55.0457 203.767 55.1223L201.37 56.3827C201.003 56.5755 200.574 56.264 200.645 55.8556L201.102 53.1861C201.13 53.0239 201.076 52.8584 200.959 52.7436L199.019 50.8531C198.722 50.5638 198.886 50.0598 199.296 50.0002L201.977 49.6107C202.139 49.5871 202.28 49.4848 202.353 49.3372L203.552 46.9085C203.735 46.5369 204.265 46.5369 204.448 46.9085L205.647 49.3372C205.72 49.4848 205.861 49.5871 206.023 49.6107L208.704 50.0002C209.114 50.0598 209.278 50.5638 208.981 50.8531L207.041 52.7436C206.924 52.8584 206.87 53.0239 206.898 53.1861L207.355 55.8556C207.426 56.264 206.997 56.5755 206.63 56.3827L204.233 55.1223Z" fill="#D7DBE2"/>
<path fill-rule="evenodd" clip-rule="evenodd" d="M180.233 55.1223C180.087 55.0457 179.913 55.0457 179.767 55.1223L177.37 56.3827C177.003 56.5755 176.574 56.264 176.645 55.8556L177.102 53.1861C177.13 53.0239 177.076 52.8584 176.959 52.7436L175.019 50.8531C174.722 50.5638 174.886 50.0598 175.296 50.0002L177.977 49.6107C178.139 49.5871 178.28 49.4848 178.353 49.3372L179.552 46.9085C179.735 46.5369 180.265 46.5369 180.448 46.9085L181.647 49.3372C181.72 49.4848 181.861 49.5871 182.023 49.6107L184.704 50.0002C185.114 50.0598 185.278 50.5638 184.981 50.8531L183.041 52.7436C182.924 52.8584 182.87 53.0239 182.898 53.1861L183.355 55.8556C183.426 56.264 182.997 56.5755 182.63 56.3827L180.233 55.1223Z" fill="#1672F7"/>
<path fill-rule="evenodd" clip-rule="evenodd" d="M192.233 55.1223C192.087 55.0457 191.913 55.0457 191.767 55.1223L189.37 56.3827C189.003 56.5755 188.574 56.264 188.645 55.8556L189.102 53.1861C189.13 53.0239 189.076 52.8584 188.959 52.7436L187.019 50.8531C186.722 50.5638 186.886 50.0598 187.296 50.0002L189.977 49.6107C190.139 49.5871 190.28 49.4848 190.353 49.3372L191.552 46.9085C191.735 46.5369 192.265 46.5369 192.448 46.9085L193.647 49.3372C193.72 49.4848 193.861 49.5871 194.023 49.6107L196.704 50.0002C197.114 50.0598 197.278 50.5638 196.981 50.8531L195.041 52.7436C194.924 52.8584 194.87 53.0239 194.898 53.1861L195.355 55.8556C195.426 56.264 194.997 56.5755 194.63 56.3827L192.233 55.1223Z" fill="#1672F7"/>
<path fill-rule="evenodd" clip-rule="evenodd" d="M168.233 55.1223C168.087 55.0457 167.913 55.0457 167.767 55.1223L165.37 56.3827C165.003 56.5755 164.574 56.264 164.645 55.8556L165.102 53.1861C165.13 53.0239 165.076 52.8584 164.959 52.7436L163.019 50.8531C162.722 50.5638 162.886 50.0598 163.296 50.0002L165.977 49.6107C166.139 49.5871 166.28 49.4848 166.353 49.3372L167.552 46.9085C167.735 46.5369 168.265 46.5369 168.448 46.9085L169.647 49.3372C169.72 49.4848 169.861 49.5871 170.023 49.6107L172.704 50.0002C173.114 50.0598 173.278 50.5638 172.981 50.8531L171.041 52.7436C170.924 52.8584 170.87 53.0239 170.898 53.1861L171.355 55.8556C171.426 56.264 170.997 56.5755 170.63 56.3827L168.233 55.1223Z" fill="#1672F7"/>
<path fill-rule="evenodd" clip-rule="evenodd" d="M156.233 55.1223C156.087 55.0457 155.913 55.0457 155.767 55.1223L153.37 56.3827C153.003 56.5755 152.574 56.264 152.645 55.8556L153.102 53.1861C153.13 53.0239 153.076 52.8584 152.959 52.7436L151.019 50.8531C150.722 50.5638 150.886 50.0598 151.296 50.0002L153.977 49.6107C154.139 49.5871 154.28 49.4848 154.353 49.3372L155.552 46.9085C155.735 46.5369 156.265 46.5369 156.448 46.9085L157.647 49.3372C157.72 49.4848 157.861 49.5871 158.023 49.6107L160.704 50.0002C161.114 50.0598 161.278 50.5638 160.981 50.8531L159.041 52.7436C158.924 52.8584 158.87 53.0239 158.898 53.1861L159.355 55.8556C159.426 56.264 158.997 56.5755 158.63 56.3827L156.233 55.1223Z" fill="#1672F7"/>
<path d="M244.046 46.492H242.898V55.76H244.046V46.492ZM241.47 53.114C239.608 52.54 238.292 51.056 238.292 49.404V49.082H241.134V48.158H238.306V46.534H237.158V48.158H234.302V49.082H237.158V49.404C237.158 51.154 235.884 52.736 234.008 53.352L234.568 54.248C236.052 53.744 237.2 52.652 237.746 51.266C238.32 52.554 239.468 53.548 240.924 54.01L241.47 53.114ZM237.116 57.818V54.906H235.968V58.756H244.424V57.818H237.116ZM252.327 49.292V50.216H254.805V52.974H255.953V46.492H254.805V49.292H252.327ZM252.985 51.924C251.193 51.35 249.961 49.908 249.961 48.396V48.06H252.733V47.136H246.013V48.06H248.799V48.396C248.799 50.02 247.497 51.588 245.663 52.218L246.237 53.114C247.707 52.61 248.855 51.504 249.387 50.16C249.933 51.392 251.025 52.372 252.439 52.82L252.985 51.924ZM249.023 57.986V56.614H255.953V53.604H247.861V54.5H254.819V55.746H247.889V58.896H256.429V57.986H249.023Z" fill="black"/>
<path fill-rule="evenodd" clip-rule="evenodd" d="M316.233 55.1223C316.087 55.0457 315.913 55.0457 315.767 55.1223L313.37 56.3827C313.003 56.5755 312.574 56.264 312.645 55.8556L313.102 53.1861C313.13 53.0239 313.076 52.8584 312.959 52.7436L311.019 50.8531C310.722 50.5638 310.886 50.0598 311.296 50.0002L313.977 49.6107C314.139 49.5871 314.28 49.4848 314.353 49.3372L315.552 46.9085C315.735 46.5369 316.265 46.5369 316.448 46.9085L317.647 49.3372C317.72 49.4848 317.861 49.5871 318.023 49.6107L320.704 50.0002C321.114 50.0598 321.278 50.5638 320.981 50.8531L319.041 52.7436C318.924 52.8584 318.87 53.0239 318.898 53.1861L319.355 55.8556C319.426 56.264 318.997 56.5755 318.63 56.3827L316.233 55.1223Z" fill="#D7DBE2"/>
<path fill-rule="evenodd" clip-rule="evenodd" d="M292.233 55.1223C292.087 55.0457 291.913 55.0457 291.767 55.1223L289.37 56.3827C289.003 56.5755 288.574 56.264 288.645 55.8556L289.102 53.1861C289.13 53.0239 289.076 52.8584 288.959 52.7436L287.019 50.8531C286.722 50.5638 286.886 50.0598 287.296 50.0002L289.977 49.6107C290.139 49.5871 290.28 49.4848 290.353 49.3372L291.552 46.9085C291.735 46.5369 292.265 46.5369 292.448 46.9085L293.647 49.3372C293.72 49.4848 293.861 49.5871 294.023 49.6107L296.704 50.0002C297.114 50.0598 297.278 50.5638 296.981 50.8531L295.041 52.7436C294.924 52.8584 294.87 53.0239 294.898 53.1861L295.355 55.8556C295.426 56.264 294.997 56.5755 294.63 56.3827L292.233 55.1223Z" fill="#1672F7"/>
<path fill-rule="evenodd" clip-rule="evenodd" d="M304.233 55.1223C304.087 55.0457 303.913 55.0457 303.767 55.1223L301.37 56.3827C301.003 56.5755 300.574 56.264 300.645 55.8556L301.102 53.1861C301.13 53.0239 301.076 52.8584 300.959 52.7436L299.019 50.8531C298.722 50.5638 298.886 50.0598 299.296 50.0002L301.977 49.6107C302.139 49.5871 302.28 49.4848 302.353 49.3372L303.552 46.9085C303.735 46.5369 304.265 46.5369 304.448 46.9085L305.647 49.3372C305.72 49.4848 305.861 49.5871 306.023 49.6107L308.704 50.0002C309.114 50.0598 309.278 50.5638 308.981 50.8531L307.041 52.7436C306.924 52.8584 306.87 53.0239 306.898 53.1861L307.355 55.8556C307.426 56.264 306.997 56.5755 306.63 56.3827L304.233 55.1223Z" fill="#1672F7"/>
<path fill-rule="evenodd" clip-rule="evenodd" d="M280.233 55.1223C280.087 55.0457 279.913 55.0457 279.767 55.1223L277.37 56.3827C277.003 56.5755 276.574 56.264 276.645 55.8556L277.102 53.1861C277.13 53.0239 277.076 52.8584 276.959 52.7436L275.019 50.8531C274.722 50.5638 274.886 50.0598 275.296 50.0002L277.977 49.6107C278.139 49.5871 278.28 49.4848 278.353 49.3372L279.552 46.9085C279.735 46.5369 280.265 46.5369 280.448 46.9085L281.647 49.3372C281.72 49.4848 281.861 49.5871 282.023 49.6107L284.704 50.0002C285.114 50.0598 285.278 50.5638 284.981 50.8531L283.041 52.7436C282.924 52.8584 282.87 53.0239 282.898 53.1861L283.355 55.8556C283.426 56.264 282.997 56.5755 282.63 56.3827L280.233 55.1223Z" fill="#1672F7"/>
<path fill-rule="evenodd" clip-rule="evenodd" d="M268.233 55.1223C268.087 55.0457 267.913 55.0457 267.767 55.1223L265.37 56.3827C265.003 56.5755 264.574 56.264 264.645 55.8556L265.102 53.1861C265.13 53.0239 265.076 52.8584 264.959 52.7436L263.019 50.8531C262.722 50.5638 262.886 50.0598 263.296 50.0002L265.977 49.6107C266.139 49.5871 266.28 49.4848 266.353 49.3372L267.552 46.9085C267.735 46.5369 268.265 46.5369 268.448 46.9085L269.647 49.3372C269.72 49.4848 269.861 49.5871 270.023 49.6107L272.704 50.0002C273.114 50.0598 273.278 50.5638 272.981 50.8531L271.041 52.7436C270.924 52.8584 270.87 53.0239 270.898 53.1861L271.355 55.8556C271.426 56.264 270.997 56.5755 270.63 56.3827L268.233 55.1223Z" fill="#1672F7"/>
</g>
<path d="M74.0698 162.538C74.0698 164.266 74.0698 166.282 73.5258 169.034L74.8378 169.178C75.3818 166.282 75.3818 164.314 75.3818 162.538V161.114H65.3178V162.186H74.0698V162.538ZM70.3098 170.938V165.802H68.9978V170.938H63.9578V172.01H76.9338V170.938H70.3098ZM78.3005 160.746V161.802H82.5565C82.3165 164.186 80.6685 166.122 77.7405 167.322L78.3805 168.282C82.0125 166.746 83.9005 164.17 83.9005 160.746H78.3005ZM80.1245 169.882H88.4605V174.026H89.7725V168.81H80.1245V169.882ZM88.5085 159.69V163.29H86.6205V159.946H85.3725V168.058H86.6205V164.362H88.5085V168.122H89.7725V159.69H88.5085ZM101.875 168.522H103.203V159.69H101.875V162.234H99.5073V163.306H101.875V164.81H99.5073V165.882H101.875V168.522ZM94.4993 161.818H96.6593V166.474C95.9393 166.506 95.2033 166.538 94.4993 166.554V161.818ZM99.8113 166.218C99.2193 166.298 98.5793 166.346 97.9393 166.394V161.818H99.3633V160.762H91.8113V161.818H93.2353V166.57C92.5953 166.586 91.9713 166.586 91.4273 166.586L91.5713 167.674C93.8913 167.674 97.1233 167.626 99.8913 167.194L99.8113 166.218ZM98.4673 172.986C96.2913 172.986 94.9953 172.41 94.9953 171.402C94.9953 170.426 96.2913 169.834 98.4673 169.834C100.643 169.834 101.939 170.426 101.939 171.402C101.939 172.41 100.643 172.986 98.4673 172.986ZM98.4673 168.826C95.4913 168.826 93.6833 169.754 93.6833 171.402C93.6833 173.066 95.4913 174.01 98.4673 174.01C101.427 174.01 103.251 173.066 103.251 171.402C103.251 169.754 101.427 168.826 98.4673 168.826ZM105.866 161.21V162.298H111.13C110.826 165.69 108.858 168.442 105.194 170.282L105.914 171.306C110.554 168.986 112.426 165.29 112.426 161.21H105.866ZM118.442 165.498H116.138V159.674H114.826V174.026H116.138V166.586H118.442V165.498ZM128.865 162.186H120.481V165.258H130.417V164.314H121.777V163.082H130.161V160.09H120.449V161.018H128.865V162.186ZM121.697 171.562H130.209V168.506H120.369V169.45H128.913V170.65H120.401V173.834H130.657V172.89H121.697V171.562ZM118.817 166.346V167.338H131.825V166.346H118.817ZM137.164 163.434C137.164 162.138 138.188 161.242 139.612 161.242C141.02 161.242 142.044 162.138 142.044 163.434C142.044 164.714 141.02 165.626 139.612 165.626C138.188 165.626 137.164 164.714 137.164 163.434ZM146.188 162.442V164.362H143.164C143.244 164.074 143.292 163.754 143.292 163.434C143.292 163.082 143.244 162.746 143.148 162.442H146.188ZM146.188 165.402V167.034H147.5V159.674H146.188V161.402H142.572C141.916 160.634 140.86 160.17 139.612 160.17C137.468 160.17 135.916 161.498 135.916 163.434C135.916 165.338 137.468 166.682 139.612 166.682C140.892 166.698 141.948 166.202 142.62 165.402H146.188ZM139.58 172.794V171.226H147.5V167.77H138.252V168.81H146.204V170.234H138.284V173.834H148.044V172.794H139.58ZM158.099 166.17C155.971 165.466 154.467 163.674 154.467 161.642V160.25H153.155V161.642C153.155 163.754 151.683 165.674 149.507 166.458L150.179 167.482C151.875 166.858 153.203 165.53 153.827 163.866C154.483 165.418 155.795 166.634 157.443 167.21L158.099 166.17ZM153.187 169.706H159.907V172.778H153.187V169.706ZM151.907 173.834H161.187V168.666H151.907V173.834ZM159.875 159.69V167.85H161.187V159.69H159.875ZM167.769 169.738C166.441 169.738 165.481 168.81 165.481 167.514C165.481 166.234 166.441 165.306 167.769 165.306C169.097 165.306 170.073 166.234 170.073 167.514C170.073 168.81 169.097 169.738 167.769 169.738ZM167.769 164.218C165.721 164.218 164.233 165.578 164.233 167.514C164.233 169.482 165.721 170.826 167.769 170.826C169.849 170.826 171.321 169.482 171.321 167.514C171.321 165.578 169.849 164.218 167.769 164.218ZM168.409 159.818H167.097V161.994H163.449V163.066H172.057V161.994H168.409V159.818ZM173.561 159.674V174.026H174.873V159.674H173.561ZM182.804 161.914H190.148V166.57H182.804V161.914ZM187.156 171.098V167.61H191.428V160.874H181.54V167.61H185.828V171.098H180.004V172.186H193.012V171.098H187.156ZM200.203 160.57C197.227 160.57 194.987 162.154 194.987 164.538C194.987 166.938 197.227 168.506 200.203 168.506C203.179 168.506 205.419 166.938 205.419 164.538C205.419 162.154 203.179 160.57 200.203 160.57ZM200.203 161.642C202.475 161.642 204.171 162.81 204.171 164.538C204.171 166.282 202.475 167.434 200.203 167.434C197.947 167.434 196.235 166.282 196.235 164.538C196.235 162.81 197.947 161.642 200.203 161.642ZM193.707 171.034V172.122H206.747V171.034H193.707ZM217.57 162.538C217.57 164.266 217.57 166.282 217.026 169.034L218.338 169.178C218.882 166.282 218.882 164.314 218.882 162.538V161.114H208.818V162.186H217.57V162.538ZM213.81 170.938V165.802H212.498V170.938H207.458V172.01H220.434V170.938H213.81ZM236.093 159.69H234.781V167.882H236.093V159.69ZM228.381 161.61C229.805 161.61 230.861 162.554 230.861 163.866C230.861 165.194 229.805 166.122 228.381 166.122C226.957 166.122 225.933 165.194 225.933 163.866C225.933 162.554 226.957 161.61 228.381 161.61ZM228.381 167.21C230.557 167.21 232.141 165.85 232.141 163.866C232.141 161.882 230.557 160.522 228.381 160.522C226.221 160.522 224.653 161.882 224.653 163.866C224.653 165.85 226.221 167.21 228.381 167.21ZM234.493 168.506H233.213V169.274C233.213 170.394 232.525 171.834 231.149 172.682C229.821 171.898 229.165 170.538 229.165 169.274V168.506H227.901V169.274C227.901 170.65 226.829 172.202 225.021 172.842L225.677 173.834C227.021 173.322 227.997 172.33 228.509 171.178C228.941 172.378 229.805 173.418 231.181 173.962C232.509 173.386 233.389 172.298 233.837 171.13C234.317 172.33 235.309 173.322 236.717 173.834L237.373 172.842C235.549 172.234 234.493 170.762 234.493 169.274V168.506ZM241.876 169.626C240.5 169.626 239.539 168.122 239.539 165.786C239.539 163.466 240.5 161.962 241.876 161.962C243.236 161.962 244.196 163.466 244.196 165.786C244.196 168.122 243.236 169.626 241.876 169.626ZM248.548 159.674V165.146H245.428C245.22 162.458 243.812 160.778 241.876 160.778C239.78 160.778 238.292 162.73 238.292 165.786C238.292 168.842 239.78 170.794 241.876 170.794C243.876 170.794 245.3 169.034 245.428 166.218H248.548V174.058H249.86V159.674H248.548ZM256.25 167.722C256.842 167.866 257.53 167.946 258.234 167.946C258.954 167.946 259.642 167.866 260.25 167.722V171.098H256.25V167.722ZM258.234 161.61C260.538 161.61 262.202 162.666 262.202 164.266C262.202 165.866 260.538 166.922 258.234 166.922C255.93 166.922 254.282 165.866 254.282 164.266C254.282 162.666 255.93 161.61 258.234 161.61ZM261.562 171.098V167.21C262.746 166.586 263.45 165.562 263.45 164.266C263.45 162.026 261.29 160.586 258.234 160.586C255.194 160.586 253.018 162.026 253.018 164.266C253.018 165.562 253.738 166.602 254.938 167.226V171.098H251.738V172.186H264.778V171.098H261.562ZM267.697 171.162C267.558 171.727 267.356 172.346 267.089 173.018C266.833 173.701 266.577 174.33 266.321 174.906H265.281C265.43 174.298 265.58 173.631 265.729 172.906C265.889 172.181 266.006 171.541 266.081 170.986H267.585L267.697 171.162ZM125.138 183.546C125.138 184.666 125.138 185.722 124.754 187.194L126.05 187.338C126.434 185.866 126.434 184.698 126.434 183.546V182.33H116.642V183.386H125.138V183.546ZM118.034 191.866H126.418V190.794H116.722V195.818H126.626V194.746H118.034V191.866ZM121.746 188.17V185.482H120.434V188.17H115.122V189.226H128.066V188.17H121.746ZM134.813 186.33H142.141V188.97H134.813V186.33ZM139.133 193.114V190.026H143.421V182.698H142.141V185.258H134.813V182.698H133.517V190.026H137.805V193.114H131.981V194.186H144.989V193.114H139.133ZM152.948 189.418C153.044 188.922 153.108 188.378 153.108 187.786C153.108 187.13 153.028 186.522 152.9 185.962H156.212V189.418H152.948ZM149.54 191.626C148.164 191.626 147.204 190.122 147.204 187.786C147.204 185.466 148.164 183.962 149.54 183.962C150.9 183.962 151.876 185.466 151.876 187.786C151.876 190.122 150.9 191.626 149.54 191.626ZM156.212 181.674V184.89H152.532C151.924 183.546 150.868 182.778 149.54 182.778C147.444 182.778 145.956 184.73 145.956 187.786C145.956 190.842 147.444 192.794 149.54 192.794C150.916 192.794 152.036 191.946 152.628 190.49H156.212V196.058H157.524V181.674H156.212ZM170.922 188.554H162.362V184.074H170.778V182.986H161.066V189.626H170.922V188.554ZM159.402 193.002V194.09H172.426V193.002H159.402ZM184.913 181.69H183.601V189.21H184.913V181.69ZM181.857 187.21C179.665 187.578 177.857 187.642 175.153 187.642V185.914H180.401V182.346H173.825V183.37H179.105V184.938H173.857V188.666H175.009C177.857 188.666 179.713 188.602 181.985 188.234L181.857 187.21ZM176.977 194.842V193.258H184.913V189.882H175.617V190.89H183.585V192.282H175.649V195.866H185.393V194.842H176.977ZM194.808 187.546H192.328C192.808 186.266 193.016 184.906 193.016 183.498H187.48V184.57H191.72C191.48 187.578 189.944 190.154 186.872 191.994L187.64 192.938C189.624 191.754 191 190.266 191.864 188.602H194.808V195.306H196.056V182.058H194.808V187.546ZM197.8 181.674V196.026H199.048V181.674H197.8ZM205.071 189.722C205.663 189.866 206.351 189.946 207.055 189.946C207.775 189.946 208.463 189.866 209.071 189.722V193.098H205.071V189.722ZM207.055 183.61C209.359 183.61 211.023 184.666 211.023 186.266C211.023 187.866 209.359 188.922 207.055 188.922C204.751 188.922 203.103 187.866 203.103 186.266C203.103 184.666 204.751 183.61 207.055 183.61ZM210.383 193.098V189.21C211.567 188.586 212.271 187.562 212.271 186.266C212.271 184.026 210.111 182.586 207.055 182.586C204.015 182.586 201.839 184.026 201.839 186.266C201.839 187.562 202.559 188.602 203.759 189.226V193.098H200.559V194.186H213.599V193.098H210.383ZM216.053 191.626H215.141L214.741 183.418H216.453L216.053 191.626ZM214.597 193.978C214.597 193.583 214.693 193.306 214.885 193.146C215.077 192.986 215.312 192.906 215.589 192.906C215.856 192.906 216.085 192.986 216.277 193.146C216.48 193.306 216.581 193.583 216.581 193.978C216.581 194.362 216.48 194.639 216.277 194.81C216.085 194.981 215.856 195.066 215.589 195.066C215.312 195.066 215.077 194.981 214.885 194.81C214.693 194.639 214.597 194.362 214.597 193.978Z" fill="#333333"/>
<path d="M180 122.935C181.598 122.935 182.904 124.18 182.995 125.751L183 125.927C183 136.39 174.493 144.873 164 144.873C153.507 144.873 145 136.39 145 125.927L145.005 125.751C145.096 124.18 146.402 122.935 148 122.935C149.598 122.935 150.904 124.18 150.995 125.751L151 125.927C151 133.086 156.82 138.89 164 138.89C171.18 138.89 177 133.086 177 125.927L177.005 125.751C177.096 124.18 178.402 122.935 180 122.935Z" fill="url(#paint0_linear)"/>
<path fill-rule="evenodd" clip-rule="evenodd" d="M155 111.966C156.657 111.966 158 113.305 158 114.958C158 116.61 156.657 117.949 155 117.949C153.343 117.949 152 116.61 152 114.958C152 113.305 153.343 111.966 155 111.966ZM180 122.935C181.657 122.935 183 124.274 183 125.927C183 127.579 181.657 128.918 180 128.918C178.343 128.918 177 127.579 177 125.927C177 124.274 178.343 122.935 180 122.935ZM176 114.958C176 113.305 174.657 111.966 173 111.966C171.343 111.966 170 113.305 170 114.958C170 116.61 171.343 117.949 173 117.949C174.657 117.949 176 116.61 176 114.958Z" fill="#1672F7"/>
<defs>
<filter id="filter0_f" x="0" y="0.478027" width="332" height="303.522" filterUnits="userSpaceOnUse" color-interpolation-filters="sRGB">
<feFlood flood-opacity="0" result="BackgroundImageFix"/>
<feBlend mode="normal" in="SourceGraphic" in2="BackgroundImageFix" result="shape"/>
<feGaussianBlur stdDeviation="5" result="effect1_foregroundBlur"/>
</filter>
<linearGradient id="paint0_linear" x1="183" y1="122.935" x2="164.002" y2="155.843" gradientUnits="userSpaceOnUse">
<stop stop-color="#1672F7"/>
<stop offset="1" stop-color="#15D4CC"/>
</linearGradient>
</defs>
</svg>
