<svg width="28" height="28" viewBox="0 0 28 28" fill="none" xmlns="http://www.w3.org/2000/svg">
<path fill-rule="evenodd" clip-rule="evenodd" d="M16.4749 1.02513C17.1313 1.6815 17.5 2.57174 17.5 3.5H21.875C22.3582 3.5 22.75 3.89175 22.75 4.375C22.75 4.85825 22.3582 5.25 21.875 5.25H5.25V26.25H22.75V9.625C22.75 9.14175 23.1418 8.75 23.625 8.75C24.1082 8.75 24.5 9.14175 24.5 9.625V27.125C24.5 27.6082 24.1082 28 23.625 28H4.375C3.89175 28 3.5 27.6082 3.5 27.125V4.375C3.5 3.89175 3.89175 3.5 4.375 3.5L12.25 3.5L15.75 3.5C15.75 3.03587 15.5656 2.59075 15.2374 2.26256C14.9092 1.93437 14.4641 1.75 14 1.75C13.5359 1.75 13.0908 1.93437 12.7626 2.26256C12.4344 2.59075 12.25 3.03587 12.25 3.5L10.5 3.5C10.5 2.57174 10.8687 1.6815 11.5251 1.02513C12.1815 0.368749 13.0717 0 14 0C14.9283 0 15.8185 0.368749 16.4749 1.02513ZM8.75 12.25C8.75 11.7668 9.14175 11.375 9.625 11.375H18.375C18.8582 11.375 19.25 11.7668 19.25 12.25C19.25 12.7332 18.8582 13.125 18.375 13.125H9.625C9.14175 13.125 8.75 12.7332 8.75 12.25ZM8.75 15.75C8.75 15.2668 9.14175 14.875 9.625 14.875H14.875C15.3582 14.875 15.75 15.2668 15.75 15.75C15.75 16.2332 15.3582 16.625 14.875 16.625H9.625C9.14175 16.625 8.75 16.2332 8.75 15.75ZM9.625 18.375C9.14175 18.375 8.75 18.7668 8.75 19.25C8.75 19.7332 9.14175 20.125 9.625 20.125H18.375C18.8582 20.125 19.25 19.7332 19.25 19.25C19.25 18.7668 18.8582 18.375 18.375 18.375H9.625Z" fill="white"/>
</svg>
