<svg width="24" height="24" viewBox="0 0 24 24" fill="none" xmlns="http://www.w3.org/2000/svg">
<path fill-rule="evenodd" clip-rule="evenodd" d="M3 6.75C3.41421 6.75 3.75 7.08579 3.75 7.5V12.75H19.3693L15.9306 8.73809C15.661 8.4236 15.6974 7.95012 16.0119 7.68056C16.3264 7.41099 16.7999 7.44741 17.0694 7.76191L21.5694 13.0119C21.7601 13.2343 21.8038 13.5473 21.6814 13.8134C21.559 14.0795 21.2929 14.25 21 14.25H3C2.58579 14.25 2.25 13.9142 2.25 13.5V7.5C2.25 7.08579 2.58579 6.75 3 6.75Z" fill="#333333"/>
<path fill-rule="evenodd" clip-rule="evenodd" d="M15.9357 20.506C15.624 20.2332 15.5925 19.7594 15.8653 19.4477L19.0535 15.8053C19.3264 15.4936 19.8002 15.4621 20.1119 15.7349C20.4235 16.0077 20.4551 16.4815 20.1822 16.7932L16.994 20.4357C16.7212 20.7473 16.2474 20.7788 15.9357 20.506Z" fill="#333333"/>
</svg>
