<svg width="36" height="35" viewBox="0 0 36 35" fill="none" xmlns="http://www.w3.org/2000/svg">
<path fill-rule="evenodd" clip-rule="evenodd" d="M18.4653 29.2446C18.174 29.0915 17.826 29.0915 17.5347 29.2446L8.03777 34.2375C7.30414 34.6231 6.44671 34.0002 6.58682 33.1833L8.40056 22.6083C8.4562 22.2839 8.34865 21.9529 8.11297 21.7232L0.429819 14.234C-0.163698 13.6554 0.163812 12.6475 0.984033 12.5283L11.6019 10.9854C11.9276 10.9381 12.2092 10.7335 12.3548 10.4384L17.1033 0.816986C17.4701 0.07374 18.5299 0.0737401 18.8967 0.816986L23.6452 10.4384C23.7908 10.7335 24.0724 10.9381 24.3981 10.9854L35.016 12.5283C35.8362 12.6475 36.1637 13.6554 35.5702 14.234L27.887 21.7232C27.6513 21.9529 27.5438 22.2839 27.5994 22.6083L29.4132 33.1833C29.5533 34.0002 28.6959 34.6231 27.9622 34.2375L18.4653 29.2446Z" fill="#D7DBE2"/>
</svg>
