<svg xmlns="http://www.w3.org/2000/svg" width="22" height="15">
	<g transform="translate(-1 -5)" fill="none" fill-rule="evenodd"><rect fill="#121212" fill-rule="nonzero" x="12" y="5.333" width="10.667" height="1.333" rx=".667"/><rect fill="#121212" fill-rule="nonzero" x="5.333" y="8.667" width="6" height="1.333" rx=".667"/><path d="M11.333 9.333v8a.667.667 0 11-1.333 0v-8a.667.667 0 111.333 0zM22.667 6v11.333a.667.667 0 01-1.334 0V6a.667.667 0 111.334 0z" fill="#121212" fill-rule="nonzero"/><rect fill="#121212" fill-rule="nonzero" transform="rotate(90 2 15.333)" x="-.667" y="14.667" width="5.333" height="1.333" rx=".667"/><path d="M6.5 9.769l-3.97 3.928a.719.719 0 01-.978.031.618.618 0 01-.029-.906l3.97-3.928a.719.719 0 01.978-.032.618.618 0 01.03.907z" fill="#121212" fill-rule="nonzero"/><rect fill="#121212" fill-rule="nonzero" x="10" y="16.667" width="5" height="1.333" rx=".667"/><rect fill="#121212" fill-rule="nonzero" x="18" y="16.667" width="4.667" height="1.333" rx=".667"/><rect fill="#121212" fill-rule="nonzero" x="1.333" y="16.667" width="3.333" height="1.333" rx=".667"/><circle stroke="#121212" stroke-width="4" cx="6.333" cy="17.333" r="1"/><circle stroke="#121212" stroke-width="4" cx="16.667" cy="17.333" r="1"/></g></svg>
