<svg xmlns="http://www.w3.org/2000/svg" width="16" height="16" viewBox="0 0 16 16">
    <g fill="none" fill-rule="evenodd">
        <circle cx="8" cy="8" r="8" fill="#BCC0C6" fill-rule="nonzero"/>
        <path fill="#FFF" d="M5.854 5.146l2.121 2.122 2.121-2.122a.5.5 0 0 1 .638-.057l.07.057a.5.5 0 0 1 .057.638l-.058.07-2.121 2.121 2.121 2.121a.5.5 0 0 1-.707.707L7.975 8.682l-2.121 2.121a.5.5 0 0 1-.638.058l-.07-.058a.5.5 0 0 1-.057-.638l.057-.069 2.122-2.121-2.122-2.121a.5.5 0 1 1 .708-.708z"/>
    </g>
</svg>
