<svg xmlns="http://www.w3.org/2000/svg" width="16" height="16" viewBox="0 0 16 16">
    <path fill="#121212" fill-rule="nonzero" d="M.016 15.501l.019-.25a8.001 8.001 0 0 1 7.682-7.246L8 8a4 4 0 0 1-3.857-5.065.514.514 0 0 1 .481-.342.5.5 0 0 1 .456.706l.002.001a3 3 0 1 0 1.524-1.957l-.175.1a.5.5 0 1 1-.46-.878L5.966.555a4 4 0 1 1 2.258 7.438L8 8a8 8 0 0 1 7.965 7.25l.011.131.006.045.003.075-.005-.001-.004.06a.5.5 0 0 1-.99-.06h-.004a7 7 0 0 0-13.964 0h-.004l-.007.083a.5.5 0 0 1-.991-.082z"/>
</svg>
