<svg xmlns="http://www.w3.org/2000/svg" width="16" height="16" viewBox="0 0 16 16">
    <path fill="#121212" fill-rule="nonzero" d="M10.988 1.111l4.544 4.558c.074.074.12.164.138.26a.504.504 0 0 1-.13.485l-8.603 8.352-.035.03A.5.5 0 0 1 6.5 15h-5a.5.5 0 0 1-.5-.5v-4l.006-.079a.495.495 0 0 1 .084-.263l.064-.078 3.52-3.473a.503.503 0 0 1 .709.002c.172.173.191.44.057.634l-.06.071L2 10.648 1.999 14H6.29l5.067-4.919-4.165-4.13a.497.497 0 0 1-.145-.318.493.493 0 0 1 .08-.372l.058-.07 3.056-3.05a.502.502 0 0 1 .087-.07l-.048.042a.5.5 0 0 1 .708 0zm-.36 1.055L8.225 4.564l3.85 3.82 2.414-2.345-3.861-3.873z"/>
</svg>
