<svg xmlns="http://www.w3.org/2000/svg" xmlns:xlink="http://www.w3.org/1999/xlink" width="24" height="24" viewBox="0 0 24 24">
    <defs>
        <path id="a" d="M.566.534l11.888 11.471 4.028-3.888L2.547.476C2.166.267 1.803.167 1.48.167c-.364 0-.678.127-.913.367z"/>
    </defs>
    <g fill="none" fill-rule="evenodd" transform="translate(1)">
        <path fill="#C3C7D0" d="M.565.532c-.276.285-.44.724-.44 1.294v20.361c0 .57.164 1.009.44 1.292l.072.067L12.453 12.14v-.269L.637.465.565.532"/>
        <path fill="#C3C7D0" d="M16.391 15.944l-3.938-3.803v-.27l3.94-3.801 4.756 2.607c1.333.73 1.333 1.927 0 2.658l-4.667 2.56-.09.049"/>
        <path fill="#EAECF0" d="M16.482 15.894l-4.028-3.888L.566 23.48c.44.448 1.165.505 1.981.057l13.935-7.642"/>
        <use fill="#D6DAE2" xlink:href="#a"/>
    </g>
</svg>
