<svg xmlns="http://www.w3.org/2000/svg" width="24" height="24" viewBox="0 0 24 24">
    <defs>
        <linearGradient id="a" x1="0%" y1="90.929%" y2="9.071%">
            <stop offset="0%" stop-color="#2CCBCB"/>
            <stop offset="100%" stop-color="#1689F7"/>
        </linearGradient>
    </defs>
    <path fill="url(#a)" fill-rule="evenodd" d="M4.257 17.906c.36-.19 1.201-.153 1.584-.016l.243.092c.349.146.613.328.615.656.002.155-.073.35-.139.492l-.1.194-1.048 1.863c-.38.676-1.22.906-1.873.512-.613-.37-.847-1.155-.56-1.81l.064-.128.85-1.512.118-.138c.069-.074.16-.16.246-.205zm9.722-10.564l4.068 7.233h3.612c.733 0 1.327.615 1.327 1.372 0 .714-.526 1.3-1.199 1.366l-.128.007H19.59l1.373 2.44c.38.677.159 1.545-.495 1.939-.613.37-1.388.19-1.797-.39l-.076-.122-5.034-8.947c-.21-.39-.68-1.41-.575-2.568.113-1.238.827-2.135.969-2.302l.024-.028zm-1.344-4.637a1.345 1.345 0 0 1 1.874-.512c.613.369.846 1.154.559 1.809l-.065.129L9.13 14.575h3.753s.932-.068 1.399.272c.52.379.732.892.837 1.326.088.365.06.62-.021.856-.06.173-.228.245-.334.273l-.09.018H2.326C1.594 17.32 1 16.705 1 15.947c0-.713.526-1.3 1.198-1.366l.128-.006H5.96l4.458-7.928-1.415-2.516c-.38-.677-.159-1.545.495-1.938a1.341 1.341 0 0 1 1.797.39l.077.122.631 1.123.632-1.123z"/>
</svg>
