<svg xmlns="http://www.w3.org/2000/svg" width="32" height="32" viewBox="0 0 32 32">
    <g fill="none" fill-rule="evenodd">
        <circle cx="16" cy="16" r="16" fill="#FFF" stroke="#D7DBE2"/>
        <path fill="#BCC0C6" d="M9.805 20.725c.29-.152.962-.123 1.268-.013l.194.074c.279.116.49.262.493.524 0 .125-.059.28-.112.394l-.08.155-.839 1.49a1.076 1.076 0 0 1-1.498.41 1.155 1.155 0 0 1-.448-1.447l.052-.103.68-1.21.094-.11a.828.828 0 0 1 .196-.164zm7.778-8.451l3.255 5.786h2.89c.585 0 1.06.492 1.06 1.098 0 .57-.42 1.04-.958 1.093l-.103.005h-1.655l1.099 1.953a1.156 1.156 0 0 1-.396 1.55 1.073 1.073 0 0 1-1.438-.312l-.061-.098-4.027-7.157c-.168-.311-.545-1.127-.46-2.054.09-.99.662-1.708.775-1.842l.02-.022zm-1.075-3.71a1.076 1.076 0 0 1 1.499-.41c.49.295.677.924.447 1.448l-.051.103-4.699 8.355h3.002s.746-.054 1.12.217c.415.303.585.714.67 1.062.07.291.047.495-.018.684-.047.139-.182.196-.267.219l-.072.014H8.261c-.586 0-1.061-.492-1.061-1.098 0-.57.42-1.04.959-1.093l.102-.005h2.907l3.567-6.342-1.132-2.013a1.156 1.156 0 0 1 .396-1.55 1.073 1.073 0 0 1 1.437.312l.061.097.506.899.505-.899z"/>
    </g>
</svg>
