<svg xmlns="http://www.w3.org/2000/svg" width="40" height="40" viewBox="0 0 40 40">
    <g fill="none" fill-rule="evenodd">
        <path fill="#C3C7D0" d="M40 20c0 11.046-8.954 20-20 20S0 31.046 0 20C0 8.956 8.954 0 20 0s20 8.955 20 20"/>
        <path fill="#FEFEFE" d="M28.01 12.28c1.45.232 2.236.879 2.656 2.56.14.56.334 3.653.334 4.829v.26c0 1.18-.195 4.268-.334 4.832-.42 1.677-1.207 2.323-2.655 2.555-.833.125-4.838.282-8.019.282l.016-.002c-3.183 0-7.189-.155-8.019-.28-1.448-.232-2.238-.878-2.653-2.555C9.193 24.197 9 21.11 9 19.93v-.26c0-1.176.193-4.268.336-4.828.415-1.678 1.205-2.329 2.653-2.561.804-.12 4.587-.27 7.71-.28h.3c3.178 0 7.182.157 8.012.28zM18 17v6.858l6.417-3.51L18 17z"/>
    </g>
</svg>
