<svg xmlns="http://www.w3.org/2000/svg" xmlns:xlink="http://www.w3.org/1999/xlink" width="24" height="24" viewBox="0 0 24 24">
    <defs>
        <path id="a" d="M1.566.534l11.888 11.471 4.028-3.888L3.547.476C3.166.267 2.803.167 2.48.167c-.364 0-.678.127-.913.367z"/>
    </defs>
    <g fill="none" fill-rule="evenodd">
        <path fill="#68D1F4" d="M1.565.532c-.276.285-.44.724-.44 1.294v20.361c0 .57.164 1.009.44 1.292l.072.067L13.453 12.14v-.269L1.637.465l-.072.067"/>
        <path fill="#FCDB37" d="M17.391 15.944l-3.938-3.803v-.27l3.94-3.801 4.756 2.607c1.333.73 1.333 1.927 0 2.658l-4.667 2.56-.09.049"/>
        <path fill="#CF2931" d="M17.482 15.894l-4.028-3.888L1.566 23.48c.44.448 1.165.505 1.981.057l13.935-7.642"/>
        <use fill="#80C778" xlink:href="#a"/>
    </g>
</svg>
