<svg xmlns="http://www.w3.org/2000/svg" xmlns:xlink="http://www.w3.org/1999/xlink" width="32" height="32" viewBox="0 0 32 32">
    <defs>
        <path id="a" d="M9.152 6.693l9.51 9.177 3.223-3.11-11.148-6.113c-.305-.167-.595-.247-.854-.247a.995.995 0 0 0-.73.293z"/>
    </defs>
    <g fill="none" fill-rule="evenodd">
        <path fill="#FFF" stroke="#D7DBE2" d="M32 16c0 8.837-7.163 16-16 16S0 24.837 0 16C0 7.165 7.163 0 16 0s16 7.164 16 16"/>
        <path fill="#BCC0C6" d="M9.152 6.692c-.221.228-.352.58-.352 1.035v16.289c0 .455.13.807.352 1.033l.057.054 9.453-9.125v-.215L9.21 6.638l-.057.054M21.813 19.02l-3.15-3.041v-.216l3.151-3.041 3.805 2.086c1.066.584 1.066 1.54 0 2.126l-3.734 2.048-.072.039"/>
        <path fill="#EAECF0" d="M21.885 18.981l-3.222-3.11-9.51 9.179c.351.358.932.403 1.584.045l11.148-6.114"/>
        <use fill="#D6DAE2" xlink:href="#a"/>
    </g>
</svg>
