<svg xmlns="http://www.w3.org/2000/svg" width="40" height="40" viewBox="0 0 40 40">
    <g fill="none" fill-rule="evenodd">
        <path fill="#C3C7D0" d="M40 20c0 11.046-8.954 20-20 20S0 31.046 0 20C0 8.956 8.954 0 20 0s20 8.955 20 20"/>
        <path fill="#FFF" d="M29.242 17.601a2.16 2.16 0 0 1 1.658.752v-.559h1.92v5.574c0 2.944-2.581 3.076-2.86 3.081h-.794v-1.747h.477c1.397 0 1.257-1.443 1.257-1.443v-.46c-.616.796-1.734.753-1.734.753-2.744 0-2.714-2.929-2.714-2.929 0-2.812 2.234-3.01 2.704-3.022zm-19.67-2.378v3.13c.8-.78 1.68-.78 1.68-.78 2.677 0 2.78 3.003 2.78 3.003 0 2.97-2.78 3.074-2.78 3.074-1.188 0-1.658-.85-1.658-.85v.642H7.601v-8.219h1.97zm12.548 2.378c3.194 0 3.333 2.614 3.336 2.997v.046c0 2.838-2.985 2.997-3.308 3.006h-.028c-3.366 0-3.262-3.006-3.262-3.006 0-3.043 3.262-3.043 3.262-3.043zm-7.453-2.567c2.884 0 2.801 3.094 2.801 3.094v5.315h-1.903v-4.864c0-1.68-.898-1.64-.898-1.64zm-3.85 4.343c-.702 0-1.268.565-1.268 1.267a1.267 1.267 0 1 0 1.267-1.267zm11.304 0a1.265 1.265 0 1 0 0 2.533 1.267 1.267 0 1 0 0-2.533zm7.6 0a1.266 1.266 0 1 0 0 2.533c.701 0 1.267-.566 1.267-1.266 0-.702-.566-1.267-1.267-1.267z"/>
    </g>
</svg>
