<svg width="33" height="32" viewBox="0 0 33 32" fill="none" xmlns="http://www.w3.org/2000/svg">
    <rect x="7.4288" y="26.855" width="17.7133" height="1.1428" rx="0.571399" fill="#121212"/>
    <rect x="24" y="18.6819" width="5.71398" height="1.1428" rx="0.571399" fill="#121212"/>
    <path d="M15.6004 5.78266C15.8215 5.55681 16.1792 5.55441 16.4031 5.77728L29.532 18.8431C29.7602 19.0701 29.7626 19.4439 29.5374 19.674C29.3163 19.8999 28.9586 19.9023 28.7346 19.6794L15.6057 6.61359C15.3776 6.38654 15.3752 6.01275 15.6004 5.78266Z" fill="#121212"/>
    <path d="M11.0333 11.2719C11.2563 11.4997 11.618 11.4998 11.8411 11.2721L16.3999 6.61918C16.6232 6.39124 16.6233 6.02148 16.4 5.79343C16.177 5.56553 15.8153 5.56544 15.5922 5.79323L11.0335 10.4461C10.8101 10.674 10.81 11.0438 11.0333 11.2719Z" fill="#121212"/>
    <rect x="25.1428" y="18.6819" width="9.3402" height="1.1428" rx="0.571398" transform="rotate(90 25.1428 18.6819)" fill="#121212"/>
    <rect x="8.57162" y="23.9359" width="4.08645" height="1.1428" rx="0.571398" transform="rotate(90 8.57162 23.9359)" fill="#121212"/>
    <path d="M14.9324 12.86C13.3263 13.103 11.9867 13.7255 10.9835 14.7486C9.99765 15.754 9.39265 17.0895 9.14747 18.6892C8.90134 17.089 8.29412 15.7534 7.30611 14.748C6.30112 13.7253 4.95986 13.103 3.35308 12.86C4.96165 12.6139 6.30332 11.984 7.30793 10.9541C8.2946 9.94263 8.90142 8.60129 9.14747 6.99854C9.39257 8.60077 9.99717 9.94198 10.9817 10.9536C11.9845 11.9839 13.3245 12.6139 14.9324 12.86Z" stroke="#1672F7" stroke-width="1.4" stroke-linecap="round" stroke-linejoin="round"/>
</svg>
