<svg xmlns="http://www.w3.org/2000/svg" width="24" height="24" viewBox="0 0 24 24">
    <g fill="none" fill-rule="nonzero">
        <path fill="#000" fill-opacity=".5" d="M0 0h24v24H0z"/>
        <path fill="#FFF" d="M8.78 7.72l3.183 3.182 3.181-3.182a.75.75 0 0 1 .957-.087l.104.087c.26.26.29.664.087.956l-.087.104-3.182 3.183 3.182 3.181a.75.75 0 0 1-1.06 1.061l-3.182-3.182-3.183 3.182a.75.75 0 0 1-.956.087l-.104-.087a.75.75 0 0 1-.087-.957l.087-.104 3.182-3.181L7.72 8.78a.75.75 0 0 1 1.06-1.06z"/>
    </g>
</svg>
